<svg width="154" height="154" viewBox="0 0 154 154" fill="none" xmlns="http://www.w3.org/2000/svg">
<g clip-path="url(#clip0_105_598)">
<rect width="154" height="154" fill="white"/>
<path d="M42.2738 35.5408C51.1783 34.0717 60.4606 35.4061 68.7151 38.9943C71.0165 40.0432 73.3021 41.1662 75.3499 42.6617C75.8889 43.0158 76.4147 43.4412 77.0594 43.5865C77.6645 43.642 78.1824 43.243 78.6818 42.9603C82.9543 40.1252 87.5915 37.7445 92.5854 36.4841C100.047 34.3201 108.093 34.69 115.51 36.8567C120.971 38.5319 126.153 41.6445 129.627 46.2473C132.529 50.0971 133.884 54.9774 133.781 59.7652C133.8 65.1 131.823 70.263 128.933 74.6809C125.952 79.178 122.034 83.0225 117.602 86.0849C114.765 88.0191 111.811 89.8132 108.611 91.092C106.463 91.9217 104.349 93.1662 101.963 93.0183C102.296 92.2309 102.719 91.454 103.435 90.9546C109.348 86.5658 115.05 81.6459 119.095 75.4233C121.74 71.4124 123.624 66.6932 123.466 61.8235C123.553 57.551 121.68 53.3392 118.662 50.3455C113.996 45.5128 107.152 43.1902 100.52 43.1928C92.8866 42.9735 85.3852 45.7294 79.1759 50.0601C78.5761 50.4353 77.9842 50.9004 77.2655 51.0113C76.7397 50.9585 76.3301 50.5727 75.9179 50.2794C72.5147 47.4416 68.3927 45.5973 64.173 44.3396C59.5728 42.9682 54.711 42.6802 49.947 43.0845C44.6519 43.79 39.2696 45.7849 35.5942 49.8065C32.5608 52.8081 30.9411 57.1044 31.1049 61.3585C31.0627 66.5268 33.6706 71.3622 37.206 74.99C42.3875 80.1715 48.9932 83.6752 55.8023 86.2302C62.2098 88.5924 68.8551 90.4632 75.6775 91.0577C78.0899 91.3166 80.3279 90.2148 82.4866 89.3111C88.1887 86.7349 93.4706 82.7689 96.5964 77.2491C98.5411 73.8115 99.4131 69.7689 98.9797 65.8372C98.6732 63.1975 97.2913 60.6398 95.0454 59.1654C92.8259 57.7306 89.9616 57.551 87.4805 58.3542C84.7511 59.1628 82.5184 61.0652 80.6873 63.179C79.7545 64.2069 79.0041 65.4117 77.9234 66.2969C77.5482 66.6113 76.8771 66.7884 76.5389 66.326C75.9285 65.6707 75.519 64.8674 75.0037 64.1435C73.0035 61.2264 70.0283 58.888 66.5564 58.0451C64.2021 57.5298 61.6127 57.7069 59.4883 58.9117C57.4537 60.1642 56.0005 62.3784 55.7891 64.7723C55.5011 67.4886 56.5395 70.1678 58.0773 72.3636C60.82 75.9571 64.6222 78.5624 68.6332 80.5626C71.0852 81.9075 73.7618 82.7451 76.3169 83.8628C76.3566 84.0821 76.4385 84.5181 76.4781 84.7374C75.6986 84.8906 74.9033 85.0888 74.1053 84.9408C71.0932 84.4996 68.11 83.8311 65.2035 82.9195C60.4289 81.3605 55.7257 79.3815 51.6671 76.3772C48.6602 74.0863 45.9334 71.2115 44.5964 67.6128C43.2462 64.0193 43.595 59.7599 45.8251 56.5892C47.6456 54.0156 50.383 52.1026 53.411 51.2359C57.7285 49.9491 62.4925 50.1526 66.6753 51.841C69.2832 52.816 71.6718 54.3195 73.8015 56.103C74.935 57.0437 75.7832 58.304 77.0251 59.1152C77.5297 59.0703 77.9314 58.7294 78.3171 58.4309C81.5909 55.5164 85.3932 53.1331 89.5574 51.73C93.1799 50.5331 97.2147 50.2504 100.853 51.5319C103.308 52.4197 105.551 53.9469 107.197 55.9788C110.017 59.7071 110.664 64.7168 109.676 69.2061C108.362 75.0349 104.925 80.1504 100.864 84.4388C95.5395 89.8739 88.6722 93.5414 81.546 96.0357C79.8232 96.5853 78.0397 97.1455 76.2112 97.0345C65.7822 96.1546 55.5249 93.3485 46.0866 88.8329C41.349 86.3544 36.7145 83.5827 32.7035 80.0209C27.6964 75.751 23.6114 70.2154 21.7328 63.8581C20.4275 59.3794 20.4143 54.4648 22.1397 50.0945C23.8228 45.5339 27.2631 41.7554 31.4114 39.2876C34.7381 37.3349 38.4716 36.13 42.2738 35.5408Z" fill="#FD3334"/>
<path d="M75.9578 104.477C78.0663 103.706 80.5237 104.67 81.6968 106.546C81.2741 107.426 80.4523 108.018 79.7363 108.644C79.0123 108.119 78.3041 107.318 77.3318 107.381C76.6976 107.373 76.1296 107.957 76.2643 108.602C76.2352 109.181 76.8298 109.463 77.2657 109.693C78.5525 110.296 80.0982 110.584 81.0072 111.783C82.5054 113.704 81.8369 116.785 79.8023 118.053C78.645 118.796 77.1627 118.775 75.8706 118.455C74.6789 118.159 73.8598 117.184 73.083 116.304C73.7383 115.66 74.4041 115.025 75.0779 114.399C75.8442 114.893 76.5919 115.535 77.53 115.641C78.2804 115.675 78.9145 114.957 78.7877 114.217C78.859 113.617 78.1932 113.395 77.7678 113.173C76.3647 112.555 74.6314 112.225 73.7911 110.8C72.396 108.623 73.519 105.339 75.9578 104.477Z" fill="#FD3334"/>
<path d="M35.4251 104.475C37.3539 104.456 39.3568 104.176 41.2249 104.792C42.8155 105.305 43.8381 106.998 43.6452 108.644C43.6927 109.804 42.8314 110.663 42.0889 111.435C42.7653 112.005 43.6082 112.547 43.8407 113.461C44.0521 114.621 43.9887 115.929 43.2594 116.91C42.5275 117.943 41.2407 118.402 40.0173 118.482C38.4901 118.579 36.9576 118.495 35.4277 118.487C35.3696 113.818 35.3775 109.147 35.4251 104.475ZM38.3342 107.149C38.2999 108.142 38.2866 109.139 38.2893 110.135C38.9076 110.058 39.5417 110.032 40.1415 109.844C40.7968 109.514 40.7942 108.644 40.6436 108.029C40.2181 107.181 39.111 107.35 38.3342 107.149ZM38.2602 112.875C38.2761 113.823 38.2787 114.769 38.2734 115.718C38.8864 115.676 39.5074 115.673 40.1151 115.549C41.2037 115.316 41.3358 113.517 40.3714 113.049C39.6791 112.885 38.9657 112.909 38.2602 112.875Z" fill="#FD3334"/>
<path d="M48.0552 104.488C50.0844 104.43 52.1983 104.145 54.1615 104.819C56.4259 105.619 57.3745 108.616 56.2885 110.679C55.8155 111.485 55.0414 112.045 54.3385 112.637C55.6042 114.051 56.8777 115.457 58.08 116.926C57.4564 117.615 56.8592 118.35 56.0824 118.873C55.4641 118.598 55.0836 118.006 54.6635 117.504C53.5775 116.078 52.4176 114.711 51.2048 113.39C51.1916 115.092 51.1731 116.794 51.1572 118.495C50.1267 118.49 49.0936 118.485 48.0631 118.49C48.071 113.821 48.0869 109.155 48.0552 104.488ZM51.1836 107.337C51.181 108.439 51.1783 109.541 51.1783 110.645C51.7993 110.56 52.4361 110.523 53.0332 110.323C53.7836 109.818 53.8603 108.674 53.4005 107.955C52.9222 107.234 51.9182 107.487 51.1836 107.337Z" fill="#FD3334"/>
<path d="M61.4408 104.459C64.0488 104.383 66.662 104.322 69.2699 104.462C69.2514 105.458 69.2461 106.454 69.2514 107.453C67.6528 107.405 66.0542 107.419 64.4583 107.466C64.4768 108.288 64.4874 109.112 64.4953 109.937C66.0648 110.027 67.6343 110.04 69.2065 110.045C69.1774 111.025 69.1695 112.008 69.1853 112.991C67.6132 112.946 66.0384 112.959 64.4636 113.01C64.4689 113.86 64.4715 114.711 64.4794 115.562C66.078 115.594 67.6792 115.604 69.2805 115.583C69.2593 116.569 69.254 117.557 69.2646 118.545C66.6672 118.503 64.0672 118.503 61.4699 118.543C61.3246 113.85 61.3536 109.152 61.4408 104.459Z" fill="#FD3334"/>
<path d="M85.8951 104.391C86.8807 104.396 87.8689 104.409 88.8571 104.428C88.9126 108.14 88.7831 111.855 88.9417 115.567C90.4874 115.591 92.0358 115.604 93.5815 115.597C93.5657 116.55 93.5551 117.507 93.5525 118.463C91 118.54 88.4476 118.516 85.8951 118.498C85.8396 113.794 85.8396 109.091 85.8951 104.391Z" fill="#FD3334"/>
<path d="M96.895 104.464C99.4844 104.314 102.082 104.377 104.674 104.457C104.661 105.453 104.653 106.451 104.655 107.448C103.078 107.397 101.5 107.408 99.923 107.458C99.9204 108.285 99.9151 109.115 99.9098 109.942C101.477 110.029 103.046 110.037 104.616 110.045C104.587 111.025 104.573 112.005 104.587 112.986C103.03 112.936 101.471 112.957 99.9177 113.02C99.9177 113.866 99.9151 114.711 99.9151 115.557C101.516 115.594 103.118 115.604 104.721 115.588C104.706 116.577 104.7 117.567 104.703 118.556C102.098 118.495 99.4897 118.503 96.8844 118.542C96.858 113.85 96.8395 109.157 96.895 104.464Z" fill="#FD3334"/>
<path d="M109.158 104.473C111.285 104.391 113.544 104.084 115.56 104.956C117.441 105.807 118.268 108.201 117.576 110.098C117.209 111.168 116.316 111.913 115.52 112.666C116.736 114.157 118.041 115.57 119.249 117.066C118.519 117.658 117.809 118.268 117.098 118.884C115.372 117.137 113.93 115.142 112.241 113.364C112.231 115.076 112.218 116.788 112.191 118.501C111.176 118.495 110.167 118.498 109.155 118.498C109.1 113.824 109.092 109.147 109.158 104.473ZM112.233 107.342C112.218 108.436 112.215 109.533 112.22 110.629C112.849 110.553 113.488 110.51 114.104 110.339C114.886 109.921 114.87 108.811 114.567 108.095C114.138 107.242 113.01 107.488 112.233 107.342Z" fill="#FD3334"/>
</g>
<defs>
<clipPath id="clip0_105_598">
<rect width="154" height="154" fill="white"/>
</clipPath>
</defs>
</svg>
