<svg width="154" height="154" viewBox="0 0 154 154" fill="none" xmlns="http://www.w3.org/2000/svg">
<rect width="154" height="154" fill="white"/>
<g clip-path="url(#clip0_105_530)">
<mask id="mask0_105_530" style="mask-type:luminance" maskUnits="userSpaceOnUse" x="9" y="53" width="134" height="48">
<path d="M9.51221 100.477H142.654V53.5461H9.51221V100.477Z" fill="white"/>
</mask>
<g mask="url(#mask0_105_530)">
<path d="M134.238 55.1627C134.219 55.1486 134.196 55.1465 134.173 55.1351C134.062 55.272 133.943 55.4123 133.823 55.5555C132.865 56.6876 131.64 57.9998 130.116 59.4119C128.433 60.9728 126.383 62.6519 123.927 64.3321C118.221 68.2345 110.309 72.1424 99.6381 74.5907C97.1178 75.1692 94.4419 75.6656 91.606 76.061C86.8175 76.7298 81.5714 77.1117 75.8281 77.1117H75.693C71.0384 77.1067 66.7213 76.8528 62.7189 76.3989C62.7084 76.7036 62.7027 77.0124 62.7023 77.3258C62.7005 79.6773 62.9346 81.6659 63.4162 83.3529C67.3519 83.8453 71.5998 84.1195 76.1847 84.124H76.3022C81.8962 84.124 86.9908 83.7219 91.6306 83.0086C94.4645 82.5725 97.1278 82.0207 99.6301 81.3726C110.502 78.5567 118.339 73.928 123.921 69.1534C127.818 65.8203 130.614 62.4178 132.575 59.5092C132.95 58.9522 133.298 58.4122 133.613 57.8957C133.83 57.5903 134.008 57.2865 134.148 56.9946C134.547 56.1581 134.615 55.4394 134.238 55.1627ZM29.2581 65.0356C27.1092 63.5915 25.2684 62.1356 23.7021 60.7412C23.2541 60.342 22.8267 59.948 22.4222 59.5607C20.6794 57.8902 19.3408 56.3462 18.3504 55.0711C18.0165 55.3497 18.0634 56.0105 18.4155 56.7898C18.597 57.1121 18.7881 57.44 18.9953 57.783C19.8211 59.1542 20.8493 60.6822 22.1118 62.2921C23.5356 64.1062 25.2595 66.0248 27.3344 67.9421C32.5957 72.8033 40.1138 77.651 50.7092 80.7547C50.579 79.7076 50.5116 78.6373 50.5129 77.5446C50.5134 76.4297 50.5851 75.3352 50.7206 74.2637C41.4654 71.9591 34.4613 68.5331 29.2581 65.0356Z" fill="#67C530"/>
<path d="M89.0627 88.4866C84.6051 91.7623 80.3768 93.6424 75.7341 93.6424C71.1701 93.637 67.3185 91.8033 64.5998 89.0017C63.4486 87.8159 62.624 86.417 62.051 84.8418C61.9531 84.5728 61.8606 84.2991 61.7773 84.0196C61.6965 83.7477 61.6208 83.4722 61.5525 83.1916C61.1285 81.434 60.9552 79.4962 60.957 77.4134C60.9575 77.0374 60.9673 76.6687 60.9816 76.3032C60.9923 76.0433 61.0044 75.7851 61.0217 75.5305C61.0401 75.2684 61.0634 75.0103 61.0895 74.7535C61.9725 65.9216 67.3203 60.5487 76.1749 60.5487C80.723 60.5555 84.8948 61.8185 88.2452 64.2022L88.7246 64.5486L88.738 62.7704C88.4062 60.3412 87.9209 58.109 87.2468 55.9362L87.1953 55.7668L87.0202 55.7281C83.711 55.0087 80.6155 54.6432 77.7727 54.6402C70.777 54.6402 64.8977 56.4759 60.2957 60.0946C56.0653 63.4015 53.3248 67.9552 52.3415 73.2022C52.2932 73.4574 52.251 73.7145 52.2114 73.9728C52.1732 74.2235 52.1385 74.4759 52.1083 74.73C51.9942 75.6796 51.9343 76.6491 51.9329 77.6356C51.9318 78.8863 52.0265 80.1058 52.2094 81.29C52.2545 81.5797 52.3034 81.8676 52.3594 82.1529C52.4152 82.4394 52.4772 82.7234 52.5439 83.0049C53.6493 87.6811 56.2334 91.7003 60.0893 94.6217C63.9549 97.571 68.7846 99.1292 74.438 99.2542C74.6264 99.2563 74.822 99.2597 75.0235 99.2597C79.1612 99.2597 86.0284 98.3815 91.7755 95.9009L94.0075 94.9863C92.0613 92.9882 90.7127 90.5744 90.0329 87.8881L89.0627 88.4866ZM91.3159 67.7218L91.3064 74.5934C94.1339 74.196 96.797 73.6961 99.3059 73.1124L99.3116 67.7307C99.3177 62.8839 99.936 59.2076 101.322 55.8078L101.506 55.3537L89.1445 55.3423L89.3301 55.7982C90.7076 59.1969 91.3205 62.8763 91.3159 67.7218ZM128.598 58.429C129.686 57.4231 130.698 56.3921 131.62 55.3516L123.492 55.3423C123.492 55.3423 123.495 58.8291 123.495 62.5837C125.44 61.1914 127.133 59.7876 128.598 58.429ZM123.487 71.3332L123.473 82.3982H123.471L123.474 83.407C123.476 83.4911 123.482 83.5715 123.482 83.6541C123.482 89.9218 118.757 93.9465 111.953 93.9465C107.99 93.9465 104.427 92.6885 102.173 89.8764C100.543 87.8499 99.5956 85.5657 99.3569 83.0987L99.3528 83.0543C96.8764 83.6815 94.2486 84.2162 91.4596 84.6393C92.036 89.2229 94.4481 93.1735 98.3724 95.8653C102.074 98.3815 106.542 99.7124 111.299 99.7124C116.42 99.7124 121.092 98.2132 124.812 95.3791C128.813 92.3389 131.045 88.1325 131.266 83.2164L131.291 82.6913H131.299V82.5583L131.305 82.3982H131.299L131.314 67.7307C131.314 66.0639 131.39 64.5383 131.543 63.1123C129.497 65.7515 126.857 68.5892 123.487 71.3332ZM52.906 89.2582L52.7441 88.9587L52.4603 89.1491C48.4022 91.9112 44.3713 93.604 40.1225 93.604C30.8133 93.5948 25.3327 87.0102 25.3443 77.379C25.3468 74.4554 25.7832 71.8435 26.6244 69.5981C24.4175 67.5965 22.5765 65.5777 21.0475 63.6495C17.9783 67.4975 16.3275 72.3051 16.3223 77.5971C16.3159 84.5621 19.212 90.594 24.4769 94.5868C28.3445 97.5351 33.1715 99.0921 38.8258 99.2178C39.0139 99.221 39.2104 99.2246 39.4122 99.2246C44.2818 99.2246 51.6656 98.0411 57.1826 95.3969L57.5914 95.2031L57.2598 94.8931C55.4962 93.2571 54.0308 91.3597 52.906 89.2582ZM40.5634 60.5111C45.1098 60.518 49.2828 61.7823 52.6311 64.1674L53.1123 64.5103L53.1863 56.1029L52.9502 56.0458C49.0555 55.0929 45.4403 54.606 42.1639 54.6033C35.2739 54.6033 29.4667 56.3876 24.8955 59.8994C26.4538 61.274 28.2477 62.6759 30.305 64.0483C32.8378 61.7625 36.2925 60.5111 40.5634 60.5111Z" fill="#243E2E"/>
<path d="M133.957 97.0109H133.675V96.274C133.737 96.2578 133.848 96.2418 134.005 96.2418C134.38 96.2418 134.55 96.399 134.55 96.634C134.55 96.9018 134.285 97.0109 133.957 97.0109ZM134.662 97.1979V97.166C134.976 97.0712 135.194 96.8533 135.194 96.5543C135.194 96.3211 135.085 96.1175 134.944 96.0084C134.756 95.8827 134.538 95.8035 134.053 95.8035C133.629 95.8035 133.299 95.8506 133.064 95.8977V98.4497H133.661V97.4324H133.943C134.271 97.4324 134.428 97.5579 134.474 97.8394C134.55 98.1368 134.6 98.3529 134.677 98.4497H135.317C135.254 98.3695 135.209 98.2149 135.13 97.8244C135.052 97.4782 134.91 97.2753 134.662 97.1979Z" fill="#243E2E"/>
<path d="M134.082 99.1685C132.924 99.1685 132.08 98.2619 132.08 97.1182C132.08 95.9921 132.924 95.0666 134.053 95.0666H134.067C135.21 95.0666 136.039 95.9921 136.039 97.1182C136.039 98.2619 135.21 99.1846 134.082 99.1685ZM134.082 94.5508H134.067C132.597 94.5508 131.423 95.6958 131.423 97.1182C131.423 98.573 132.597 99.7007 134.067 99.7007C135.555 99.7007 136.697 98.573 136.697 97.1182C136.697 95.6958 135.555 94.5508 134.082 94.5508Z" fill="#243E2E"/>
</g>
</g>
<defs>
<clipPath id="clip0_105_530">
<rect width="121.021" height="45.7546" fill="white" transform="translate(16 54.2803)"/>
</clipPath>
</defs>
</svg>
