<svg width="154" height="154" viewBox="0 0 154 154" fill="none" xmlns="http://www.w3.org/2000/svg">
<g clip-path="url(#clip0_105_636)">
<rect width="154" height="154" fill="white"/>
<g clip-path="url(#clip1_105_636)">
<path d="M152.979 122.524H1.02686V0.966774H152.979V122.524Z" fill="#004595"/>
<path d="M152.979 152.913H1.02686V122.522H152.979V152.913Z" fill="#FFCF00"/>
<mask id="mask0_105_636" style="mask-type:luminance" maskUnits="userSpaceOnUse" x="-853" y="-1332" width="1111" height="1571">
<path d="M-852.147 238.047H257.317V-1331.05H-852.147V238.047Z" fill="white"/>
</mask>
<g mask="url(#mask0_105_636)">
<path d="M38.0514 58.1025V66.2733C39.4157 64.6667 41.0483 63.8578 42.9531 63.8578C43.9204 63.8578 44.8057 64.0349 45.5848 64.3983C46.3713 64.7655 46.9547 65.224 47.3516 65.798C47.7486 66.3683 48.017 66.9871 48.1624 67.6804C48.3133 68.3682 48.3954 69.4305 48.3954 70.875V80.3075H44.1627V71.8236C44.1627 70.1276 44.0677 69.0503 43.913 68.5974C43.7489 68.1501 43.4638 67.7941 43.0612 67.5201C42.6568 67.2499 42.1424 67.1176 41.531 67.1176C40.8228 67.1176 40.1966 67.2928 39.6356 67.6376C39.1007 67.9786 38.6832 68.4875 38.4223 69.1882C38.1762 69.8872 38.0514 70.9029 38.0514 72.2542V80.3075H33.8169V58.1025H38.0514ZM31.1203 68.978L26.938 69.7403C26.8057 68.8923 26.4777 68.2754 25.9819 67.8411C25.4936 67.4217 24.8487 67.2111 24.0566 67.2111C23.0017 67.2111 22.1574 67.5802 21.5275 68.3126C20.8882 69.0339 20.5863 70.2733 20.5863 71.9731C20.5863 73.8853 20.8975 75.2366 21.5312 76.0175C22.1779 76.8189 23.0371 77.2029 24.1032 77.2029C24.9195 77.2029 25.5756 76.9773 26.09 76.5226C26.5895 76.0641 26.9641 75.2701 27.1673 74.1444L31.331 74.8564C30.8967 76.7761 30.0841 78.2205 28.8484 79.1971C27.6164 80.1886 25.9782 80.6732 23.9131 80.6788C21.5629 80.6788 19.7047 79.9277 18.3031 78.4553C16.9183 76.9643 16.2231 74.9141 16.2231 72.2843C16.2231 69.6285 16.9295 67.5615 18.3106 66.091C19.7308 64.6056 21.6132 63.8601 23.9988 63.8601C25.9334 63.8601 27.4729 64.285 28.6303 65.1293C29.7915 65.9754 30.6208 67.2521 31.1203 68.978ZM137.021 78.5319C136.874 77.8479 136.826 76.8154 136.826 75.4045L136.872 70.4263C136.872 68.5812 136.669 67.3157 136.285 66.6317C135.926 65.9234 135.277 65.3587 134.356 64.9133C133.426 64.4567 132.012 64.2311 130.118 64.2311C128.04 64.2311 126.476 64.6076 125.423 65.3531C124.366 66.0949 123.63 67.2467 123.198 68.8142L127.035 69.5019C127.3 68.7639 127.643 68.2457 128.06 67.9457C128.472 67.6288 129.076 67.4909 129.827 67.4909C130.938 67.4909 131.697 67.6624 132.101 68.0109C132.507 68.3594 132.701 68.9353 132.701 69.7647V70.1859C131.939 70.5158 130.567 70.8643 128.59 71.2334C127.119 71.5204 125.99 71.841 125.213 72.2342C124.432 72.6126 123.83 73.1493 123.403 73.865C122.976 74.5733 122.76 75.3803 122.76 76.2935C122.76 77.669 123.22 78.804 124.167 79.7005C125.123 80.5914 126.435 81.0518 128.087 81.0518C129.007 81.048 129.893 80.8617 130.714 80.5169C131.54 80.1646 132.319 79.6316 133.037 78.9196C133.068 79.0072 133.119 79.1749 133.203 79.4265C133.348 79.9857 133.48 80.3976 133.587 80.6827H137.784C137.422 79.9111 137.159 79.2029 137.021 78.5319ZM132.701 73.8035C132.701 74.836 132.647 75.5107 132.548 75.8798C132.384 76.437 132.036 76.9104 131.527 77.2925C130.839 77.7901 130.105 78.0511 129.345 78.0511C128.648 78.0511 128.101 77.8311 127.654 77.4006C127.205 76.9552 126.998 76.4501 126.998 75.8499C126.998 75.2517 127.28 74.741 127.829 74.3533C128.185 74.1054 128.955 73.865 130.118 73.6041C131.302 73.3543 132.168 73.1456 132.701 72.9592V73.8035ZM76.5755 76.9522C76.1245 77.3175 75.5598 77.489 74.8944 77.489C73.9308 77.489 73.1238 77.1535 72.4584 76.4564C71.8136 75.7389 71.4613 74.7604 71.4352 73.4911H82.0457C82.1166 70.2351 81.44 67.8141 80.0776 66.2485C78.6928 64.6531 76.8178 63.861 74.4285 63.861C72.3112 63.861 70.5592 64.6251 69.1745 66.1292C67.7729 67.637 67.087 69.7189 67.087 72.3803C67.087 74.6243 67.6145 76.4713 68.6824 77.9288C70.0132 79.7646 72.0652 80.6779 74.8534 80.6779C76.6035 80.676 78.0759 80.2716 79.2333 79.4571C80.4168 78.652 81.2741 77.461 81.8239 75.8991L77.6006 75.1984C77.3695 76.0035 77.0154 76.585 76.5755 76.9522ZM72.3951 68.1272C72.9915 67.4469 73.7556 67.1207 74.6912 67.1207C75.5542 67.1207 76.2829 67.4339 76.8886 68.0787C77.4888 68.7217 77.8056 69.6592 77.8336 70.8986H71.5079C71.493 69.7189 71.7912 68.8056 72.3951 68.1272ZM116.109 80.3089H111.871V64.2319H115.806V66.5076C116.475 65.434 117.09 64.7202 117.614 64.3754C118.158 64.0287 118.78 63.861 119.457 63.861C120.419 63.861 121.36 64.1145 122.247 64.6699L120.927 68.3788C120.217 67.9091 119.559 67.6817 118.937 67.6817C118.348 67.6817 117.847 67.842 117.435 68.1738C117.013 68.5018 116.693 69.0926 116.447 69.9481C116.218 70.8129 116.109 72.5984 116.109 75.34V80.3089ZM109.004 64.2317V67.6126H106.115V74.106C106.115 75.4107 106.135 76.1878 106.191 76.4078C106.245 76.6109 106.365 76.7917 106.555 76.9371C106.751 77.0694 107.004 77.1514 107.284 77.1514C107.673 77.1514 108.24 77.0098 108.985 76.7302L109.35 80.0421C108.361 80.4652 107.243 80.6777 105.996 80.6777C105.241 80.6777 104.551 80.5491 103.94 80.2956C103.325 80.0421 102.874 79.7048 102.572 79.3004C102.305 78.8847 102.1 78.3275 101.989 77.6379C101.892 77.1421 101.856 76.1413 101.856 74.6335V67.6126H99.9123V64.2317H101.856V61.0316L106.115 58.5472V64.2317H109.004ZM98.9526 68.978L94.7796 69.7403C94.6268 68.8923 94.3118 68.2754 93.8123 67.8411C93.3222 67.4217 92.6642 67.2111 91.8871 67.2111C90.8284 67.2111 89.9823 67.5802 89.3449 68.3126C88.7205 69.0339 88.4148 70.2733 88.4148 71.9731C88.4148 73.8853 88.7354 75.2366 89.3654 76.0175C90.0084 76.8189 90.8694 77.2029 91.9411 77.2029C92.7463 77.2029 93.4004 76.9773 93.9223 76.5226C94.4292 76.0641 94.802 75.2701 95.0014 74.1444L99.1577 74.8564C98.729 76.7761 97.9127 78.2205 96.6788 79.1971C95.4431 80.1886 93.8067 80.6732 91.7435 80.6788C89.3989 80.6788 87.5444 79.9277 86.1298 78.4553C84.7339 76.9643 84.0592 74.9141 84.0592 72.2843C84.0592 69.6285 84.7525 67.5615 86.1522 66.091C87.55 64.6056 89.4343 63.8601 91.8199 63.8601C93.7695 63.8601 95.3145 64.285 96.4626 65.1293C97.6275 65.9754 98.4457 67.2521 98.9526 68.978ZM60.252 58.104H64.4921V80.309H60.252V58.104ZM52.1818 64.2302H56.4219V80.3072H52.1818V64.2302ZM52.1818 58.104H56.4219V62.0477H52.1818V58.104Z" fill="white"/>
</g>
</g>
</g>
<defs>
<clipPath id="clip0_105_636">
<rect width="154" height="154" fill="white"/>
</clipPath>
<clipPath id="clip1_105_636">
<rect width="154.006" height="154" fill="white" transform="translate(0 -0.0600586)"/>
</clipPath>
</defs>
</svg>
