<svg width="154" height="154" viewBox="0 0 154 154" fill="none" xmlns="http://www.w3.org/2000/svg">
<rect width="154" height="154" fill="white"/>
<path d="M52.7544 101.18L52.5258 101.402C48.9359 105.059 44.7816 106.992 40.5022 106.992C31.5648 106.992 25.0815 100.287 25.0815 91.039C25.0815 81.8052 31.5648 75.0896 40.5022 75.0896C44.7816 75.0896 48.9359 77.0329 52.5258 80.705L52.7544 80.9229L58.5019 73.9716L58.3483 73.7858C53.5689 68.1384 47.8321 65.3914 40.7808 65.3914C33.7117 65.3914 27.239 67.774 22.581 72.0641C17.5087 76.7149 14.8403 83.2733 14.8403 91.039C14.8403 98.8047 17.5087 105.377 22.581 110.028C27.239 114.343 33.7117 116.708 40.7808 116.708C47.8321 116.708 53.5689 113.958 58.3483 108.306L58.5019 108.135L52.7544 101.18Z" fill="#004685"/>
<path d="M64.3071 115.76H74.4589V66.194H64.3071V115.76Z" fill="#004685"/>
<path d="M114.232 104.985C111.521 106.635 109.003 107.468 106.738 107.468C103.455 107.468 101.969 105.732 101.969 101.874V75.5725H112.317V66.2422H101.969V50.8179L92.0209 56.1475V66.2422H83.4336V75.5725H92.0209V103.549C92.0209 111.168 96.536 116.384 103.28 116.519C107.856 116.609 110.614 115.244 112.285 114.244L112.392 114.176L114.832 104.617L114.232 104.985Z" fill="#004685"/>
<path d="M122.635 115.76H132.801V66.194H122.635V115.76Z" fill="#004685"/>
<path d="M138.723 57.5055C129.446 44.3674 114.043 36.5303 98.3726 36.5303C82.7054 36.5303 67.299 44.3674 58.0402 57.5055L57.5615 58.1807H69.2422L69.3708 58.0414C77.3187 49.8327 87.6992 45.4962 98.3726 45.4962C109.046 45.4962 119.419 49.8327 127.385 58.0414L127.514 58.1807H139.187L138.723 57.5055Z" fill="#EE1C25"/>
</svg>
