<svg width="154" height="154" viewBox="0 0 154 154" fill="none" xmlns="http://www.w3.org/2000/svg">
<rect width="154" height="154" fill="white"/>
<g clip-path="url(#clip0_105_742)">
<mask id="mask0_105_742" style="mask-type:luminance" maskUnits="userSpaceOnUse" x="2" y="1" width="150" height="151">
<path d="M152 1.68994H2V151.693H152V1.68994Z" fill="white"/>
</mask>
<g mask="url(#mask0_105_742)">
<path d="M76.9985 1.68994H2V76.6914V151.69H76.9985H152V76.6914V1.68994H76.9985Z" fill="#002A5F"/>
</g>
<mask id="mask1_105_742" style="mask-type:luminance" maskUnits="userSpaceOnUse" x="2" y="1" width="150" height="151">
<path d="M152 1.68994H2V151.693H152V1.68994Z" fill="white"/>
</mask>
<g mask="url(#mask1_105_742)">
<path d="M109.772 40.4358H112.88C115.82 40.4328 117.185 43.1733 117.185 45.2458V77.5028C117.188 79.8273 115.82 81.9823 113.187 81.9668H109.772V40.4358ZM112.9 39.2398H100.536V40.4358H103.808V112.945H100.536V114.227H114.485V112.945H109.772V83.4408H113.836C119.749 83.4408 123.114 80.3263 123.114 76.1398V47.1638C123.115 42.9878 120.21 39.2333 112.9 39.2398Z" fill="white"/>
</g>
<mask id="mask2_105_742" style="mask-type:luminance" maskUnits="userSpaceOnUse" x="2" y="1" width="150" height="151">
<path d="M152 1.68994H2V151.693H152V1.68994Z" fill="white"/>
</mask>
<g mask="url(#mask2_105_742)">
<path d="M47.4609 40.202C47.4609 41.398 46.7634 41.308 46.2044 40.9155C44.1959 39.505 41.7334 38.4905 39.5339 38.507C35.9484 38.533 30.8104 40.269 30.7939 47.829V103.414C30.8484 113.069 35.4944 114.873 40.0744 114.922C43.6399 114.956 45.3374 113.073 46.7799 112.445C47.5409 112.113 48.3734 112.881 48.3734 114.307H49.8539V78.944H52.8244V77.755H40.2784V78.944H43.9179V109.362C43.9179 111.829 42.2424 113.695 40.1314 113.699C38.0979 113.699 36.5399 111.768 36.5399 109.362V45.619C36.5369 43.886 36.8444 39.857 39.5239 39.876C44.6819 39.9145 47.4199 54.9985 47.4579 62.8015H48.9384V39.198H47.4649L47.4609 40.202Z" fill="white"/>
</g>
<mask id="mask3_105_742" style="mask-type:luminance" maskUnits="userSpaceOnUse" x="2" y="1" width="150" height="151">
<path d="M152 1.68994H2V151.693H152V1.68994Z" fill="white"/>
</mask>
<g mask="url(#mask3_105_742)">
<path d="M70.2364 82.0691L73.8504 49.7126L77.5399 82.0691H70.2364ZM77.6909 83.3926L81.0519 112.929H77.7484V114.211H90.1624V112.929H86.8914L78.6434 39.2231H73.3609L65.6989 108.836C65.2479 111.336 65.0144 112.877 61.4199 112.931V114.211H70.7289V112.929C68.0944 112.931 66.9014 111.247 67.1604 109.456L70.0869 83.3931H77.6909V83.3926Z" fill="white"/>
</g>
</g>
<defs>
<clipPath id="clip0_105_742">
<rect width="150" height="150" fill="white" transform="translate(2 1.68994)"/>
</clipPath>
</defs>
</svg>
