<svg width="154" height="154" viewBox="0 0 154 154" fill="none" xmlns="http://www.w3.org/2000/svg">
<rect width="154" height="154" fill="white"/>
<g clip-path="url(#clip0_105_963)">
<path d="M77.4993 99.6709C115.331 99.6709 146 89.7103 146 77.4233C146 65.1363 115.331 55.1758 77.4993 55.1758C39.6674 55.1758 8.99854 65.1363 8.99854 77.4233C8.99854 89.7103 39.6674 99.6709 77.4993 99.6709Z" fill="white"/>
<path d="M92.5306 79.4551H96.1482L94.3204 72.6564L92.5306 79.4551ZM58.4186 72.5093H57.5V82.3943H58.4075C58.9279 82.4681 59.4586 82.3923 59.9376 82.1759C60.4165 81.9595 60.8241 81.6114 61.1128 81.1721C61.6972 80.0151 62.0017 78.737 62.0017 77.4408C62.0017 76.1445 61.6972 74.8664 61.1128 73.7094C60.8242 73.274 60.4175 72.9298 59.9403 72.7173C59.4631 72.5048 58.9353 72.4326 58.4186 72.5093ZM33.05 72.1963C30.4949 72.1963 30.0459 75.7411 30.0459 77.504C30.0459 79.2669 30.8254 82.5983 33.05 82.5999C35.2746 82.6015 36.062 79.248 36.0635 77.5056C36.0651 75.7632 35.605 72.1995 33.05 72.1963Z" fill="#003874"/>
<path d="M77.4976 55.1777C39.6684 55.1777 9 65.1386 9 77.4221C9 89.7056 39.6732 99.6712 77.4976 99.6712C115.322 99.6712 146 89.7104 146 77.4221C146 65.1339 115.324 55.1777 77.4976 55.1777ZM33.0405 85.7466C28.8079 85.7466 26.1628 82.2492 26.1533 77.5027V77.4664C26.1533 72.4638 28.7842 69.1024 33.0531 69.104C37.3221 69.1056 39.9451 72.4749 39.942 77.4838C39.9309 82.2365 37.2857 85.7466 33.0405 85.7466ZM51.5393 85.5347H41.9895V69.3854H45.6829V82.3931H51.5409L51.5393 85.5347ZM65.9746 77.4474V77.5518C66.0612 79.7983 65.3367 82.001 63.9334 83.7575C62.4219 85.4967 60.8029 85.5363 58.7759 85.5347H53.6105V69.3854H58.787C60.814 69.3854 62.433 69.3933 63.9429 71.1246C65.3494 72.8924 66.0713 75.1081 65.9762 77.3652L65.9746 77.4474ZM85.0837 85.5347H81.3745L76.2391 76.2948V85.5315H72.5204V69.3854H76.2359L81.384 78.7471V69.3854H85.09L85.0837 85.5347ZM97.7783 85.5347L96.934 82.3931H91.7512L90.9243 85.5347H87.1534L91.4935 69.3854H97.1316L101.478 85.5347H97.7783ZM109.676 85.5347H104.757L100.61 69.3854H104.708L107.221 80.646L109.75 69.3854H113.844L109.676 85.5347ZM124.01 80.3851V85.5347H119.888V80.3835L115.064 69.3854H119.133L121.952 76.445L124.782 69.3854H128.848L124.01 80.3851Z" fill="#003764"/>
</g>
<defs>
<clipPath id="clip0_105_963">
<rect width="137" height="44.5278" fill="white" transform="translate(9 55.1602)"/>
</clipPath>
</defs>
</svg>
