<svg width="154" height="154" viewBox="0 0 154 154" fill="none" xmlns="http://www.w3.org/2000/svg">
<g clip-path="url(#clip0_105_874)">
<rect width="154" height="154" fill="white"/>
<path d="M44.9272 115.525H42.8949L41.8023 113.275H37.7815L36.7326 115.525H34.7877L39.7919 105.299L44.9272 115.525ZM41.0156 111.636L39.77 109.057L38.5682 111.636H41.0156ZM72.4828 105.473V115.525H78.7763V113.865H74.2529V105.452H72.4828V105.473ZM85.8346 105.299L90.9698 115.525H88.9376L87.845 113.275H83.8242L82.7752 115.525H80.8304L85.8346 105.299ZM87.0364 111.636L85.7908 109.057L84.589 111.636H87.0364ZM135.832 115.525H133.8L132.708 113.275H128.687L127.638 115.525H125.693L130.719 105.299L135.832 115.525ZM131.899 111.636L130.653 109.057L129.452 111.636H131.899ZM51.2206 64.3476C51.308 63.539 51.1988 62.0968 52.2695 60.9605C52.7284 60.4797 53.6899 59.9553 54.2362 59.4964C54.7825 59.0375 55.5692 59.0156 56.3122 58.9282C57.0552 58.8189 58.8033 58.7097 59.0874 58.6878C59.8522 58.6441 60.5297 58.7752 60.8793 58.9938C61.2071 59.2123 64.5505 62.0094 65.0094 62.3372C65.2279 62.4901 65.359 62.4464 65.4464 62.3372C65.5557 62.2279 65.5775 61.922 65.6212 61.7471C65.7523 60.8949 65.9927 60.0208 66.4953 59.0593C68.1124 56.0219 71.281 53.6618 71.1936 49.8595C72.6139 49.3132 73.5973 47.9147 72.6795 46.1665C72.7451 47.1717 72.308 48.1113 71.5432 48.6576C71.0843 49.0073 70.4506 49.2477 69.7076 49.3788C68.7461 49.5536 67.6316 49.7503 66.7794 49.9032C67.7409 51.5858 67.3694 52.7222 66.5827 53.2685C65.7961 53.8366 64.7471 53.6181 64.179 52.9625C64.332 53.0062 64.4849 53.0062 64.616 52.9844C65.1405 52.9188 65.5338 52.5255 65.6212 52.001C65.6868 51.5421 65.5557 50.9958 65.0749 50.4714C64.9657 50.3621 64.6816 50.1217 64.4412 50.2966C63.5016 50.974 63.3049 50.6681 62.7149 50.6243C62.5182 50.6025 62.5838 50.2966 62.7804 50.1655C63.3267 49.7721 63.7201 49.7721 64.3757 49.3788C64.7908 49.1165 64.6597 48.6576 64.3101 48.2643C64.2664 48.7451 63.1082 49.0947 62.2123 49.9469C61.8845 50.2529 61.7315 50.0999 61.666 49.9251C61.6441 49.8377 61.6004 49.5099 61.7315 49.3351C61.9282 49.0728 62.256 49.1384 62.6493 48.7451C62.8679 48.5265 62.9771 47.9802 62.693 47.7836C62.6275 48.0239 62.256 48.308 62.0156 48.3736C61.7315 48.461 61.5567 48.6576 61.4475 48.9854C61.4038 48.9854 61.3382 48.9636 61.3382 48.8106C61.3163 48.4173 61.8408 47.6524 62.5401 46.7784C63.8512 45.1831 65.7523 44.3091 65.7305 43.0635C65.0749 43.0416 64.7471 42.5609 64.8127 42.102C66.2331 42.2768 66.4079 40.1353 68.9646 40.0042C68.9865 40.0042 69.0302 40.0042 69.0739 40.0042C71.3465 35.2841 76.8751 37.6441 78.7981 35C78.7107 38.0156 72.1769 37.5349 72.1332 40.8345C72.461 41.0094 72.7669 41.206 73.0947 41.4246C73.2258 41.4027 73.3569 41.3809 73.5317 41.2934C74.6462 40.8564 76.2414 40.922 77.3559 41.796C76.4599 41.8397 74.4714 43.0198 72.6139 43.1727C72.5921 43.1727 72.5702 43.1946 72.5265 43.1946C73.7284 43.5661 74.6681 43.3694 75.1925 43.1946C78.0333 46.0135 80.3496 50.1655 80.8304 53.5744C80.896 53.9896 80.743 54.4922 80.2404 54.7544C80.5682 54.2737 80.2622 53.7274 79.8252 53.64C79.6285 53.5963 79.3881 53.6181 79.2133 53.7711C78.9948 53.9459 78.8637 54.2518 78.9948 54.6233C79.3881 55.8033 81.3767 57.7482 81.3985 59.2997C81.3985 59.7149 81.1582 60.1082 80.8304 60.2612C81.0926 59.846 80.8741 59.2997 80.4808 59.1686C79.9782 59.0156 79.4756 59.2997 79.4756 60.1082C79.4318 65.3091 81.3111 70.6628 82.5567 76.0385C82.9938 75.9948 83.409 75.9511 83.6712 75.9292C83.693 74.5963 84.2175 73.2633 84.7856 71.9958C85.8783 69.6358 87.3861 68.1717 87.3205 66.4017C87.2768 65.2435 86.5994 63.9324 86.0094 62.9927C85.2227 61.7034 85.2445 60.4797 86.1842 59.4745C87.0583 58.5349 88.6316 58.3819 89.6805 59.2997C88.6753 59.2778 87.9105 59.846 87.5609 60.6108C87.3642 61.0479 87.2987 61.5286 87.3861 62.0094C86.9272 61.8345 86.359 61.2664 86.1186 60.5453C85.616 62.8616 90.2706 64.3257 91.3413 69.2425C92.0843 72.6295 90.2706 75.3174 89.2435 76.6504C89.1124 76.8252 89.0687 77.0219 89.1124 77.1748C89.1342 77.3278 89.1998 77.437 89.2872 77.5245C95.974 83.6431 93.614 89.281 92.5213 90.5484C91.4943 91.7503 90.0739 92.3621 88.872 91.7284C88.1727 91.3569 87.8668 90.7451 87.8231 90.1769C87.8013 89.718 87.9324 89.281 88.129 88.9969C88.7191 90.308 89.8991 90.5921 90.6202 90.5702C91.5161 90.5265 92.5213 89.9584 92.9147 88.9095C92.3028 89.565 91.5817 89.8273 91.1228 89.8928C91.8221 86.1124 85.8127 83.5557 84.3705 79.7752C84.0208 79.7971 83.693 79.7971 83.2997 79.8189C83.6712 82.4412 83.8679 85.6535 83.1467 88.8221C82.1852 93.0177 78.667 95.3996 75.0177 95.3559C70.7565 95.3122 66.9542 91.9469 66.8887 87.3361C66.8013 82.8345 69.8606 80.2123 73.0291 78.6171C71.718 76.8689 68.6587 72.8262 67.1072 69.5702C68.1998 69.6139 68.9209 69.8106 69.8387 69.5047C70.7565 69.1987 71.3902 67.6472 72.5921 66.1613C71.1936 66.8169 70.1665 68.2154 69.1831 68.4776C68.1998 68.7617 65.4901 68.3684 64.2882 68.2591C63.3267 68.1717 62.2341 68.1061 61.666 68.3028C61.0323 68.5213 60.7263 69.0676 60.7919 69.4828C60.8137 69.7232 61.0541 70.0728 61.3382 70.5754C61.4475 70.7503 61.5567 70.8595 61.666 70.9469C62.0156 71.1873 62.4308 71.0999 62.6712 70.8814C62.9116 70.6628 62.9553 70.3569 62.9334 70.1602C63.6764 70.3132 63.8293 70.7066 63.6982 71.1873C63.589 71.6899 63.2175 72.0832 63.0864 72.4329C62.9771 72.717 63.0864 73.001 63.3486 73.154C63.7419 73.3944 64.1353 73.2851 64.5505 73.1322C64.769 73.0447 65.0312 73.001 65.2497 73.0447C65.9053 73.2196 66.7575 73.7877 67.3257 74.3996C66.7357 74.6181 65.7523 75.2081 64.5505 75.1207C63.8075 75.077 63.1301 74.7055 62.4745 74.3122C61.9282 73.9844 61.513 73.8533 61.3163 73.7003C60.9667 73.4381 60.77 73.1322 60.5952 72.9136C59.9615 71.9958 59.4152 71.0343 59.0437 70.4662C58.3007 69.3517 58.3663 69.155 58.4755 68.4558C58.5848 67.7784 58.7815 66.8824 59.5026 66.642C61.1634 66.0957 62.999 65.3528 62.999 65.3528C62.3871 64.6098 60.5734 62.0749 59.743 61.0479C59.5682 60.8293 59.2404 60.5453 58.7596 60.5453C58.3007 60.5453 57.82 60.589 57.3829 60.6108C56.6181 60.6545 56.3996 61.1353 56.3996 61.4631C56.3996 61.922 56.7274 62.1623 56.9459 62.2279C56.7492 62.4901 56.3122 62.8835 55.8314 62.5557C55.154 62.0968 55.0885 61.3756 54.6296 61.2008C54.2581 61.0479 53.6681 61.3101 53.5806 62.1405C53.5588 62.3371 53.5151 62.7305 53.3403 62.949C52.9032 63.7138 51.5484 64.282 51.2206 64.3476ZM71.8491 87.6639C72.2643 88.9532 73.3788 89.871 74.821 89.871C75.5422 89.871 76.1322 89.6306 76.6566 89.2372C76.3507 91.1821 73.794 94.154 69.9917 92.8429C71.871 93.8262 73.9032 93.564 75.3018 92.7336C76.8314 91.8377 78.0552 90.2425 78.1426 87.9917C78.2081 86.0468 77.1592 84.0801 75.3892 81.8293C71.718 83.8179 71.3902 86.1998 71.8491 87.6639ZM69.8824 44.1998C69.358 44.1561 69.1394 43.8065 68.5276 43.6316C67.7846 43.4131 67.4568 44.6587 67.3257 45.358C67.7409 45.0302 67.9813 44.5494 68.3528 44.6805C69.0739 44.9209 69.6857 44.7024 69.8824 44.1998ZM23.7523 108.664C23.7523 110.368 22.4631 111.92 20.0812 111.92C19.7752 111.92 19.2071 111.92 18.77 111.876V115.504H17V105.452C17.5682 105.452 19.1634 105.43 19.8626 105.43C22.8345 105.43 23.7523 107.025 23.7523 108.664ZM21.8949 108.664C21.8949 107.615 21.2393 107.091 20.0375 107.091C19.6878 107.091 19.2508 107.112 18.77 107.112V110.194C19.1852 110.237 19.6223 110.259 20.0156 110.259C21.0645 110.281 21.8949 109.778 21.8949 108.664ZM54.3236 105.473H52.3788L49.3413 112.073L46.2164 105.473H44.1842L49.3195 115.7L54.3236 105.473ZM122.197 111.701L115.248 105.299V115.525H116.908V109.341L123.857 115.7V105.473H122.197V111.701ZM28.2102 105.473H26.4402V115.525H32.7336V113.865H28.2102V105.473ZM101.131 110.106H97.0448V111.767H99.4704V113.34C99.0989 113.712 98.1592 114.04 97.3944 114.04C95.3621 114.04 93.9854 112.641 93.9854 110.499C93.9854 108.249 95.4058 106.959 97.3507 106.959C98.2248 106.959 99.1207 107.265 99.6233 107.724L100.366 106.304C99.5359 105.648 98.5744 105.277 97.1322 105.277C94.051 105.277 92.1061 107.571 92.1061 110.456C92.1061 113.581 94.051 115.657 97.3507 115.657C97.9625 115.657 98.6618 115.525 99.3392 115.285V116.028C99.3392 116.924 98.8148 117.339 98.1374 117.339C97.4162 117.339 96.9573 116.858 96.7825 116.421L95.4277 117.361C95.7336 118.082 96.7388 119 98.2248 119C100.148 119 101.131 117.82 101.131 116.181V110.106ZM112.232 111.352V105.452H110.484V110.98C110.484 112.925 109.763 114.018 108.233 114.018C106.485 114.018 105.72 112.75 105.72 110.871V105.452H103.95V111.242C103.95 114.193 105.742 115.678 108.233 115.678C110.353 115.678 112.232 114.433 112.232 111.352ZM61.7534 115.525L60.6608 113.275H56.64L55.5911 115.525H53.6462L58.6722 105.299L63.8075 115.525H61.7534ZM59.8741 111.636L58.6285 109.057L57.4266 111.636H59.8741Z" fill="#FF0A54"/>
</g>
<defs>
<clipPath id="clip0_105_874">
<rect width="154" height="154" fill="white"/>
</clipPath>
</defs>
</svg>
