<svg width="154" height="154" viewBox="0 0 154 154" fill="none" xmlns="http://www.w3.org/2000/svg">
<rect width="154" height="154" fill="white"/>
<g clip-path="url(#clip0_105_625)">
<path d="M78.3392 58.358C78.1557 58.5263 78.2321 59.0923 78.4769 59.4441C78.8134 59.9183 78.691 60.1171 77.7427 60.7442C77.2991 61.0502 76.7943 61.4173 76.6107 61.5702C76.4425 61.7232 76.1978 61.9068 76.0601 61.9985C74.7293 62.8092 71.7619 64.9201 71.5783 65.1801C71.2877 65.5931 71.2877 65.7461 71.5783 65.7461C71.8231 65.7461 73.3833 64.8436 73.4597 64.6448C73.4903 64.5836 73.5821 64.5224 73.6586 64.5224C73.8269 64.5224 74.7599 63.88 74.8364 63.7117C74.867 63.6505 74.9588 63.6046 75.0352 63.6046C75.1729 63.6046 76.0601 62.9622 77.6815 61.7232C77.9415 61.5396 78.3086 61.2337 78.5228 61.0349C78.9664 60.6219 79.1805 60.6678 79.3029 61.1725C79.4252 61.6773 80.2206 61.7997 80.2206 61.3255C80.2206 61.1419 80.1594 60.8819 80.0677 60.7289C79.8229 60.2854 79.3029 59.0464 79.3029 58.8934C79.3029 58.7099 78.7828 58.251 78.5839 58.251C78.5075 58.251 78.3851 58.2969 78.3392 58.358Z" fill="black"/>
<path d="M69.2993 65.6695C69.0393 65.899 68.9016 66.1896 68.9016 66.4955C68.9016 66.8167 68.7792 67.0462 68.4886 67.2603C67.7085 67.8416 67.4026 68.224 67.3261 68.7593C67.219 69.3406 67.4179 69.8759 67.7238 69.8759C67.8309 69.8759 68.0144 69.9371 68.1368 70.0289C68.3203 70.136 68.3203 70.2125 68.0756 70.4725C67.9073 70.656 67.7238 70.7937 67.6473 70.7937C67.372 70.7937 66.9284 71.482 67.0049 71.7574C67.0661 71.9409 66.8978 72.1857 66.5154 72.5222C65.5364 73.3635 65.3835 73.5317 65.3835 73.8223C65.3835 74.1283 66.1789 74.9237 66.4848 74.9237C66.8519 74.9237 67.372 75.5967 67.372 76.0862C67.372 76.3309 67.4791 76.6674 67.6014 76.8204C67.7238 76.9886 67.8309 77.371 67.8309 77.6617C67.8309 78.4724 68.3815 79.5125 68.8251 79.5125C69.0087 79.5125 69.2228 79.4054 69.2687 79.2678C69.4217 78.8548 70.0488 79.0689 70.0947 79.5431C70.1559 80.002 69.9111 80.1244 69.7582 79.742C69.7123 79.6196 69.5899 79.5125 69.4828 79.5125C69.1922 79.5278 68.5651 80.5832 68.6416 80.9045C68.6875 81.0574 68.6263 81.2563 68.5039 81.3633C68.0603 81.7304 68.3662 83.1989 69.0699 84.0402C69.2075 84.2084 69.2075 84.3155 69.024 84.5296C68.9016 84.6673 68.6722 85.2027 68.5192 85.7074C68.3662 86.2122 68.045 87.0688 67.8003 87.6042C67.3873 88.4913 67.3567 88.6902 67.4179 89.8221C67.4638 90.4951 67.5861 91.5353 67.6779 92.1165C67.8462 93.019 67.9532 93.2637 68.4121 93.692C68.7027 93.9674 68.9934 94.1968 69.0699 94.1968C69.1463 94.1968 69.3299 94.3345 69.4981 94.518C69.9111 94.9616 70.4924 94.8545 70.5536 94.3192C70.6148 93.845 70.1406 93.279 69.697 93.279C69.131 93.279 68.5345 92.2542 68.3815 91.0458C68.305 90.4339 68.3356 90.2198 68.5192 90.0668C68.6722 89.9445 68.7486 89.608 68.7486 89.042C68.7486 88.2925 68.7945 88.1548 69.2228 87.803C69.4981 87.5736 70.0335 87.0994 70.4159 86.7323L71.1195 86.0898L70.6148 85.631C70.3394 85.3709 70.1559 85.0956 70.2018 85.0191C70.3088 84.8509 69.5746 83.1836 69.3911 83.1836C69.2534 83.1836 68.9016 82.4341 68.9016 82.1587C68.9016 82.0364 69.0087 81.914 69.131 81.8681C69.284 81.8069 69.3605 81.5622 69.3605 81.0727C69.3605 80.262 69.6205 80.3538 69.697 81.1798C69.7582 81.8987 70.0335 81.9293 70.3394 81.2716C70.4771 80.9809 70.6607 80.7362 70.7371 80.7362C70.8289 80.7362 70.8901 80.5985 70.8901 80.4303C70.8901 80.2467 71.1348 79.9714 71.5478 79.7114C71.8996 79.4819 72.2209 79.2678 72.2667 79.2372C72.3126 79.2066 72.2209 79.1148 72.0679 79.023C71.8385 78.9007 71.7926 78.7171 71.8232 78.1664C71.8538 77.7687 71.7926 77.2793 71.6702 77.0957C71.5631 76.8969 71.4408 76.0709 71.4102 75.2602C71.3337 74.0059 71.2572 73.6235 70.8595 72.8281C70.5689 72.2163 70.4312 71.7727 70.5077 71.5738C70.6301 71.1914 70.8136 71.1608 70.9513 71.4973C71.0125 71.6503 71.1807 71.7115 71.4561 71.6809C71.8232 71.635 71.8843 71.5585 71.8843 71.1302C71.8996 70.5643 72.1444 70.3348 72.7409 70.3348C73.3375 70.3348 73.3681 70.4878 72.8786 70.9467C72.6186 71.1914 72.4197 71.5126 72.4197 71.6656C72.4197 71.8491 72.2514 72.048 72.0067 72.1551L71.5784 72.3539L72.0067 72.6904C72.4809 73.0728 72.5421 73.4705 72.1597 73.6082C71.9608 73.6847 71.9455 73.7459 72.0985 73.8988C72.2514 74.0365 72.3279 74.0212 72.4809 73.8071C72.588 73.6694 72.8021 73.547 72.9398 73.547C73.0774 73.547 73.2304 73.4399 73.2916 73.3023C73.3528 73.1187 73.5669 73.0728 74.2399 73.1187L75.0965 73.1646L75.1424 72.4151C75.173 72.0021 75.1577 71.5738 75.0965 71.4362C75.0201 71.2373 74.9742 71.2373 74.7294 71.4667C74.5765 71.6044 74.347 71.6809 74.1941 71.6197C73.9493 71.5279 73.9493 71.4973 74.1788 71.2526C74.3164 71.0996 74.6682 70.9314 74.9589 70.8855C75.5707 70.7631 75.846 70.3348 75.7084 69.7077C75.6166 69.3253 75.5401 69.2641 75.1271 69.2641C74.7141 69.2488 74.6835 69.2335 74.913 69.0958C75.3107 68.8664 75.2495 68.744 74.3776 68.1781C73.6893 67.7498 73.414 67.658 72.5727 67.6427C71.762 67.6121 71.5325 67.5509 71.3184 67.2603C71.0583 66.9544 71.0584 66.9085 71.2725 66.6638C71.4866 66.419 71.4866 66.3425 71.2572 65.8378C71.0125 65.333 70.936 65.2871 70.3547 65.2871C69.8806 65.2871 69.6052 65.3942 69.2993 65.6695ZM69.5593 67.9027C69.7429 68.0098 69.957 68.1781 70.0182 68.3004C70.11 68.4534 70.2935 68.484 70.6148 68.4075C71.0737 68.3157 71.0889 68.3157 70.9972 68.7899C70.9054 69.2335 70.9207 69.2641 71.3337 69.2641C71.6396 69.2641 71.9455 69.0958 72.2514 68.7899C72.6339 68.4228 72.7409 68.3769 72.8174 68.5605C72.9704 68.9735 72.8174 69.3253 72.4197 69.4171C72.2056 69.463 72.022 69.6312 71.9914 69.7995C71.8996 70.2736 71.7161 70.3807 71.3796 70.1666C71.1042 69.9983 70.9666 70.0136 70.5077 70.2278C69.6511 70.6408 69.4676 70.5796 69.5746 69.9524C69.6817 69.3712 69.4829 69.2335 69.2228 69.6771C69.0852 69.9218 69.024 69.9065 68.6875 69.4935C68.2439 68.9582 68.1827 68.4075 68.5498 68.0098C68.8404 67.6886 69.1004 67.658 69.5593 67.9027ZM74.0717 69.3559C74.4541 69.463 74.5153 69.8912 74.1941 70.1666C73.7964 70.5031 73.1386 69.8759 73.414 69.4171C73.521 69.2335 73.5975 69.2335 74.0717 69.3559ZM73.5363 71.482C73.4904 71.788 73.0316 71.9562 72.8786 71.7115C72.8021 71.5891 72.7868 71.4362 72.8327 71.3597C72.9398 71.1914 73.5669 71.2985 73.5363 71.482ZM69.3299 71.9103C69.3758 72.2621 69.3299 72.3233 68.9934 72.3233C68.7945 72.3233 68.5804 72.4151 68.5345 72.5069C68.458 72.7057 68.5804 71.9409 68.6875 71.5891C68.7945 71.222 69.284 71.4667 69.3299 71.9103ZM70.3241 72.6598C70.5383 72.7975 70.1406 74.0059 69.8806 74.0059C69.544 74.0059 69.4981 73.7306 69.7429 73.2411C69.9417 72.8434 69.957 72.7822 69.7582 72.7822C69.3911 72.7822 69.2993 72.4457 69.6052 72.2163C69.85 72.048 69.8958 72.048 70.0335 72.2774C70.11 72.4304 70.2477 72.5987 70.3241 72.6598ZM74.5612 72.4151C74.5612 72.5987 74.4235 72.6293 73.9187 72.5987C73.0163 72.5375 72.9551 72.1704 73.8575 72.1704C74.3929 72.1704 74.5612 72.2316 74.5612 72.4151ZM68.045 73.1187C68.1827 73.3788 68.2898 73.6847 68.2898 73.8071C68.2898 73.9141 68.3968 74.0059 68.5192 74.0059C68.6722 74.0059 68.7486 73.8529 68.7486 73.5317C68.7486 73.1646 68.8098 73.0728 69.024 73.1187C69.3452 73.1799 69.2993 74.0059 68.9628 74.2048C68.6416 74.3883 68.7027 75.4896 69.1463 77.4475C69.2075 77.6923 69.3452 78.0135 69.4676 78.1664C69.6052 78.3194 69.6358 78.4418 69.5287 78.503C69.4523 78.5641 69.3299 78.5183 69.284 78.4418C69.2228 78.3347 68.9934 78.3194 68.7333 78.3653C68.2898 78.4571 68.2898 78.4571 68.2898 77.7993C68.2898 77.4322 68.1827 76.9428 68.0603 76.698C67.9379 76.4686 67.8309 76.0097 67.8309 75.6885C67.8309 75.352 67.7544 74.9084 67.6626 74.6636C67.4944 74.2353 67.372 72.8128 67.4944 72.5834C67.5861 72.3998 67.8003 72.5987 68.045 73.1187ZM12.153 71.5279C12.0612 71.5585 12 71.7421 12 71.9409C12 72.3233 12.3977 72.5528 12.7954 72.3998C13.3614 72.1857 13.3767 72.5528 13.3461 79.9867L13.3002 87.2371L12.6577 87.2829C12.0459 87.3288 12 87.3594 12 87.7877V88.2313H14.6615C17.2466 88.2313 17.3383 88.216 17.4301 87.9101C17.5678 87.4665 17.2925 87.2371 16.6806 87.2829C16.39 87.3135 16.13 87.2829 16.0841 87.2065C16.0382 87.13 15.977 85.5698 15.9617 83.7189C15.9311 80.828 15.9617 80.3538 16.1453 80.3079C16.3594 80.2773 16.7724 80.828 19.1892 84.4838C19.3115 84.6826 19.9234 85.5851 20.5352 86.4875L21.6672 88.1548L24.3593 88.2313C25.8583 88.2772 27.1585 88.2772 27.2655 88.2466C27.3573 88.216 27.4491 88.0325 27.4491 87.8336C27.4491 87.543 27.3726 87.4665 27.0667 87.4665C26.5619 87.4665 26.4395 87.13 26.7455 86.5946C26.8678 86.3652 27.1279 85.631 27.3114 84.9732L27.6632 83.7954L28.8563 83.7648C31.2119 83.7036 31.0131 83.6731 31.1355 84.1778C31.2578 84.6979 31.5179 85.478 31.8238 86.2122C31.9462 86.4875 32.0379 86.8852 32.0379 87.0841C32.0379 87.4053 31.9614 87.4665 31.5943 87.4665C31.1202 87.4665 30.8448 87.956 31.1813 88.1854C31.2731 88.2619 32.1297 88.2772 33.0934 88.2313C35.036 88.1395 35.3113 87.9866 34.4394 87.4665C34.1029 87.2676 33.8735 87.0076 33.8276 86.7323C33.797 86.5028 33.6746 86.0745 33.5675 85.7839C33.4605 85.4933 33.2922 85.0038 33.1851 84.7132C33.0781 84.4226 32.9098 83.9331 32.8027 83.6425C32.711 83.3518 32.558 82.8624 32.4968 82.5717C32.4356 82.2811 32.2827 81.7916 32.1909 81.501C32.0838 81.2104 31.9156 80.7209 31.8085 80.4303C31.7014 80.1397 31.5332 79.6502 31.4261 79.3595C31.3343 79.0689 31.1813 78.5794 31.1202 78.2888C31.059 77.9982 30.906 77.4781 30.7836 77.1416C30.5695 76.5757 30.5083 76.5298 29.9424 76.4839C29.3764 76.438 29.3305 76.4686 29.1011 77.0192C28.8104 77.7535 28.5351 78.5183 28.3363 79.2066C28.2598 79.4972 28.1221 79.8031 28.0609 79.8949C27.9998 79.9714 27.8927 80.2926 27.8315 80.5832C27.7703 80.8739 27.6632 81.2104 27.5868 81.348C27.5256 81.4704 27.3573 81.9905 27.2196 82.4953C27.082 83 26.8678 83.6578 26.7608 83.9484C26.6384 84.239 26.3937 84.9579 26.2254 85.5545C25.6747 87.3441 25.69 87.3135 25.017 87.3135C24.5581 87.3135 24.344 87.2218 24.1604 86.9617C23.7015 86.3193 22.4778 84.5755 21.9425 83.7954C21.6519 83.3671 21.3306 82.9235 21.2542 82.8318C21.1624 82.7247 20.9329 82.4035 20.7494 82.0976C20.5658 81.8069 20.2446 81.3633 20.0305 81.1339C19.8163 80.9045 19.6175 80.5679 19.6022 80.3844C19.5716 80.0938 19.6634 80.0326 20.2599 79.9561C21.2542 79.8184 21.9425 79.4666 22.6308 78.7171C23.6098 77.6617 23.778 77.264 23.778 75.8414C23.778 74.6636 23.7474 74.5413 23.2274 73.7612C22.432 72.5681 21.2542 71.788 19.9693 71.6197C19.2045 71.5279 12.3977 71.4514 12.153 71.5279ZM18.5926 72.5681C19.9081 72.7057 20.4282 73.2105 20.7953 74.6636C21.04 75.6426 21.0553 75.9332 20.9023 76.6827C20.4894 78.7477 19.6787 79.3748 17.3231 79.4819L15.977 79.5431V76.1168C15.977 73.5776 16.0229 72.6445 16.1758 72.4916C16.2982 72.3692 16.6041 72.3386 17.0477 72.3845C17.4301 72.4304 18.1185 72.5069 18.5926 72.5681ZM29.7129 79.5125C29.7588 79.9561 30.1412 81.1645 30.4624 81.9752C30.8754 83 30.7531 83.1224 29.3611 83.0459C28.6881 83.0153 28.0915 82.9694 28.0303 82.9388C27.9845 82.9082 28.1374 82.3117 28.3822 81.6081C28.6269 80.9198 28.8257 80.2314 28.8257 80.0938C28.8257 79.9561 28.9022 79.6502 28.9787 79.436C29.1776 78.9313 29.6517 78.9771 29.7129 79.5125ZM86.691 71.6656C86.5074 72.1398 86.7216 72.3998 87.3334 72.3998H87.9453L87.9912 79.849L88.0218 87.3135H87.3334C86.6757 87.3135 86.6451 87.3288 86.6451 87.7724V88.2313H93.3754C97.0771 88.216 100.167 88.2619 100.259 88.3078C100.519 88.476 101.023 88.2313 101.023 87.9407C101.023 87.6042 100.641 87.2523 100.427 87.3747C100.182 87.5277 100.06 87.1606 100.228 86.8088C100.473 86.3193 101.023 84.5908 101.023 84.3461C101.023 83.9178 101.482 83.7801 102.981 83.7342L104.511 83.6884L104.756 84.3155C104.893 84.6673 105 85.0956 105 85.2639C105 85.4321 105.092 85.6921 105.215 85.8604C105.322 86.0287 105.459 86.4264 105.521 86.7476C105.612 87.2218 105.582 87.3288 105.352 87.4053C104.847 87.5583 104.618 87.7265 104.572 87.9866C104.526 88.2007 104.74 88.2313 106.362 88.2313C107.371 88.2313 108.228 88.1701 108.289 88.0783C108.335 88.0019 108.167 87.7571 107.922 87.543C107.616 87.2676 107.371 86.7935 107.142 86.044C106.958 85.4321 106.714 84.7132 106.591 84.4379C106.469 84.1625 106.377 83.7801 106.377 83.5966C106.362 83.413 106.27 83.0918 106.148 82.8777C106.025 82.6635 105.934 82.3576 105.918 82.1893C105.918 82.0211 105.811 81.6846 105.689 81.4398C105.566 81.2104 105.459 80.8739 105.459 80.7209C105.459 80.5679 105.368 80.2161 105.245 79.9408C104.924 79.1454 104.679 78.4112 104.542 77.8299C104.48 77.5393 104.343 77.0957 104.236 76.8663C104.052 76.4839 103.96 76.438 103.425 76.4839C102.828 76.5298 102.813 76.5451 102.507 77.4475C102.354 77.9523 102.125 78.5641 102.002 78.8242C101.895 79.0689 101.758 79.4819 101.697 79.742C101.635 79.9867 101.544 80.262 101.482 80.3538C101.421 80.4303 101.314 80.7515 101.253 81.0421C101.192 81.3327 101.085 81.6693 101.023 81.8069C100.962 81.9293 100.656 82.8624 100.335 83.8719C100.029 84.8815 99.708 85.8451 99.6468 86.0134C99.5703 86.1816 99.4633 86.5181 99.4174 86.7782C99.3256 87.2371 98.3466 88.0477 98.1325 87.8336C98.0866 87.7877 98.056 86.304 98.0866 84.5449L98.1325 81.348H96.7406V82.4647C96.7406 83.8413 96.2817 85.5086 95.7004 86.2122C94.9662 87.13 94.4461 87.3135 92.5035 87.3135H90.7751L90.8057 79.849L90.8515 72.3998H91.4634C92.0446 72.3998 92.0752 72.3692 92.0752 71.9562V71.4973H89.4137C87.5017 71.482 86.7369 71.5279 86.691 71.6656ZM103.165 79.1148C103.165 79.3748 103.578 80.7668 103.869 81.501C103.991 81.7916 104.098 82.2811 104.113 82.5717L104.159 83.1071L102.859 83.0459C102.14 83.0306 101.544 82.9847 101.528 82.9694C101.513 82.9541 101.635 82.5411 101.804 82.0364C101.972 81.5316 102.217 80.7515 102.339 80.3079C102.461 79.849 102.63 79.3595 102.706 79.1913C102.89 78.8548 103.165 78.8089 103.165 79.1148Z" fill="black"/>
<path d="M73.7503 73.7461C72.7867 74.052 72.6643 74.1438 72.2972 74.8015L71.8842 75.5204L72.236 75.8416C72.4348 76.0252 72.5725 76.3464 72.5725 76.6064C72.5725 77.1265 72.8019 77.2183 72.9549 76.7594C73.0773 76.3923 73.3373 76.4994 73.3373 76.9124C73.3373 77.0653 73.4597 77.3101 73.5974 77.463C74.0256 77.876 74.2398 78.4114 74.3469 79.2527C74.5304 80.6599 75.5706 82.2048 76.1059 81.8683C76.3354 81.7306 76.2589 81.3788 75.9683 81.2871C75.8153 81.2412 75.5858 80.9658 75.4635 80.6752C75.2646 80.2469 75.2646 80.1093 75.4329 79.8798C75.54 79.7269 75.6317 79.4209 75.6317 79.1915C75.6317 78.9467 75.7388 78.702 75.8918 78.6102C76.2742 78.4114 76.5801 76.9735 76.3048 76.7441C76.1824 76.6523 76.0906 76.4076 76.0906 76.224C76.0906 75.7193 75.9377 75.3828 75.7082 75.3828C75.5247 75.3828 75.4329 75.138 75.2034 74.0214C75.1423 73.7308 75.0199 73.4707 74.9434 73.4554C74.8516 73.4248 74.3163 73.5625 73.7503 73.7461ZM74.714 75.1533C74.714 75.2757 74.6222 75.3828 74.4998 75.3828C74.2398 75.3828 74.0715 75.1686 74.2092 75.0156C74.3927 74.8321 74.714 74.9239 74.714 75.1533ZM35.0664 76.5606C34.8217 76.8665 35.0205 77.1724 35.5406 77.2642L36.0148 77.356V87.1455L35.5559 87.4667C35.3111 87.6502 35.097 87.895 35.097 88.0174C35.097 88.2009 35.9077 88.2315 40.6036 88.2162C43.6322 88.2162 46.1714 88.2468 46.2479 88.2927C46.4926 88.4456 46.875 88.2009 46.875 87.895C46.875 87.6961 46.7068 87.5279 46.4161 87.4208L45.9572 87.2525L45.9267 85.2946C45.9114 84.2239 45.8961 83.2144 45.8961 83.0614C45.8808 82.832 46.0796 82.7861 47.4104 82.7249C49.0012 82.6331 49.5365 82.4649 50.286 81.8224C50.9132 81.2565 51.1579 80.6446 51.1579 79.5892C51.1579 78.4573 50.8826 77.8454 50.1178 77.2489C49.2918 76.6064 48.5117 76.4535 46.2326 76.4382C45.116 76.4382 43.9535 76.4229 43.6628 76.4076C43.1886 76.377 43.1275 76.4229 43.0816 76.79C43.0357 77.1418 43.0969 77.203 43.464 77.2489L43.8923 77.2948L44.0146 82.0366C44.0758 84.6369 44.0911 86.9313 44.0452 87.1302C43.9993 87.3137 43.7852 87.5585 43.571 87.6502C42.9592 87.9256 42.8674 87.6197 42.9439 85.5241C43.0204 83.6274 42.9439 83.3367 42.4238 83.3367C42.1179 83.3367 41.9803 83.6427 41.9803 84.3769C41.965 85.1264 41.659 86.2277 41.3072 86.7325C40.9707 87.2373 40.2518 87.4667 38.9669 87.4667C38.3092 87.4667 38.0033 87.4055 37.988 87.2678C37.9421 86.4113 38.0186 77.463 38.095 77.356C38.1409 77.2795 38.3092 77.2183 38.4774 77.2183C38.8292 77.2183 39.0281 76.8053 38.7987 76.5759C38.5539 76.3311 35.2653 76.3158 35.0664 76.5606ZM48.5882 77.5854C49.5212 78.1972 49.5671 80.7823 48.6494 81.5165C48.4811 81.6542 48.0222 81.8071 47.6398 81.8683C47.2574 81.9142 46.8138 81.9907 46.6456 82.0366C45.9725 82.2201 45.8961 81.9754 45.9419 79.6351C45.9572 78.442 46.0184 77.3865 46.0643 77.3254C46.202 77.0959 48.1599 77.2948 48.5882 77.5854Z" fill="black"/>
<path d="M50.9134 76.5145C50.7604 76.9122 50.9746 77.2181 51.3723 77.2181C51.6629 77.2181 51.7852 77.3252 51.8617 77.5852C51.9076 77.7841 51.8923 80.0632 51.8158 82.6635C51.6935 87.2371 51.6782 87.39 51.3875 87.39C51.2193 87.4053 50.9899 87.4512 50.8828 87.5124C50.6686 87.6654 50.638 88.2313 50.8522 88.2466H54.5386C54.8598 88.216 54.615 87.543 54.2632 87.4971C53.6514 87.4053 53.5902 87.1606 53.6361 84.6979L53.682 82.3576H57.9649L58.0108 84.7438L58.0414 87.13L57.506 87.4512C56.9859 87.7571 56.7718 88.2313 57.1695 88.2313C59.9228 88.2772 60.7641 88.2619 60.9017 88.1854C61.1924 88.0019 60.9476 87.4665 60.5499 87.4665C60.3664 87.4665 60.1522 87.39 60.1063 87.3135C60.0299 87.1912 59.9687 78.916 60.0299 77.3711C60.0299 77.2793 60.244 77.2181 60.504 77.2181C60.917 77.2181 60.9629 77.1722 60.917 76.8051L60.8711 76.3921L59.0662 76.3768C57.4754 76.3768 57.2307 76.4074 57.1083 76.6521C56.9094 77.004 57.0318 77.1569 57.5825 77.264L58.0414 77.3558V81.654H53.5902L53.6361 79.4666L53.682 77.2946L54.0644 77.2487C54.5844 77.1722 54.7221 77.004 54.5997 76.6063C54.508 76.3156 54.4315 76.285 53.8655 76.3921C53.0854 76.5145 52.1065 76.5145 51.4793 76.3768C51.1275 76.3003 50.9746 76.3309 50.9134 76.5145ZM107.142 76.4227C107.065 76.4533 106.989 76.6369 106.989 76.8357C106.989 77.111 107.081 77.2028 107.417 77.2487L107.83 77.2946L107.922 81.4245C107.968 83.6884 108.075 85.7992 108.167 86.1052C108.503 87.3135 109.436 88.1548 110.721 88.4149C112.618 88.8126 114.27 87.8642 114.851 86.0287C115.096 85.2333 115.127 84.6826 115.081 81.2257L115.019 77.3252L115.371 77.2028C115.738 77.0651 115.769 76.9581 115.555 76.6063C115.387 76.3462 113.75 76.2392 113.459 76.4839C113.107 76.7745 113.23 77.2181 113.643 77.2181C113.857 77.2181 114.025 77.3099 114.025 77.4017C114.04 77.5087 114.04 79.4513 114.025 81.6999C114.01 85.2945 113.979 85.8604 113.75 86.2734C113.291 87.0841 112.74 87.39 111.715 87.39C110.935 87.39 110.767 87.3288 110.4 86.9617L109.972 86.5487V77.2946L110.476 77.2487C110.92 77.2028 110.981 77.1569 110.935 76.7898L110.889 76.3768H109.1C108.106 76.3768 107.234 76.3921 107.142 76.4227ZM116.014 76.6063C115.815 76.9734 115.922 77.2181 116.304 77.2181C116.457 77.2181 116.641 77.3099 116.717 77.4017C116.794 77.5087 116.84 79.7726 116.809 82.4494L116.763 87.283L116.32 87.4512C115.876 87.6042 115.662 88.1395 116.014 88.2619C116.09 88.2772 116.962 88.2925 117.926 88.2619C119.639 88.216 119.7 88.2007 119.654 87.8795C119.624 87.6807 119.471 87.5277 119.226 87.4665C118.859 87.3747 118.843 87.3288 118.721 85.7075C118.583 83.719 118.629 82.8471 118.859 82.7706C118.951 82.74 119.333 83.2142 119.7 83.8107C120.495 85.1109 120.557 85.218 121.734 86.9158L122.622 88.2313H132.518L132.564 86.2275C132.61 83.9637 132.549 83.5966 132.044 83.6731C131.738 83.719 131.677 83.826 131.6 84.7132C131.493 85.8298 131.187 86.6405 130.713 87.0688C130.469 87.283 130.101 87.3594 129.031 87.4053C128.281 87.4359 127.608 87.4665 127.532 87.4818C127.057 87.5736 127.027 87.4512 127.027 85.0038V82.5259L127.838 82.6329C128.847 82.7706 129.199 83.1071 129.321 84.0555C129.382 84.7132 129.444 84.7897 129.78 84.7897H130.163L130.208 82.2199C130.239 80.0326 130.208 79.6502 130.01 79.5737C129.627 79.4207 129.321 79.8032 129.321 80.4456C129.321 81.3022 128.832 81.7764 127.868 81.8375L127.103 81.8834L127.057 79.5431L127.012 77.2181H128.48C130.3 77.2181 130.744 77.417 131.172 78.3959C131.34 78.7936 131.524 79.4054 131.57 79.7726C131.662 80.5221 131.784 80.6444 132.228 80.5068C132.518 80.415 132.534 80.3079 132.457 78.5489C132.411 77.5087 132.304 76.6521 132.212 76.591C131.937 76.4227 128.235 76.3003 127.119 76.438C126.537 76.4992 125.681 76.4992 125.222 76.4227C124.58 76.3156 124.35 76.3309 124.243 76.4839C124.029 76.8357 124.197 77.1416 124.656 77.2181L125.115 77.2946L125.161 82.2811C125.191 87.6654 125.176 87.8795 124.457 87.3747C124.151 87.1606 123.906 86.8241 122.438 84.6367C122.163 84.2084 121.719 83.6425 121.459 83.3671C121 82.8777 121 82.8471 121.276 82.6329C121.444 82.5259 121.796 82.3729 122.086 82.327C122.377 82.2658 122.836 81.9905 123.172 81.654C124.625 80.1856 124.212 77.8758 122.331 76.8969C121.658 76.5604 121.413 76.5298 119.226 76.5145C117.91 76.4992 116.687 76.4533 116.518 76.3921C116.274 76.3156 116.136 76.3615 116.014 76.6063ZM120.832 77.3711C121.046 77.4475 121.398 77.7076 121.597 77.9217C121.933 78.2888 121.979 78.4724 121.979 79.6043C121.979 80.7821 121.949 80.9198 121.566 81.3481C121.23 81.7152 120.908 81.8681 120.067 82.0364C119.073 82.2352 118.981 82.2352 118.798 81.9905C118.675 81.8375 118.629 81.5469 118.675 81.2869C118.721 81.0421 118.767 80.0326 118.767 79.0383V77.2181H119.593C120.052 77.2181 120.603 77.2793 120.832 77.3711ZM139.554 76.6216C139.356 77.0193 139.463 77.1569 140.044 77.2793C140.518 77.3711 140.533 77.3711 140.442 78.1818C140.411 78.6101 140.426 80.1091 140.503 81.4857C140.579 82.8777 140.61 84.0249 140.579 84.0555C140.411 84.2237 139.998 83.826 139.707 83.2142C139.509 82.8165 139.08 82.0058 138.728 81.4245C138.392 80.828 138.055 80.2467 137.994 80.1244C137.933 80.002 137.749 79.6808 137.581 79.436C137.413 79.176 137.214 78.8395 137.122 78.6712C137.031 78.503 136.832 78.1512 136.663 77.9064C136.495 77.6464 136.296 77.2946 136.22 77.111C135.99 76.591 135.562 76.4533 134.231 76.4533C133.115 76.4533 132.992 76.4839 132.992 76.7439C132.992 76.8969 133.145 77.1263 133.344 77.2487C133.681 77.4781 133.681 77.524 133.574 79.2984C133.512 80.2926 133.497 82.5106 133.543 84.1931C133.635 87.2371 133.635 87.283 133.314 87.4512C133.145 87.5583 132.992 87.7571 132.992 87.9101C132.992 88.1548 133.145 88.2007 134.033 88.2619C135.226 88.3537 135.577 88.1701 135.287 87.6195C135.195 87.4359 135.011 87.3288 134.904 87.3747C134.782 87.4206 134.644 87.39 134.598 87.3135C134.461 87.0994 134.446 78.1359 134.583 78.1053C134.69 78.0594 135.256 79.023 136.205 80.8127C136.296 80.981 136.495 81.3175 136.663 81.5775C136.832 81.8222 137.031 82.174 137.122 82.3423C137.214 82.5106 137.367 82.7859 137.474 82.9542C138.881 85.2945 139.677 86.6864 140.059 87.5124C140.365 88.1548 140.457 88.2313 140.839 88.2007L141.283 88.1548L141.344 82.8012C141.39 79.8643 141.466 77.4017 141.497 77.3405C141.543 77.2793 141.711 77.2181 141.879 77.2181C142.124 77.2181 142.185 77.1263 142.139 76.7898C142.094 76.3768 142.078 76.3768 140.9 76.3462C139.876 76.3309 139.707 76.3615 139.554 76.6216ZM72.4809 77.8758C72.435 78.0135 72.435 78.3194 72.4962 78.5489L72.588 78.9466L72.9245 78.6253L73.2457 78.2888L72.9245 77.9523C72.6186 77.6617 72.5727 77.6464 72.4809 77.8758ZM77.3757 77.9523C77.2839 78.0135 77.1615 78.2124 77.1003 78.3959C77.0392 78.5795 76.8403 78.7477 76.6568 78.7783C76.4426 78.8089 76.3049 78.9466 76.2743 79.1913C76.2285 79.4819 76.2743 79.5278 76.4732 79.4513C76.6415 79.3902 76.8556 79.4819 77.085 79.6961C77.498 80.1244 77.5898 81.5163 77.2227 81.8069C76.9474 82.0517 76.9474 82.5106 77.238 82.6329C77.3604 82.6788 77.4674 82.8777 77.4674 83.0918C77.4674 83.306 77.5286 83.5048 77.6051 83.566C77.8804 83.719 78.0028 83.2601 78.0028 82.1282C78.0028 80.7668 78.2323 80.568 78.7064 81.5469C79.1041 82.3576 79.0124 83.4742 78.5229 83.9331C78.3546 84.0861 78.1558 84.4073 78.0946 84.652C77.9875 85.0497 77.911 85.0956 77.3451 85.065C76.5956 85.0344 76.5038 85.218 76.5803 86.564C76.6262 87.2677 76.672 87.39 76.9474 87.4359C77.391 87.4971 77.9263 86.6252 77.9263 85.8757C77.9263 85.0191 78.3087 85.1721 78.6147 86.1663C78.8747 86.977 78.8747 87.0229 78.6147 87.3135C78.4005 87.543 78.3393 87.9101 78.3087 88.7973C78.2934 89.455 78.2017 90.1433 78.1099 90.3269C78.0028 90.5104 77.9263 90.8928 77.9263 91.1835C77.9263 91.4741 77.8193 91.7953 77.6969 91.9024C77.5439 92.0401 77.4674 92.3919 77.4674 93.0649C77.4674 93.585 77.4063 94.0744 77.3145 94.1203C77.1156 94.2427 77.1156 94.7628 77.3298 94.8851C77.5745 95.0534 78.3546 94.6557 78.4311 94.3345C78.477 94.1815 78.477 93.7838 78.4311 93.4626C78.3852 93.1108 78.4464 92.6519 78.5994 92.3001C78.737 91.9789 78.8441 91.5812 78.8441 91.4282C78.8441 91.2599 78.9818 90.7399 79.15 90.2657C79.5171 89.2256 79.5324 88.7514 79.2265 88.629C78.9053 88.5066 78.9359 88.3231 79.3336 88.1548C79.5324 88.0631 79.7007 87.8642 79.7313 87.696C79.8536 86.6711 80.2972 84.9121 80.4808 84.6979C80.5879 84.5755 80.6796 84.3614 80.6796 84.239C80.6796 84.1014 80.7867 83.8719 80.9091 83.7037C81.0467 83.5201 81.1232 83.0459 81.1385 82.3423C81.1385 81.3634 81.0926 81.1951 80.6032 80.4456C80.2972 79.9867 80.0831 79.5278 80.129 79.4055C80.2207 79.176 81.1385 79.1301 81.1385 79.3596C81.1385 79.436 81.2456 79.5125 81.368 79.5125C81.5056 79.5125 81.6433 79.6196 81.6892 79.742C81.7504 79.8643 81.9645 79.9714 82.2092 79.9714C82.5152 79.9714 82.6528 79.8796 82.7293 79.6196C82.7905 79.3596 82.6834 79.1607 82.1786 78.7018C81.4291 78.0288 81.1844 78.0135 80.3737 78.5183C79.6395 78.9772 79.563 78.9925 79.0735 78.5642C78.8135 78.3347 77.5439 77.7382 77.5439 77.8299C77.5439 77.8299 77.4674 77.8911 77.3757 77.9523ZM77.8498 79.329C77.8498 80.0326 77.5592 80.002 77.498 79.2984C77.4522 78.8701 77.498 78.7324 77.651 78.7783C77.7581 78.8242 77.8498 79.0689 77.8498 79.329ZM77.4369 85.6616C77.4063 85.8604 77.3298 86.0134 77.238 86.0134C77.1615 86.0134 77.0697 85.8604 77.0392 85.6616C77.0086 85.4321 77.0697 85.3251 77.238 85.3251C77.4063 85.3251 77.4674 85.4321 77.4369 85.6616ZM72.7256 79.5737C72.5421 79.8796 72.3127 80.1244 72.2209 80.1244C72.1138 80.1397 71.7926 80.4456 71.502 80.8127C71.2113 81.1951 70.8901 81.501 70.783 81.501C70.6913 81.501 70.5536 81.6387 70.5077 81.8069C70.4618 81.9752 70.3394 82.1129 70.263 82.1129C70.1865 82.1129 70.1253 82.2505 70.1253 82.4188C70.1253 82.587 70.2018 82.7247 70.2936 82.7247C70.4006 82.7247 70.4312 82.8777 70.37 83.0918C70.3242 83.306 70.3395 83.5201 70.4312 83.566C70.5077 83.6119 70.5842 83.826 70.5842 84.0402C70.5842 84.2543 70.6913 84.4532 70.8136 84.4991C70.936 84.5602 71.0431 84.7438 71.0431 84.9274C71.0431 85.2945 71.6549 85.9369 72.0067 85.9369C72.1291 85.9369 72.2668 86.044 72.3279 86.1663C72.3738 86.304 72.6033 86.3958 72.8786 86.3958H73.3375V87.4665C73.3375 88.2466 73.2457 88.6902 73.0163 89.1491C72.8327 89.4856 72.7256 89.8833 72.7715 90.0363C73.0316 90.8622 73.3069 91.4282 73.6128 91.8106C74.0411 92.3613 74.0411 92.453 73.5669 93.2026C73.3681 93.5391 73.1845 93.9521 73.1845 94.1356C73.1845 94.4874 72.7868 95.3593 72.5574 95.497C72.4809 95.5582 72.4197 95.7876 72.4197 96.0476C72.4197 96.5677 72.6798 96.6289 73.3069 96.2312C73.8881 95.8641 73.9646 95.7111 73.8729 95.2216C73.827 94.931 73.8729 94.7628 74.0258 94.7169C74.1482 94.6557 74.2553 94.4721 74.2553 94.2886C74.2553 93.6461 74.4388 93.3096 74.9436 93.0343C75.6472 92.6519 76.0296 91.7494 75.6472 91.3517C75.5554 91.2752 75.5554 90.9234 75.6472 90.4798C75.7237 90.0363 75.7237 89.3479 75.6472 88.7973C75.5095 87.8336 75.0507 86.5487 74.8365 86.5487C74.76 86.5487 74.7141 86.2887 74.7141 85.9675C74.7141 85.2333 74.5612 84.6979 74.3929 84.805C74.3164 84.8509 74.0105 84.805 73.7352 84.6979C73.2457 84.5144 73.1998 84.4532 73.2151 83.8872C73.2304 83.2448 73.5363 82.7247 73.8882 82.7247C74.2094 82.7247 74.2706 82.9694 74.0258 83.4283C73.7811 83.9025 73.8423 84.1167 74.1329 83.826C74.3776 83.5813 74.7141 83.5966 74.7141 83.8566C74.7141 83.979 74.8212 84.1014 74.9436 84.1625C75.1118 84.2237 75.173 84.4991 75.173 85.2639C75.173 85.9981 75.2189 86.2581 75.3719 86.2122C75.4636 86.1663 75.5707 85.891 75.6013 85.5851C75.6319 85.2792 75.7084 85.0191 75.8002 85.0191C76.0143 85.0191 75.9531 84.5297 75.7084 84.1931C75.586 84.0249 75.4789 83.7648 75.4789 83.6119C75.4789 83.4436 75.2801 83.0612 75.0354 82.7553C74.7906 82.4494 74.5459 82.0364 74.5 81.8528C74.4388 81.6693 74.2706 81.4704 74.1023 81.4245C73.8882 81.3634 73.7964 81.1186 73.7199 80.4303C73.6587 79.8643 73.521 79.436 73.3375 79.2831C73.0775 79.0536 73.0469 79.0689 72.7256 79.5737ZM73.3375 80.7209C73.414 80.8892 73.4905 81.1798 73.4905 81.3634C73.4905 81.7458 72.9398 82.4188 72.6186 82.4188C72.5115 82.4188 72.4197 82.587 72.4197 82.8012C72.4197 83.0153 72.3585 83.1836 72.2668 83.1836C72.1903 83.1836 72.1138 83.2754 72.1138 83.3977C72.1138 83.5201 71.9761 83.6731 71.8079 83.719C71.502 83.8107 71.3643 84.4073 71.6549 84.4073C71.7467 84.4073 71.8844 84.5908 71.9761 84.8203L72.1444 85.2486L72.3738 84.8968C72.6645 84.4685 72.7715 84.4685 73.2457 84.9426C73.5516 85.2486 73.5822 85.3403 73.3987 85.478C72.9551 85.8451 71.502 85.2639 71.502 84.7132C71.502 84.5449 71.4408 84.4073 71.3643 84.4073C71.1501 84.4073 71.0278 83.9331 71.1654 83.7343C71.2419 83.6425 71.349 83.3824 71.4102 83.1683C71.4561 82.9389 71.6702 82.6482 71.8844 82.5106C72.0985 82.3729 72.2668 82.1588 72.2668 82.0211C72.2668 81.8987 72.3738 81.7611 72.4962 81.7152C72.6186 81.654 72.7256 81.4551 72.7256 81.2716C72.7256 80.4762 73.0469 80.1856 73.3375 80.7209ZM74.9436 88.0784C75.0965 88.2466 75.173 88.4761 75.1118 88.6137C75.0048 88.9043 74.7141 88.782 74.7141 88.4455C74.7141 88.3231 74.653 88.2313 74.5612 88.2313C74.4847 88.2313 74.4082 88.1242 74.4082 88.0019C74.4082 87.6807 74.6071 87.7112 74.9436 88.0784ZM74.4235 89.3326C74.6224 89.5927 74.6988 89.9292 74.7141 90.541C74.7141 91.2141 74.7753 91.4282 74.9742 91.5047C75.1577 91.5812 75.173 91.6577 75.0507 91.78C74.7906 92.0401 73.9187 91.0152 74.0258 90.5563C74.0717 90.3728 74.0105 90.021 73.9035 89.7915C73.521 89.042 73.8882 88.7208 74.4235 89.3326Z" fill="black"/>
<path d="M76.244 80.6139C76.244 80.828 76.3511 81.0422 76.4735 81.1034C76.7641 81.2105 76.7641 80.9045 76.4735 80.5221C76.2593 80.2315 76.244 80.2315 76.244 80.6139ZM75.8922 82.22C75.831 82.2659 75.7852 82.4953 75.7852 82.7095V83.0919L76.1064 82.7707C76.2899 82.6024 76.3817 82.373 76.3358 82.2812C76.2134 82.0976 76.0452 82.067 75.8922 82.22ZM76.5194 83.5202C76.4735 84.1167 76.5041 84.3768 76.6876 84.5144C77.2536 84.9886 77.6207 84.4991 77.1465 83.9026C76.9935 83.6884 76.8559 83.3366 76.8559 83.1225C76.8559 82.3883 76.5806 82.7095 76.5194 83.5202Z" fill="black"/>
</g>
<defs>
<clipPath id="clip0_105_625">
<rect width="130.185" height="59" fill="white" transform="translate(12 47.9399)"/>
</clipPath>
</defs>
</svg>
