<svg width="154" height="154" viewBox="0 0 154 154" fill="none" xmlns="http://www.w3.org/2000/svg">
<rect width="154" height="154" fill="#042A45"/>
<g clip-path="url(#clip0_110_116)">
<path d="M93.5769 61.9443C93.8297 61.8978 93.5991 61.463 93.8782 61.4427C93.8964 61.4569 93.8459 61.6066 93.9268 61.6248C94.3859 61.7218 95.2212 61.6227 95.7511 61.6672C98.8718 61.9302 102.35 62.3266 105.578 62.727C108.197 63.0526 110.754 63.3601 113.363 63.9344C114.767 64.2439 116.257 64.525 117.719 64.8142C119.182 65.1034 122.08 65.4028 123.568 66.052C123.7 66.1086 123.682 66.2886 123.748 66.2866C125.209 66.2826 128.629 67.3949 130.158 67.9511C130.305 68.0057 130.661 68.1675 130.764 68.301L129.318 68.0988C127.656 67.7125 125.552 67.2979 123.738 66.9985C123.366 66.9378 122.555 67.1381 122.476 66.6891H122.377L122.335 66.8812C121.54 66.6952 120.733 66.6628 119.932 66.5576C115.302 65.9509 110.505 65.3421 105.781 65.2491C105.639 65.247 105.463 65.1419 105.297 65.1742L105.4 64.974C104.557 65.0367 103.661 65.0731 102.81 65.0428C102.623 65.0367 102.445 64.9356 102.282 64.9295C101.448 64.8931 100.324 64.9861 99.4805 64.883C98.083 64.7131 96.6794 64.7131 95.1483 64.6666C94.2686 64.6403 93.2917 64.4198 92.4099 64.4603C92.0357 64.4785 92.2016 64.6322 92.1591 64.6666C91.9649 64.8264 91.9548 64.5068 91.9387 64.4967C91.8072 64.4138 89.3175 64.4461 88.8321 64.4239C80.2345 64.0457 71.5357 64.2722 62.9037 64.4178C62.2889 64.4279 61.9653 64.6545 61.2898 64.3673C61.2615 64.3551 61.2514 64.5877 60.768 64.6302C58.8669 64.794 56.7796 64.7374 54.8198 64.8688C54.0857 64.9174 52.8095 65.1823 52.1117 65.15C51.9418 65.1419 51.78 64.9882 51.685 64.976C51.6466 64.972 51.6506 65.1358 51.5636 65.1661C51.0439 65.3461 49.1002 65.3057 48.356 65.3785C44.6224 65.7385 40.9496 66.4969 37.2343 66.8934C36.1138 67.0127 34.8376 67.2857 33.6383 67.5304C31.0657 68.0543 28.5315 68.574 26.0742 69.5125C26.0196 69.2233 26.151 69.3487 26.2946 69.2839C29.4275 67.85 32.6837 66.8489 35.8934 65.9509C38.2091 65.3037 40.4399 64.6949 42.8285 64.1974C50.6495 62.5592 58.8325 61.5722 66.9831 61.283C67.6222 61.2607 67.7941 61.2809 68.3685 61.3376C68.413 61.3416 68.4029 61.1596 68.4777 61.1394C68.8115 61.0463 68.9449 61.5863 69.1654 61.0746C74.9275 61.2142 80.7543 60.8421 86.4981 61.0827C87.8451 61.1394 89.2589 61.3355 90.5977 61.4164C91.524 61.4711 92.4847 61.4872 93.4151 61.463C93.6092 61.5236 93.5162 61.7704 93.5789 61.9443H93.5769Z" fill="white"/>
<path d="M130.359 83.8341C129.948 84.0161 129.423 84.1091 129.022 84.2669C119.44 88.0772 109.238 89.855 98.8749 91.2C98.7718 90.7712 98.6221 91.1555 98.3713 91.198C96.7392 91.469 94.6944 91.564 93.0178 91.7036C91.1186 91.8634 89.2337 91.8998 87.3609 91.9503C87.2334 91.9544 86.9139 92.1505 86.7501 92.0879C86.657 92.0535 86.7925 91.8634 86.5519 91.9038C86.4608 91.92 86.5397 92.0555 86.4265 92.102C85.9229 92.3022 83.6476 92.1445 82.9134 92.1647C82.2257 92.1829 81.6311 92.282 81.0001 92.3164C80.628 92.3366 79.2567 92.3811 78.9877 92.3103C78.8846 92.284 78.9655 92.1263 78.8704 92.1061C78.6419 92.0575 78.7531 92.2436 78.6985 92.282C78.6014 92.3488 76.6073 92.3488 76.3362 92.3184C76.1138 92.2941 76.2412 92.1323 76.1421 92.1061C75.8508 92.0332 76.1118 92.2921 76.0936 92.3083C75.8205 92.2173 75.6061 92.4317 75.5374 92.1061C75.4848 92.375 74.7526 92.4256 74.7284 92.1061C74.7789 92.3447 74.16 92.3386 74.0326 92.3063C73.9173 92.2759 74.0185 92.1061 73.9194 92.1061C73.8203 92.1061 73.9234 92.2739 73.8061 92.3043C73.44 92.3993 73.4845 92.1202 73.4643 92.1081C73.3996 92.0656 72.2124 92.5935 72 92.1081C71.9474 92.3973 71.6319 92.2314 71.3872 92.2213C67.1258 92.0616 62.1768 91.8896 57.8547 91.4993C56.9871 91.4204 55.5329 91.3699 54.738 91.198C54.647 91.1777 54.7077 90.9148 54.4165 90.9957C54.3801 91.0058 54.3619 91.204 54.3153 91.206C54.1758 91.206 54.0362 91.0483 53.8947 91.0301C53.6156 90.9937 53.0938 91.0908 52.8167 91.0645C51.3544 90.9168 49.8477 90.6559 48.3874 90.4699C47.9566 90.4152 47.8879 90.2029 47.8555 90.2049C45.9989 90.3242 43.5031 89.6366 41.6788 89.2887C38.6936 88.7184 36.1068 88.1925 33.1722 87.3896C31.3257 86.886 29.2809 86.3157 27.3393 85.5471C26.9793 85.4035 26.3402 85.3651 26.1724 84.997C27.582 85.3085 29.0039 85.5329 30.4236 85.7959C33.5626 86.3784 36.7621 86.9426 39.9678 87.3653C42.8094 87.7395 45.8532 87.9761 48.7596 88.233C49.4351 88.2937 50.2603 88.3826 50.7942 88.4777C51.3281 88.5728 52.2221 88.3968 52.7054 88.5667C52.8814 88.6294 52.8612 88.7871 52.8996 88.7791C52.9724 88.7608 53.0756 88.6112 53.2212 88.597C53.3263 88.5869 53.6034 88.7993 53.7106 88.7629C54.3194 88.5505 54.1758 88.7224 54.8493 88.7528C56.1356 88.8094 57.5695 88.8074 58.8478 88.9166C59.3979 88.9631 59.3109 89.0116 59.8792 88.9894C60.7974 88.953 61.8795 89.1512 62.8098 89.1856C63.0829 89.1957 63.5642 89.0844 63.8231 89.0925C63.8959 89.0946 63.8494 89.2685 63.8676 89.2827C63.9222 89.3271 64.0233 89.1209 64.1184 89.1128C64.2033 89.1067 64.3692 89.2665 64.5289 89.2786C67.3544 89.491 70.6733 89.4262 73.523 89.4606C79.7037 89.5334 85.7509 89.2543 91.9742 89.1229C92.2775 89.1168 92.8135 88.9611 93.0198 88.9813C93.1796 88.9975 93.3292 89.2139 93.3717 89.1815C93.4283 89.1431 93.2362 89.0177 93.7681 88.9449C94.6722 88.8215 95.7319 88.8883 96.6562 88.8235C99.4594 88.6233 102.354 88.2269 105.124 88.1521C105.266 88.148 105.434 87.9963 105.555 88.0085C105.652 88.0186 105.745 88.2107 105.802 88.1723C105.81 88.1662 105.778 87.9842 105.869 87.966C105.986 87.9417 106.136 88.0388 106.261 88.0226C114.236 87.0923 122.251 85.8909 130.066 83.6905C130.246 83.6399 130.29 83.6359 130.359 83.8341Z" fill="white"/>
<path d="M13.6412 71.529L13.8617 71.1973C14.5817 71.0476 15.3785 70.8959 16.143 70.9101C16.3008 71.2883 17.0167 71.2034 17.397 71.1427C17.7691 71.1083 18.024 71.2944 18.1493 71.6422C18.5033 71.3368 18.9017 71.349 19.3224 71.4885C19.7876 71.1488 20.0828 71.1568 20.2103 71.5148C20.2649 71.3146 20.3943 71.2357 20.5885 71.1872C20.9667 71.0921 22.6089 71.1306 23.1186 71.1427C23.7456 71.1568 24.2148 71.2034 24.8236 71.3166C25.1654 71.529 25.3595 71.4703 25.404 71.1386C25.4485 71.0739 25.5092 71.0355 25.58 71.0031C25.7337 70.9344 28.3468 70.9789 28.4357 71.3915C28.9272 71.2843 29.4025 71.4198 29.8656 71.796C30.8223 71.804 31.6798 72.0184 32.4362 72.4391C32.5252 72.5099 32.6628 72.52 32.7801 72.6474C33.4131 73.329 33.5992 74.2492 33.2473 75.1169C32.5738 76.7774 29.9587 77.5257 28.3427 77.6875C28.2375 77.6976 28.0009 77.6228 28.0899 77.8351C28.2416 78.1971 29.9162 79.2792 30.3349 79.6068C31.2632 80.3309 34.6043 83.2149 35.4599 83.3909C35.6924 83.4394 36.3437 83.401 36.376 83.4354C36.4125 83.4758 36.4974 84.4021 36.376 84.5012L29.0688 84.4224L21.5148 78.3448C21.2195 78.1446 20.4772 78.0252 20.4064 78.4419L20.3498 82.6345C20.4752 83.0471 21.1244 83.3201 21.5128 83.3909C22.4896 83.5669 23.8912 82.95 23.6404 84.4466C19.4963 84.4143 15.3401 84.5296 11.2102 84.3455C11.0079 83.2109 12.9475 83.6478 13.6109 83.3626C14.3895 83.0289 14.1408 81.8194 14.248 81.1722C13.9891 78.6421 14.5796 75.4567 14.2338 73.0054C14.1671 72.5321 13.5866 71.8101 13.1235 71.6948C12.7513 71.6018 11.2385 71.6564 11.109 71.533C11.0362 71.3813 11.0241 71.1791 11.2102 71.2297C11.4326 71.1366 11.9524 71.0638 12.2457 71.0679C12.6724 71.0739 13.5037 71.1043 13.6351 71.533L13.6412 71.529Z" fill="white"/>
<path d="M77.7099 72.2352L77.3782 72.0511C76.7088 72.0026 76.5389 71.7457 77.3014 71.6345C77.72 71.2866 78.0497 71.2583 78.5695 71.4201C78.6989 71.139 79.5848 71.1289 79.6535 71.3918C80.0115 71.2765 80.2421 71.3432 80.3432 71.59C80.7072 71.1572 81.3342 71.2724 81.7994 71.4909C81.9106 71.2826 82.1028 71.2644 82.3212 71.2482C82.5659 71.23 83.0048 71.2178 83.2495 71.2259C83.5468 71.234 84.1576 71.3129 84.4064 71.4322C84.8372 71.3412 85.4763 71.2462 85.6179 71.7963C85.7453 71.3857 86.0426 71.3695 86.3985 71.5071C86.8516 71.1976 87.5979 71.2987 87.9013 71.768L88.0388 71.7255C87.7354 71.319 87.9498 71.1713 88.6799 71.2805C88.5788 71.7558 88.5646 71.8367 89.0217 71.6062C89.9561 71.3918 91.0523 71.5576 91.7743 72.2129C91.9746 72.1745 92.1728 72.1826 92.3649 72.2352C92.642 72.4374 92.7694 72.4637 92.9676 72.7913C94.3631 75.095 91.1979 76.4723 89.3858 76.6745L89.3372 76.8748L94.8546 81.0006C95.0184 81.1968 95.7586 81.0694 95.8031 81.1139C95.8375 81.1483 95.7768 81.7732 95.8031 81.9209H89.7903L84.1718 77.3399C83.836 77.0568 83.1201 76.7939 83.1079 77.4451C83.0958 78.1489 83.0149 79.5222 83.0796 80.1451C83.1201 80.5334 83.472 80.9925 83.8522 81.0896C84.5318 81.2636 85.9293 80.7478 85.6967 81.9209H75.5903V81.215C76.2052 81.215 77.3681 81.215 77.811 80.7579C78.0113 80.5516 78.0355 80.0359 78.0558 79.7487C78.2074 77.5685 77.8596 75.1091 78.0193 72.8904C78.0113 72.6599 77.8656 72.399 77.7139 72.2372L77.7099 72.2352Z" fill="white"/>
<path d="M57.4991 71.9318C57.0926 71.9217 56.6881 71.8873 56.2856 71.8307C55.9762 70.7365 57.3313 71.2907 57.8551 71.5758C58.5387 71.1592 59.287 71.0176 59.9059 71.4909L60.1385 71.4747C60.1142 71.1612 60.6239 71.141 60.7897 71.3594C62.0376 71.1916 63.5282 71.0742 64.6648 71.5091C64.774 71.2037 65.3666 71.141 65.5223 71.3877C66.1635 71.3331 66.8006 71.2927 67.4376 71.2644L67.646 71.3554C68.2406 71.1491 68.9121 71.2927 69.4905 71.4949C69.6604 71.2846 69.897 71.3271 70.1984 71.6183L70.9406 71.6264C71.5372 71.8165 72.1379 71.948 72.597 72.4435C72.7042 72.5588 72.9065 72.8621 72.9388 73.0098C73.2564 74.4073 71.8952 75.0687 70.8051 75.4772C70.4431 75.6127 69.9455 75.5783 69.7271 75.8615C71.4179 76.0132 74.4031 76.9071 73.9481 79.1177C73.8206 79.7325 72.9591 80.4242 72.4231 80.7236C71.3532 81.3202 69.1143 81.8986 67.9069 81.8137C67.019 81.9755 66.4648 81.0431 67.648 81.0674C67.6824 80.8004 67.8361 80.5779 68.1091 80.402L67.9777 80.2119C68.1132 79.8236 68.2972 79.4858 68.5298 79.1986C68.5379 78.1388 67.9271 77.2246 66.8956 76.9071L66.8471 76.6705C66.837 76.7494 66.8127 76.8646 66.7561 76.8727C66.1695 76.9455 64.3958 76.9476 63.8133 76.8727L63.6657 76.6705C63.8902 77.7869 63.9549 78.9458 63.8639 80.1451C63.9832 80.4647 63.9509 80.6851 63.7668 80.8065C64.05 81.2231 62.8709 82.2101 62.4825 81.6478L62.4542 81.8157C61.4814 81.8541 60.4823 81.8824 59.5236 81.8157L59.3881 81.5851C58.8259 81.6418 58.2171 81.6923 58.3203 80.94C58.5832 80.5314 58.7146 80.0501 58.7146 79.4959C58.7733 77.2368 58.6762 74.9574 58.7086 72.6922C58.6904 72.4495 58.4861 72.2149 58.2677 72.1219C58.0755 72.039 57.7216 71.9702 57.5011 71.9277L57.4991 71.9318Z" fill="white"/>
<path d="M123.234 82.0198C123.016 81.9531 123.048 81.3099 123.129 81.1077C123.218 80.9641 123.59 81.1158 123.811 81.0915C124.749 80.9884 125.993 79.1843 126.616 78.4117C128.473 76.104 130.149 73.6386 132.069 71.3694C132.742 71.0802 133.329 71.0963 133.846 71.6283C136.288 74.1382 138.371 77.4429 140.804 79.967C141.37 80.5555 142.112 81.2917 142.992 81.1117C142.992 81.2796 143.051 82.0198 142.84 82.0198H133.391V81.0106H135.26C135.305 81.0106 135.63 80.778 135.667 80.7092C135.934 80.1773 134.878 79.2065 134.534 78.8101L128.185 78.7899C127.989 78.8283 127.148 80.0236 127.041 80.2683C126.919 80.5414 126.768 80.9337 127.176 81.0086C127.449 81.0591 129.033 80.9661 129.134 81.1239C129.223 81.2654 129.225 82.0178 128.895 82.0178H123.236L123.234 82.0198Z" fill="white"/>
<path d="M98.8309 72.3361C98.4062 72.0732 97.8601 71.9821 97.1907 72.061C97.0228 71.6343 97.3646 71.5069 98.2161 71.6808C98.6186 71.341 99.0251 71.4644 99.4397 72.055L99.6096 71.9437C99.7734 71.4947 99.9817 71.246 100.451 71.5615C101.163 71.4098 101.907 71.3774 102.684 71.4624C103.301 71.3511 103.92 71.2884 104.54 71.2783C104.532 71.5291 104.64 71.6343 104.862 71.5959C105.459 71.3633 106.205 71.883 105.349 71.9983L104.995 72.1359C104.526 72.4048 104.344 72.6354 104.288 73.1956C104.122 74.8359 104.146 78.1973 104.286 79.8577C104.304 80.0843 104.352 80.4928 104.486 80.6667C104.553 80.7537 105.076 81.0146 105.149 81.0146H107.119C107.085 81.2553 107.24 81.9308 106.953 82.0137L96.6082 81.9227C96.6264 81.7204 96.5354 81.2775 96.7033 81.1602C97.0754 80.9013 98.5114 81.4191 99.0352 80.8649C99.4417 80.4341 99.2213 80.2501 99.2476 79.8658C99.377 77.993 99.4761 75.1473 99.3305 73.2927C99.2819 72.6637 99.2476 72.7507 98.8309 72.3381V72.3361Z" fill="white"/>
<path d="M53.5573 72.7387C53.4265 72.5297 53.4265 72.5297 53.5573 72.7387C53.5472 73.0441 53.5815 73.216 53.5573 73.5457L53.442 73.6164C53.4986 74.2556 52.7382 74.2535 52.6148 73.6731L52.3458 73.4445C52.1597 73.3353 52.1537 73.2504 52.0424 73.1412L52.1173 72.9025C53.3793 73.1533 53.0051 72.0976 51.9676 72.4009L51.648 72.2533C51.828 72.4373 51.8584 72.5991 51.739 72.7367C51.0575 72.316 50.9604 72.0025 50.0745 71.9256C48.8186 71.8185 46.3673 71.8104 45.1194 71.9317C44.8848 71.954 44.361 72.1097 44.361 72.3847V75.7643H45.8273C46.3471 75.7643 47.4635 75.4266 47.8902 75.0989C48.4909 74.6398 48.6507 73.6124 48.7174 73.5537C48.766 73.5133 49.5285 73.5214 49.6235 73.5881L49.6175 78.9922C49.3019 78.794 49.1806 79.0529 49.0431 79.0772C48.8165 79.1156 48.1067 77.6149 47.8538 77.3722C47.779 77.2994 47.148 76.8909 47.0934 76.8706C47.5383 76.5531 48.4323 76.6583 48.5738 77.2974C48.948 76.7877 49.3545 76.1304 48.4383 76.0819C48.3493 75.7158 48.1977 75.7178 47.9833 76.0859C47.3098 76.2497 47.0125 76.5127 47.0934 76.8727C47.0448 76.8545 46.7839 76.7958 46.6889 76.7715C46.4887 76.5976 46.3532 76.5976 46.2844 76.7715C46.1428 76.7513 45.9972 76.6724 45.981 76.6704C45.8597 76.4459 45.3601 76.4378 45.0709 76.6704C44.8363 76.6785 44.5976 76.6643 44.363 76.6704L44.2841 80.1289C44.3428 80.7639 45.1376 80.9197 45.6594 80.9844C47.3482 81.1907 51.0575 80.681 52.5096 79.7588C53.4056 79.1904 53.806 77.983 55.0741 78.2864L53.8505 81.9046L42.3425 81.8156C42.745 81.666 43.1475 81.6073 43.5459 81.6397C43.4468 81.0309 43.2951 80.4626 43.0282 79.9003C42.9452 79.5221 43.0524 79.1217 43.3518 78.699C43.0787 77.7363 43.2021 77.3318 44.0556 76.7554C43.8918 76.5268 43.8432 76.3023 43.912 76.0839C43.4185 76.0313 43.5641 75.6167 43.736 75.2931C43.5318 74.9108 43.6956 74.834 44.0819 74.7693C44.0738 74.6722 44.003 74.5913 43.908 74.569C43.1333 74.9897 43.0524 74.0533 43.5378 73.6043C43.6248 73.303 43.5621 72.3847 43.2082 72.2674C42.9493 72.1825 40.2108 71.776 40.0592 71.8205C39.9783 72.3746 39.8266 72.9389 39.6021 73.5093L39.7598 73.7863C39.5798 74.1888 39.3391 75.1192 39.9277 75.1556C40.5769 75.5115 39.7335 76.5875 39.3088 76.7715C39.3189 75.645 39.4929 73.0097 39.1066 72.1319C39.1511 72.0106 39.1511 72.0106 39.1066 72.1319C38.3421 72.0531 37.5958 71.8083 36.7827 71.9297V71.1207C42.3688 71.0722 47.961 71.0782 53.5654 71.1652C53.7251 71.2764 53.6665 72.409 53.6584 72.6841C53.6584 72.7508 53.5593 72.7286 53.5593 72.7346L53.5573 72.7387Z" fill="white"/>
<path d="M39.3087 76.7734C39.3593 76.4559 39.9842 75.7804 40.0004 75.5963C40.0368 75.2242 39.4199 75.299 39.4017 75.204C39.3674 75.0037 39.3795 74.3181 39.4098 74.1037C39.4361 73.9237 39.5757 73.8711 39.6101 73.7983C39.6444 73.7255 39.3714 73.8428 39.3997 73.501C39.4402 73.0035 40.0287 72.3057 39.7112 71.6322C39.8568 71.6363 40.0146 71.608 40.1602 71.6363C41.1188 71.8304 41.6346 71.699 42.6398 71.9882C42.8764 72.057 43.1777 72.0125 43.382 72.1298C43.7339 72.334 43.827 73.23 43.7521 73.5981C43.6955 73.8853 43.3335 73.952 43.4568 74.401C43.5398 74.7044 43.744 74.3626 43.8897 74.3727C44.3589 74.403 44.5045 75.1898 43.7562 74.9633C44.1526 75.3516 43.7804 75.4467 43.7562 75.8694C43.8067 75.9199 44.4883 75.8168 44.3629 76.1727C43.6894 76.1019 44.3184 76.5449 44.2517 76.8078C44.1951 77.0343 43.7562 77.2244 43.6126 77.3903C43.1373 77.9424 43.6166 78.1811 43.5519 78.7352C43.5114 79.077 43.1373 79.344 43.1656 79.6271C43.1899 79.88 43.5094 80.5029 43.6045 80.8164C43.6429 80.9458 43.6247 81.4878 43.7663 81.6112C43.8067 81.6456 44.5551 81.5728 44.816 81.6254C44.9778 81.6577 44.9919 81.5566 44.9676 81.8236C44.0939 81.8276 43.2141 81.8195 42.3404 81.8236C40.5586 81.8337 38.7687 81.8195 36.9849 81.8236V81.1177H38.4512C38.8314 81.1177 39.2581 80.3856 39.3047 80.0519C39.4301 79.1296 39.3026 77.7624 39.3107 76.7795L39.3087 76.7734Z" fill="white"/>
<path d="M109.643 75.9662C109.433 75.7295 109.449 75.6284 109.75 75.5111C109.605 75.4444 109.475 75.3635 109.4 75.2178C109.17 74.779 109.046 73.7879 109.764 73.8911C109.637 73.6342 109.627 73.4603 109.783 73.2136C110.248 72.4834 111.607 71.6461 111.595 73.1145C112.04 72.5522 112.234 72.6918 112.27 73.341C112.665 73.972 113.037 74.1237 113.732 74.3522C115.676 74.9933 121.024 75.7073 122.219 77.2788C123.414 78.8502 122.221 80.2862 120.862 81.1073C120.366 81.1903 120.688 80.6786 120.973 80.4824C121.578 80.0253 122.731 79.1435 121.121 79.7786C121.024 80.6907 119.571 79.906 120.099 79.3842C119.675 78.8543 119.774 78.5287 120.484 78.8219C120.498 78.828 120.66 78.5893 120.651 78.5772C120.494 78.3446 119.929 78.4073 119.717 78.557C119.952 79.2507 119.321 79.099 118.902 78.8543C118.756 79.1374 118.603 78.9938 118.437 78.7896C116.113 78.2132 111.415 77.3758 109.645 75.9641L109.643 75.9662Z" fill="white"/>
<path d="M108.834 74.656C108.828 74.6095 108.723 74.5245 108.727 74.3142C108.77 71.9924 112.422 71.1429 114.242 71.0256C116.34 70.8901 118.253 71.3957 120.308 71.6364C120.549 71.6607 120.561 71.1733 120.731 71.1247C121.018 71.0438 121.556 71.1166 121.871 71.1247V74.5549C121.572 74.5043 121.095 74.6257 120.832 74.5549C120.751 74.5326 120.043 73.5194 119.752 73.2888C118.308 72.1501 116.03 71.873 114.242 72.0328C113.525 72.0955 112.074 72.3807 112.271 73.3434C112.165 73.1735 112.196 73.0825 112.119 72.9409C111.54 73.1149 111.937 73.578 111.866 73.6468C111.51 73.9764 111.253 72.6719 111.259 72.4373C111.128 72.32 109.896 73.1614 109.866 73.5133C109.838 73.8369 110.4 74.0897 109.34 74.1544C109.512 74.4194 109.49 74.9735 109.593 75.1616C109.696 75.3497 110.469 75.4913 110.022 75.6895C109.87 75.7562 109.633 75.6066 109.643 75.9706C109.275 75.6774 109.306 75.643 109.073 75.2729C108.99 75.1394 108.913 75.2708 108.834 74.9614C108.966 74.8077 109.006 74.474 108.834 74.658V74.656Z" fill="white"/>
<path d="M118.435 78.7916C118.558 78.8219 118.898 79.0181 118.629 78.5995C118.603 78.557 117.563 78.3365 117.83 78.0858C117.856 78.0615 118.455 78.2941 118.504 78.3224C118.544 78.3446 118.558 78.4538 118.613 78.4842C118.684 78.5226 119.956 79.2123 119.545 78.6925C119.537 78.6804 119.155 78.7026 119.345 78.4923C119.373 78.4619 120.085 78.2172 120.132 78.2071C120.342 78.1646 120.55 78.3709 120.809 78.3952C121.123 78.4255 121.372 78.3103 121.669 78.29C121.507 78.8826 120.874 78.6581 120.757 78.739C120.605 78.8462 120.813 79.1152 120.607 79.1961C120.431 79.2649 120.294 78.6723 120.053 78.8948C119.909 79.0282 120.66 79.3741 120.053 79.6512C120.281 79.7442 120.619 80.1487 120.848 79.993C120.906 79.9525 120.89 79.6876 120.981 79.6229C121.032 79.5864 122.128 79.2548 122.17 79.2993C122.267 79.7847 121.97 79.8393 121.764 80.0799C121.372 80.539 121.513 80.3368 121.094 80.6462C121.074 80.6624 120.601 81.0608 120.858 81.1154C119.131 82.1611 117.399 82.0741 115.456 82.2298L113.379 82.0235C113.852 81.7788 113.838 81.6878 113.338 81.7505C113.278 81.3096 112.697 81.251 112.28 81.3258L111.844 81.5928C111.401 81.5988 111.079 80.4945 111.156 80.1062C112.893 81.1802 115.243 81.4734 117.244 81.0892C117.976 80.9496 119.04 80.4723 118.936 79.5602C118.894 79.184 118.487 79.1213 118.431 78.7936L118.435 78.7916Z" fill="white"/>
<path d="M32.4364 72.4374L32.0339 72.6397C32.0339 71.8226 31.3745 72.217 30.7739 72.13C30.4624 72.0855 30.1975 72.041 29.8759 72.0026C29.6089 71.9702 29.1781 71.588 29.0285 71.5455C28.7777 71.4747 28.5532 71.6709 28.3206 71.5617C28.1204 71.4646 28.0738 71.1956 27.9222 71.143C27.641 71.0439 27.4024 71.2138 27.2082 71.2017C26.7147 71.1734 26.7309 71.1046 26.0898 71.2017C25.9482 71.2219 25.7702 71.1086 25.663 71.1734C25.4062 71.3271 25.4668 71.6547 25.663 71.8347C25.2302 71.7295 24.9572 71.5313 24.488 71.4464C23.3028 71.228 21.9396 71.4525 20.7625 71.3857C20.2589 71.3574 20.4571 71.7093 20.358 71.7396C19.8625 71.8913 20.0425 71.4767 20.0041 71.4343C19.9192 71.3392 19.4641 71.679 19.3468 71.6911C19.1708 71.7073 18.9726 71.5617 18.7057 71.6021C18.3436 71.6547 18.289 71.8853 17.9836 71.9399C17.8906 71.0257 17.2353 71.4565 16.7418 71.414C16.6993 71.41 16.0582 71.2522 16.0259 71.2381C15.8843 71.1794 16.0238 70.9509 15.9106 70.9286C15.5324 70.8558 15.4798 71.1572 15.2816 71.2178C15.0409 71.2907 14.7031 71.1046 14.4139 71.2522C14.2238 71.3493 14.2541 71.5273 14.24 71.5374C14.1813 71.5778 14.0822 71.3675 13.9912 71.3655C13.971 71.3655 13.7586 71.501 13.6353 71.5374C13.4998 71.5334 13.4452 71.4383 13.4674 71.2522C12.7272 71.0763 11.9445 71.0176 11.2103 71.236C11.1698 71.3271 11.0728 71.3978 11.1092 71.5394C10.9191 71.3574 11.0303 71.0742 11.008 70.8336C14.4281 70.8376 17.8481 70.8275 21.2702 70.8396C24.2898 70.8498 30.0235 70.5282 32.4323 72.4495L32.4364 72.4374Z" fill="white"/>
<path d="M111.158 80.1026C111.413 80.4626 111.548 80.9399 111.664 81.4132C111.902 81.4314 112.022 81.1644 112.242 81.126C112.503 81.0795 113.041 81.2392 113.381 81.1118V81.6154C113.998 81.3869 113.781 81.5891 113.981 81.7691C114.117 81.8925 114.521 82.0685 114.594 81.8197L114.341 81.7186C114.726 81.2797 114.756 81.6417 114.796 82.0199C114.327 82.0058 113.85 82.0442 113.381 82.0199C112.974 81.9997 112.543 81.9613 112.143 81.8945C111.678 81.8156 110.956 81.49 110.503 81.5103C109.916 81.5365 109.783 82.0968 109.671 82.1231C109.396 82.1898 108.937 82.0725 108.632 82.1231V78.1893C109.859 77.8435 109.766 78.4907 110.308 79.1884C110.565 79.5201 110.913 79.7588 111.158 80.1046V80.1026Z" fill="white"/>
<path d="M58.7102 79.4976C58.7021 79.8474 58.8134 80.3389 58.51 80.6605L58.7102 80.709V81.0124L58.51 80.9093C58.51 81.0508 58.4716 81.2834 58.6051 81.3724C58.7932 81.4978 60.5628 81.247 60.9148 81.2349C61.4285 81.2187 61.204 81.6596 60.9876 81.6899C60.8015 81.7162 60.7085 81.4189 60.6781 81.4129C60.3687 81.3421 60.4314 81.7021 60.1624 81.698C59.8934 81.694 59.6851 81.1965 59.5213 81.8174H62.4518L62.1485 81.516C62.5752 81.3016 62.7633 81.8133 62.8038 81.8153C62.8746 81.8194 63.7564 80.9275 63.7645 80.8081L64.0011 80.6969C65.2591 81.1176 66.7456 81.0974 67.862 80.3167L68.1108 80.4057C68.0238 80.5816 67.9429 80.6221 67.9146 80.6827C67.8418 80.8486 67.9894 81.1985 67.6416 81.2834C67.4858 81.3218 67.2775 81.1297 67.1016 81.4654L67.6052 81.516C67.6679 81.6394 67.1703 81.6394 67.4049 81.8174C67.4373 81.8416 67.7912 81.8093 67.9106 81.8174L56.352 81.9245C56.1336 81.8619 56.3055 81.0872 56.2893 80.9093H58.057C58.5565 80.9093 58.599 79.809 58.7143 79.4976H58.7102Z" fill="white"/>
<path d="M77.7101 72.2352C76.982 71.9298 76.2599 72.0511 75.4853 72.0329C75.5399 71.5334 75.2507 71.1976 75.8554 71.1653C77.5665 71.0763 79.6233 71.1612 81.3809 71.1632C84.0971 71.1653 88.9308 70.8963 91.3477 71.685C91.6531 71.7841 92.1021 72.0471 92.361 72.2352C91.5237 72.7367 91.4812 72.0875 90.9695 71.859C90.4578 71.6304 89.2524 71.6062 88.7933 71.9338C88.6881 72.0086 88.7751 72.1684 88.6234 72.134L88.318 71.4808L88.6214 71.3291H88.0147C88.4535 71.8812 88.3969 71.8226 87.7133 72.0349C87.8468 71.6345 87.1126 71.505 86.8436 71.5354C86.6232 71.5596 86.5221 71.6891 86.431 71.7032C86.2753 71.7255 86.1135 71.592 85.9537 71.6365C85.7596 71.6911 85.9032 72.1462 85.3854 72.037C85.5816 71.4464 84.8171 71.5536 84.4409 71.6325C84.3337 71.6547 84.4429 71.9318 84.1739 71.8347L84.2751 71.5334C83.9838 71.3695 83.6238 71.5576 83.4276 71.5374C83.3589 71.5313 83.371 71.3493 83.3022 71.3311C82.924 71.228 82.9524 71.5334 82.9079 71.5394C82.6146 71.5718 82.4831 71.1248 82.0544 71.4909C81.9694 71.5637 81.9755 71.7437 81.8986 71.7396C81.7328 71.7316 81.2878 71.416 80.9015 71.4626C80.6427 71.4929 80.5213 71.8044 80.2847 71.8387C80.0015 71.8792 80.1896 71.594 80.131 71.5334C80.0885 71.4889 79.1905 71.7922 78.9195 71.5334L79.6254 71.3331C79.417 71.3695 78.9862 71.2623 78.8386 71.3554C78.784 71.3877 78.78 71.59 78.6546 71.6284C78.5292 71.6668 78.1166 71.501 77.8536 71.5273C77.7303 71.5394 77.3197 72.0552 76.897 71.8408C76.9071 72.0147 77.2166 71.9257 77.4006 71.9945C77.4997 72.0329 77.6292 72.1603 77.706 72.2432L77.7101 72.2352Z" fill="white"/>
<path d="M98.8308 72.3364C98.1816 71.9521 97.3362 72.2029 96.6081 72.1342C96.6081 71.9663 96.5495 71.2261 96.7598 71.2261H106.917C106.892 71.3737 106.951 72.0007 106.917 72.033C106.803 72.1382 105.287 71.9461 104.995 72.1342C105.185 72.025 105.293 71.8672 105.602 71.9319C105.473 71.5679 105.109 71.8126 104.86 71.7964C103.94 71.7378 104.526 71.3535 104.49 71.3292C103.826 71.2726 104.19 71.7802 103.885 72.0351L103.733 71.3292C102.9 71.94 101.776 71.5214 100.811 71.6407C100.605 71.665 100.441 71.8409 100.299 71.8389C100.253 71.8389 100.234 71.6407 100.198 71.6306C99.8522 71.5274 99.9452 71.8895 99.749 72.0917C99.2252 72.6337 98.9441 71.673 98.7762 71.6346C98.6791 71.6124 98.4405 71.853 98.2443 71.8814C97.9996 71.9178 97.6032 71.762 97.32 71.8328C97.1542 71.9602 97.3301 72.0169 97.4697 72.0351C97.858 72.0856 98.3414 71.9481 98.7155 72.1038C98.9036 72.1807 98.8187 72.3202 98.8369 72.3384L98.8308 72.3364Z" fill="white"/>
<path d="M70.9384 71.6303C70.4935 71.8892 69.9757 71.9862 69.7775 71.428C69.3933 72.0226 69.545 71.7476 69.1243 71.5736C68.9989 71.5211 68.8492 71.5291 68.7157 71.5271L68.8189 71.3269H67.9088L68.0119 71.5271C67.7773 71.4381 67.66 71.5049 67.4557 71.6303L67.4031 71.3269H66.5456L66.7984 71.428C66.671 71.7921 66.4141 71.5453 66.2361 71.5372C66.2139 71.5372 66.1593 71.8568 65.8903 71.7274L66.0905 71.5271L65.1824 71.6262L65.3847 71.3249C65.0995 71.2581 64.871 71.3532 64.871 71.6707C64.871 71.782 65.1258 71.6545 65.0813 71.8285C64.5757 71.9761 64.6202 71.6687 64.4058 71.5433C64.1671 71.4017 63.9892 71.5554 63.8375 71.5271C63.7525 71.513 63.8132 71.3411 63.6231 71.3168C63.1781 71.2561 61.9646 71.2885 61.4914 71.3411C61.2244 71.3714 60.9595 71.6606 60.5327 71.5251C60.6925 71.3107 60.6055 71.2541 60.3831 71.3229C60.2698 71.3572 60.4923 71.6808 59.9988 71.6909C59.3334 71.7051 59.6368 71.4381 59.5336 71.3734C59.2565 71.1975 58.8197 71.2966 58.5143 71.3249C58.4738 71.4988 58.666 71.3896 58.7044 71.4361C58.7347 71.4745 58.581 71.6202 58.6134 71.7274C58.4415 71.7739 58.5628 71.5332 58.4718 71.5352C58.3747 71.5393 58.1725 71.6849 58.0086 71.6283C58.2878 72.0752 57.6143 71.6525 57.4484 71.6323C57.1349 71.5959 56.8093 71.6444 56.4938 71.6262C56.4109 71.25 56.9853 71.4847 57.1997 71.424C57.2219 71.2703 56.8396 71.2784 56.7446 71.2804C56.1682 71.2925 56.3583 71.3188 56.2916 71.8285C56.332 71.8689 57.0803 71.8002 57.2624 71.8224C57.4161 71.8406 57.4848 71.9256 57.5051 71.9296C56.7992 72.0065 55.8709 72.1157 56.2491 71.1206L69.3832 71.2197C69.9333 71.25 70.4611 71.4725 70.9465 71.6262L70.9384 71.6303Z" fill="white"/>
<path d="M51.7391 72.7387C51.6885 72.67 51.0919 71.867 51.1323 71.8326C51.2274 71.7497 51.9029 72.1906 52.0061 72.2088C52.2993 72.2574 53.0294 71.8974 53.0598 72.6861C53.0901 73.4749 52.5218 72.9126 52.0425 73.1432C51.824 72.9288 51.8645 72.9086 51.7391 72.7387Z" fill="white"/>
<path d="M53.5577 73.5454C53.5476 73.6749 53.582 74.1279 53.5577 74.1522C53.5294 74.1825 52.8013 74.1765 52.7144 74.1562C52.6415 74.138 52.3908 73.5778 52.3442 73.4463C52.3887 73.4726 52.5708 73.418 52.7063 73.5374C52.8418 73.6567 52.8175 73.9297 52.9065 73.958C53.3737 74.0996 53.2483 73.6587 53.406 73.3452L53.5577 73.5475V73.5454Z" fill="white"/>
<path d="M45.979 76.6741C45.6999 76.6499 45.356 76.666 45.0688 76.6741C45.083 76.1968 45.8698 76.2838 46.0781 76.6236L45.979 76.6741Z" fill="white"/>
<path d="M46.6852 76.7734C46.576 76.7471 46.4061 76.7916 46.2807 76.7734C46.036 76.4134 46.6852 76.3062 46.6852 76.7734Z" fill="white"/>
<path d="M26.0697 85.0452C25.8816 85.1443 25.4023 84.9036 25.5641 84.7439C25.651 84.6569 26.1445 84.9906 26.0697 85.0452Z" fill="white"/>
<path d="M108.834 74.6559L108.885 74.4536C109.162 74.6013 109.182 74.9936 108.834 74.9572C108.814 74.8763 108.846 74.7509 108.834 74.6538V74.6559Z" fill="white"/>
<path d="M20.4106 72.3866C20.4835 71.9639 21.0902 71.6949 21.4785 71.6362C21.9841 71.5594 23.6729 71.5675 24.1765 71.6544C25.9179 71.9517 27.2669 73.5778 26.5995 75.3354C26.0069 76.8947 24.0633 77.1091 22.5889 77.1819C22.1257 77.2041 21.07 77.2527 20.6655 77.1779C20.5805 77.1617 20.4127 77.097 20.4127 77.0262V72.3866H20.4106Z" fill="#042A45"/>
<path d="M11.2145 71.2256C11.2347 71.1791 11.1518 71.0497 11.2772 71.0193C11.89 70.8717 13.0691 71.1022 13.7406 71.0234L13.6394 71.527C13.2976 71.6281 13.4332 71.3955 13.2592 71.3328C13.1884 71.3085 12.3815 71.1629 12.2561 71.1447C12.1853 71.1346 11.5219 71.4622 11.2145 71.2256Z" fill="white"/>
<path d="M13.7362 83.6379L13.7423 83.9392L13.9445 84.0383C13.1497 84.2224 12.3245 84.0707 11.5195 84.0383C11.7804 83.6723 12.4519 83.8786 12.8786 83.832C13.1133 83.8078 13.4166 83.5914 13.7382 83.6379H13.7362Z" fill="white"/>
<path d="M83.0694 76.3668L83.1159 72.6374C83.2899 72.2713 84.2425 72.3036 84.6308 72.2895C86.2083 72.2369 88.3158 72.2025 88.1964 74.3706C88.0589 76.8967 84.8431 76.5691 83.0674 76.3648L83.0694 76.3668Z" fill="#042A45"/>
<path d="M63.7648 80.8103C63.777 80.6121 63.6617 80.3856 63.6597 80.1591C63.6475 78.9982 63.6779 77.8352 63.6637 76.6743H66.8471C66.8997 76.6743 67.6986 77.0748 67.7957 77.1395C68.3458 77.5116 68.8676 78.6928 68.7139 79.3258C68.6977 79.3966 68.5561 79.3905 68.5258 79.4755C68.3741 79.882 68.2973 80.0296 68.1132 80.4058C67.6035 80.7031 67.0514 81.0469 66.4467 81.1117C65.6174 81.2027 64.499 81.1905 63.7689 80.8083L63.7648 80.8103Z" fill="#042A45"/>
<path d="M65.8864 72.033C66.1736 72.0775 66.7682 72.1766 67.0169 72.2656C68.3983 72.7611 68.1475 75.5825 66.5417 75.6654L63.6616 75.7666C63.785 75.0648 63.4533 72.9796 63.7547 72.48C63.789 72.4234 64.0863 72.1867 64.1652 72.1342C64.7153 72.027 65.2877 71.9926 65.8823 72.033H65.8864Z" fill="#042A45"/>
<path d="M65.8865 72.0324C65.3485 72.2164 64.7317 72.0587 64.1694 72.1335C64.2604 72.0749 64.2625 72.0041 64.4344 71.9656C64.7863 71.8888 65.5528 71.9798 65.8886 72.0324H65.8865Z" fill="white"/>
<path d="M129.298 77.8835C129.11 77.8593 128.851 77.7622 128.942 77.5316L131.116 74.7588L133.547 77.6772L133.44 77.8815C132.139 77.7622 130.56 78.0433 129.296 77.8815L129.298 77.8835Z" fill="#042A45"/>
<path d="M47.0895 76.8748C46.3331 76.3894 47.6821 76.0435 47.8904 75.908C48.0704 75.7928 48.0684 75.4348 48.5053 75.5622C48.2727 76.1892 49.1282 75.8676 49.205 76.2296C49.2151 76.2741 49.0129 77.0548 48.9906 77.1013C48.9381 77.2085 48.6428 77.5442 48.5558 77.5806C48.3273 77.6737 48.4284 77.2348 48.2322 77.071C47.8459 76.7494 47.3868 77.0649 47.0915 76.8748H47.0895Z" fill="white"/>
<path d="M44.1589 79.2974L44.0092 79.9021C43.6371 79.6655 43.7301 79.358 44.1589 79.2974Z" fill="white"/>
<path d="M53.5576 72.7385C53.416 72.9084 53.0398 72.3765 53.4079 72.2349C53.6425 72.1439 53.5798 72.7143 53.5576 72.7385Z" fill="white"/>
<path d="M39.1066 72.134C39.0378 71.9782 38.8436 71.8609 38.9063 71.6304C39.2036 71.6971 39.2259 71.8751 39.3088 72.134C39.2421 72.134 39.1733 72.1421 39.1066 72.134Z" fill="white"/>
<path d="M106.814 71.9314C106.79 71.9577 106.106 71.9981 106.106 71.8323C106.239 71.804 106.656 71.8768 106.707 71.8242C106.765 71.7635 106.616 71.4945 106.812 71.5289C106.798 71.626 106.838 71.9051 106.812 71.9314H106.814Z" fill="white"/>
</g>
<defs>
<clipPath id="clip0_110_116">
<rect width="132" height="31.3507" fill="white" transform="translate(11 61)"/>
</clipPath>
</defs>
</svg>
