<svg width="154" height="154" viewBox="0 0 154 154" fill="none" xmlns="http://www.w3.org/2000/svg">
<rect width="154" height="154" fill="white"/>
<g clip-path="url(#clip0_105_509)">
<path d="M67.8997 30L49.8999 63.5179L67.8997 97.0355H72.8802L91.0757 63.5179L79.4831 41.9308L76.8653 46.8054L85.8404 63.5179L70.3602 92.3433L54.8803 63.5179L72.8802 30H67.8997ZM78.2134 30L60.0176 63.5179L71.6105 85.105L74.2283 80.2303L65.2532 63.5179L80.7334 34.6925L96.2132 63.5179L78.2132 97.0355H83.1939L101.194 63.5179L83.1939 30H78.2134Z" fill="black"/>
<path fill-rule="evenodd" clip-rule="evenodd" d="M40.1865 110.375V123.746H51.8338V121.05H43.649V118.342H50.819V115.682H43.649V113.036H51.6647V110.375H40.1865Z" fill="black"/>
<path fill-rule="evenodd" clip-rule="evenodd" d="M23 110.375V123.746H26.4625V119.558H30.6306L33.0482 123.746H37.0415L34.1419 118.827C35.5499 118.05 36.5637 116.634 36.5637 114.893C36.5637 111.316 33.8528 110.375 31.6502 110.375H23ZM26.4625 113.036H31.373C32.0071 113.036 32.7127 113.528 32.7127 115.052C32.7127 115.569 32.5619 116.898 31.373 116.898H26.4625V113.036Z" fill="black"/>
<path d="M54.979 110.375V123.746H58.4415V115.133L66.0962 123.746H69.5586V110.375H66.0962V118.917L58.4415 110.375H54.979Z" fill="black"/>
<path d="M77.423 110.375L71.5312 123.746H75.5015L76.3999 121.469H83.1342L84.0325 123.746H88.0028L82.1111 110.375H77.423ZM79.767 112.937L82.0845 118.809H77.4496L79.767 112.937Z" fill="black"/>
<path d="M107.157 110.375V123.746H118.25V121.05H110.62V110.375H107.157Z" fill="black"/>
<path d="M116.553 110.375V113.036H121.757V123.746H125.219V113.036H130.423V110.375H116.553Z" fill="black"/>
<path d="M89.6289 110.375V119.411C89.6289 123.198 93.4696 124 96.5154 124C99.5612 124 103.402 123.198 103.402 119.411V110.375H99.9394V119.242C99.9394 120.619 97.8579 121.081 96.5154 121.081C95.1729 121.081 93.0914 120.619 93.0914 119.242V110.375H89.6289Z" fill="black"/>
</g>
<defs>
<clipPath id="clip0_105_509">
<rect width="107.423" height="94" fill="white" transform="translate(23 30)"/>
</clipPath>
</defs>
</svg>
