<svg width="154" height="154" viewBox="0 0 154 154" fill="none" xmlns="http://www.w3.org/2000/svg">
<rect width="154" height="154" fill="white"/>
<mask id="mask0_105_485" style="mask-type:luminance" maskUnits="userSpaceOnUse" x="28" y="28" width="99" height="99">
<path d="M127 28H28V127H127V28Z" fill="white"/>
</mask>
<g mask="url(#mask0_105_485)">
<path d="M127 28H28V127H127V28Z" fill="black"/>
<path d="M72.6481 54.3022H60.9941V65.9556H72.6481V54.3022Z" fill="white"/>
<path d="M93.5085 54.3022H81.8545V65.9556H93.5085V54.3022Z" fill="white"/>
<path d="M72.6481 75.1387H60.9941V86.792H72.6481V75.1387Z" fill="white"/>
<path d="M93.5085 75.1387H81.8545V86.792H93.5085V75.1387Z" fill="white"/>
<path d="M89.6179 58.2314H65.0244V82.8236H89.6179V58.2314Z" fill="#0072CF"/>
<path d="M38.5862 120.712H34.9587V110.422H30.2412V107.879H43.2646V110.422H38.5862V120.712Z" fill="white"/>
<path d="M54.6221 120.712H46.0088V107.879H55.1419V110.406H49.5581V112.859H54.3873V115.369H49.5581V118.163H56.1648L54.6221 120.712Z" fill="white"/>
<path d="M67.0648 120.696C66.5617 120.824 65.7122 121.042 64.2086 121.042C59.329 121.042 56.4561 118.153 56.4561 114.447C56.4561 110.741 59.1781 107.556 64.4601 107.556C66.0028 107.556 67.1766 107.829 68.1044 108.081V110.937C67.6181 110.646 66.5003 109.976 64.8849 109.976C61.8778 109.976 60.1618 111.96 60.1618 114.302C60.1618 116.772 62.012 118.7 65.1756 118.7C66.3885 118.7 67.607 118.443 68.7249 118.007L67.0648 120.696Z" fill="white"/>
<path d="M82.0555 120.712H78.4894V115.24H73.185V120.712H69.6357V107.879H73.185V112.697H78.4894V107.879H82.0555V120.712Z" fill="white"/>
<path d="M97.3143 120.712H95.017L87.5551 112.915V120.712H84.1064V107.879H87.2253L93.8824 114.838V107.879H97.3143V120.712Z" fill="white"/>
<path d="M107.018 116.168L105.57 112.116C105.475 111.825 105.436 111.736 105.38 111.406C105.246 111.808 105.246 111.842 105.168 112.043L103.603 116.168H107.018ZM112.417 120.712H108.656L107.728 118.147H102.865L101.881 120.712H98.3545L103.715 107.879H107.169L112.417 120.712Z" fill="white"/>
<path d="M121.696 120.712H113.44V107.879H117.007V118.147H123.278L121.696 120.712Z" fill="white"/>
<path d="M121.187 108.774V109.378H121.746C121.897 109.378 122.042 109.338 122.07 109.109C122.104 108.807 121.886 108.774 121.746 108.774H121.187ZM120.964 108.573H121.741C122.014 108.573 122.272 108.623 122.294 109.02C122.305 109.243 122.238 109.327 122.065 109.456C122.244 109.568 122.249 109.596 122.277 109.903C122.294 110.132 122.266 110.171 122.361 110.322H122.098L122.059 110.099C122.02 109.892 122.126 109.568 121.763 109.568H121.187V110.322H120.964V108.573ZM121.551 108.086C120.779 108.086 120.153 108.718 120.159 109.495C120.159 110.266 120.785 110.898 121.556 110.898C122.327 110.898 122.953 110.272 122.953 109.489C122.953 108.707 122.327 108.081 121.551 108.081V108.086ZM121.551 111.077C120.673 111.077 119.969 110.367 119.969 109.489C119.969 108.612 120.679 107.896 121.551 107.896C122.422 107.896 123.132 108.612 123.132 109.489C123.132 110.367 122.422 111.071 121.551 111.077Z" fill="white"/>
<path d="M121.187 108.774V109.377H121.746C121.897 109.377 122.042 109.338 122.07 109.109C122.104 108.807 121.886 108.774 121.746 108.774H121.187ZM120.964 108.572H121.741C122.014 108.572 122.272 108.623 122.294 109.02C122.305 109.243 122.238 109.327 122.065 109.456C122.244 109.567 122.249 109.595 122.277 109.903C122.294 110.132 122.266 110.171 122.361 110.322H122.098L122.059 110.098C122.02 109.892 122.126 109.567 121.763 109.567H121.187V110.322H120.964V108.572ZM121.551 108.086C120.779 108.086 120.153 108.718 120.159 109.495C120.159 110.266 120.785 110.898 121.556 110.898C122.327 110.898 122.953 110.272 122.953 109.489C122.953 108.707 122.327 108.081 121.551 108.081V108.086ZM121.551 111.082C120.673 111.082 119.969 110.372 119.969 109.495C119.969 108.617 120.679 107.902 121.551 107.902C122.422 107.902 123.132 108.617 123.132 109.495C123.132 110.372 122.422 111.076 121.551 111.082Z" stroke="white" stroke-width="0.03"/>
</g>
</svg>
