<svg width="154" height="154" viewBox="0 0 154 154" fill="none" xmlns="http://www.w3.org/2000/svg">
<g clip-path="url(#clip0_105_460)">
<rect width="154" height="154" fill="white"/>
<g clip-path="url(#clip1_105_460)">
<path d="M136 84.1323V81.9866H130.646V73.4038H128.291V84.1323H136Z" fill="#222222"/>
<path d="M82.3437 72.1946L80.156 70L77.9614 72.1946L80.156 78.7715L82.3437 72.1946Z" fill="#222222"/>
<path d="M27.8903 75.6124V73.4387H19V75.6124H22.264V84.1672H24.6263V75.6124H27.8903Z" fill="#222222"/>
<path d="M37.8711 84.1672V82.0704H32.0491V79.8129H37.1023V77.7161H32.0491V75.5355H37.7942V73.4387H29.7007V84.1672H37.8711Z" fill="#222222"/>
<path d="M49.3963 82.4339C48.292 83.6151 47.0689 84.3489 45.0001 84.3489C41.8409 84.3489 39.4995 81.9097 39.4995 78.8274C39.4995 78.8204 39.4995 78.8065 39.4995 78.7995C39.4995 75.7522 41.799 73.25 45.0979 73.25C47.1248 73.25 48.3339 73.928 49.3264 74.9065C48.8232 75.4866 48.3269 76.0597 47.8237 76.6398C46.999 75.8919 46.1533 75.4306 45.0769 75.4306C43.2667 75.4306 41.9667 76.9333 41.9667 78.7715C41.9667 78.7785 41.9667 78.7925 41.9667 78.7995C41.9667 80.6376 43.2388 82.1753 45.0769 82.1753C46.3001 82.1753 47.0549 81.686 47.9006 80.9172C48.3968 81.4274 48.9001 81.9306 49.3963 82.4339Z" fill="#222222"/>
<path d="M60.3622 84.1672V73.4387H57.9999V77.6812H53.6456V73.4387H51.2832V84.1672H53.6456V79.8618H57.9999V84.1672H60.3622Z" fill="#222222"/>
<path d="M72.4679 84.1672V73.4387H70.1405V80.0436L65.1152 73.4387H62.9346V84.1672H65.262V77.3457L70.462 84.1672H72.4679Z" fill="#222222"/>
<path d="M95.7558 80.9941C95.7558 80.9871 95.7558 80.9731 95.7558 80.9661C95.7558 79.093 94.5326 78.3172 92.352 77.7441C90.4998 77.2688 90.0386 77.0381 90.0386 76.3322C90.0386 76.3252 90.0386 76.3113 90.0386 76.3043C90.0386 75.7801 90.5138 75.3677 91.4154 75.3677C92.317 75.3677 93.2536 75.7661 94.2041 76.4231C94.6095 75.829 95.0219 75.2349 95.4273 74.6478C94.3369 73.7742 93.002 73.2849 91.4434 73.2849C89.2488 73.2849 87.6902 74.5709 87.6902 76.5209C87.6902 76.5279 87.6902 76.5419 87.6902 76.5489C87.6902 78.6806 89.088 79.2747 91.2477 79.8268C93.0439 80.2881 93.4074 80.5957 93.4074 81.1898C93.4074 81.1967 93.4074 81.2107 93.4074 81.2177C93.4074 81.8467 92.8273 82.2311 91.8558 82.2311C90.6326 82.2311 89.6192 81.7279 88.6547 80.9311C88.1864 81.4903 87.7251 82.0424 87.2568 82.6016C88.5429 83.7478 90.1853 84.3209 91.8068 84.3209C94.1343 84.3209 95.7558 83.1258 95.7558 80.9941Z" fill="#222222"/>
<path d="M115.92 84.1323V82.0355H110.091V79.778H115.151V77.6812H110.091V75.5076H115.843V73.4038H107.75V84.1323H115.92Z" fill="#222222"/>
<path d="M126.187 84.1323V82.0355H120.365V79.778H125.418V77.6812H120.365V75.5076H126.11V73.4038H118.017V84.1323H126.187Z" fill="#222222"/>
<path d="M82.127 74.6618C82.3786 73.9139 82.6233 73.1661 82.8749 72.4182C88.7808 75.3048 86.7329 84.1951 80.1561 84.1951C73.5792 84.1951 71.5243 75.3048 77.4372 72.4182C77.6889 73.1661 77.9335 73.9139 78.1851 74.6618C74.7953 76.6677 76.2211 81.8607 80.1561 81.8607C84.091 81.8607 85.5168 76.6677 82.127 74.6618Z" fill="#222222"/>
<path d="M105.939 75.5845V73.4038H97.0488V75.5845H100.313V84.1323H102.675V75.5845H105.939Z" fill="#222222"/>
</g>
</g>
<defs>
<clipPath id="clip0_105_460">
<rect width="154" height="154" fill="white"/>
</clipPath>
<clipPath id="clip1_105_460">
<rect width="117" height="14.3559" fill="white" transform="translate(19 70)"/>
</clipPath>
</defs>
</svg>
