<svg width="154" height="154" viewBox="0 0 154 154" fill="none" xmlns="http://www.w3.org/2000/svg">
<rect width="154" height="154" fill="white"/>
<g clip-path="url(#clip0_105_712)">
<path fill-rule="evenodd" clip-rule="evenodd" d="M152 151.69V1.68994H2V151.69H152Z" fill="#DA2427"/>
<path fill-rule="evenodd" clip-rule="evenodd" d="M97.1406 101.622L135.252 101.624V87.3355C135.252 66.2385 118.249 49.1322 97.1585 49.1322L97.1406 49.1318V101.622Z" fill="white"/>
<path fill-rule="evenodd" clip-rule="evenodd" d="M62.0821 65.5779H58.6551V52.0739H53.6938V49.1729H67.0433V52.0739H62.0821V65.5779Z" fill="white"/>
<path fill-rule="evenodd" clip-rule="evenodd" d="M71.3603 58.219V65.5779H67.9331V49.1729H71.3603V55.3903H77.7539V49.1729H81.1838V65.5779H77.7539V58.219H71.3603Z" fill="white"/>
<path fill-rule="evenodd" clip-rule="evenodd" d="M94.8977 52.0739H86.2761V55.5252H93.868V58.4262H86.2761V62.6768H94.9171V65.5779H83.0835V49.1729H94.8977V52.0739Z" fill="white"/>
<path fill-rule="evenodd" clip-rule="evenodd" d="M30.4812 67.1987H33.6853V83.6026H30.2554L23.5618 71.9056H23.5131V83.6026H20.3149V67.1987H23.922L30.4354 78.6217H30.4812V67.1987Z" fill="white"/>
<path fill-rule="evenodd" clip-rule="evenodd" d="M43.2494 81.1362C45.0989 81.1362 47.7 79.9938 47.7 75.4011C47.7 70.8112 45.0985 69.6643 43.2494 69.6643C41.3998 69.6643 38.7899 70.8112 38.7899 75.4011C38.7903 79.9938 41.3998 81.1367 43.2494 81.1362ZM43.2494 66.7637C45.4184 66.7637 51.1267 67.7018 51.1267 75.4011C51.1272 83.0991 45.4179 84.0377 43.2494 84.0377C41.0748 84.0377 35.3628 83.0991 35.3628 75.4011C35.3631 67.7018 41.0748 66.7637 43.2494 66.7637Z" fill="white"/>
<path fill-rule="evenodd" clip-rule="evenodd" d="M75.4556 83.6026H72.0258V70.0981H67.0674V67.1987H80.4081V70.0981H75.4556V83.6026Z" fill="white"/>
<path fill-rule="evenodd" clip-rule="evenodd" d="M85.0654 76.2488V83.6026H81.6411V67.1987H85.0654V73.4107H91.4618V67.1987H94.8977V83.6026H91.4618V76.2488H85.0654Z" fill="white"/>
<path fill-rule="evenodd" clip-rule="evenodd" d="M45.9789 101.627H42.5518V85.2222H54.2248V88.126H45.9789V91.8268H53.2012V94.7306H45.9789V101.627Z" fill="white"/>
<path fill-rule="evenodd" clip-rule="evenodd" d="M57.8434 95.4136H62.0193L59.9875 88.9242H59.944L57.8434 95.4136ZM55.7831 101.627H52.1733L58.0261 85.2222H61.979L67.7562 101.627H64.0294L62.9789 98.2454H56.9285L55.7831 101.627Z" fill="white"/>
<path fill-rule="evenodd" clip-rule="evenodd" d="M78.2825 90.5927C78.0136 89.6107 77.4818 87.7597 74.6462 87.7597C73.003 87.7597 70.579 88.856 70.579 93.4925C70.579 96.4421 71.745 99.0941 74.6462 99.0941C76.5476 99.0941 77.8709 98.018 78.2825 96.0092H81.7068C81.0233 99.5721 78.6964 102.062 74.5806 102.062C70.2165 102.062 67.0835 99.1186 67.0835 93.4487C67.0835 87.7146 70.3964 84.7891 74.6292 84.7891C79.5406 84.7891 81.5237 88.1724 81.7065 90.5927H78.2825Z" fill="white"/>
<path fill-rule="evenodd" clip-rule="evenodd" d="M94.8977 88.126H86.2761V91.5726H93.868V94.4756H86.2761V98.7259H94.9171V101.627H83.0835V85.2222H94.8977V88.126Z" fill="white"/>
<path fill-rule="evenodd" clip-rule="evenodd" d="M60.1755 74.3959C61.954 74.3959 62.8198 73.7788 62.8198 72.1595C62.8198 71.2961 62.4308 70.0199 60.425 70.0199H56.1625V74.3959H60.1755ZM52.8081 67.1909H61.0877C65.4407 67.1909 66.2354 70.4038 66.2354 71.8219C66.2358 73.6195 65.3233 75.1708 63.7054 75.7183C65.0517 76.311 65.7835 76.8107 65.7835 79.8655C65.7839 82.2601 65.7835 82.8522 66.5118 83.1274L66.5122 83.5579H62.7221C62.4963 82.7843 62.3623 81.9386 62.3623 80.2537C62.3623 78.02 62.2283 77.1527 59.6928 77.1527H56.1625V83.5579H52.8081V67.1909Z" fill="white"/>
<path d="M97.1411 66.0049V66.6991H96.7939V66.0049H97.1411ZM98.8565 66.7033V66.7019L97.1411 66.6991V66.0049L98.8565 66.0076V66.7033ZM119.639 86.7966H118.944L118.918 85.761L118.84 84.7407L118.712 83.7353L118.536 82.7465L118.312 81.7738L118.041 80.8201L117.725 79.8866L117.366 78.9747L116.963 78.0855L116.52 77.2191L116.036 76.3767L115.513 75.5622L114.953 74.7743L114.357 74.0144L113.726 73.2863L113.06 72.5872L112.363 71.9226L111.635 71.291L110.875 70.6936L110.088 70.1346L109.274 69.611L108.431 69.127L107.565 68.6836L106.676 68.2812L105.763 67.9219L104.83 67.6059L103.878 67.3346L102.906 67.1104L101.917 66.9347L100.912 66.8061L99.8919 66.7284L98.8565 66.7033V66.0062L99.9245 66.0342L100.98 66.1145L102.02 66.2459L103.045 66.4297L104.05 66.6621L105.037 66.9417L106.003 67.2684L106.946 67.6413L107.867 68.0575L108.764 68.5171L109.633 69.0175L110.477 69.5574L111.292 70.1383L112.076 70.7547L112.831 71.4081L113.553 72.0972L114.241 72.818L114.894 73.5734L115.511 74.3579L116.09 75.1729L116.63 76.0172L117.13 76.8869L117.59 77.7832L118.006 78.7052L118.378 79.6498L118.705 80.6159L118.984 81.6022L119.217 82.6076L119.401 83.6319L119.532 84.6726L119.612 85.7284L119.639 86.7966ZM118.945 101.625L118.944 86.7966H119.639L119.639 101.625H118.945ZM118.945 101.625H119.639V101.972H118.945V101.625Z" fill="#DA2427"/>
<path d="M105.482 101.622H106.177V101.969H105.482V101.622ZM105.478 90.1392H106.174L106.177 101.622H105.482L105.48 90.1392H105.478ZM100.055 84.7167V84.0225L100.368 84.03L100.679 84.0536L100.986 84.0917L101.288 84.1465L101.584 84.2151L101.874 84.2971L102.16 84.3931L102.437 84.5033L102.709 84.6258L102.973 84.7614L103.228 84.9086L103.477 85.0669L103.717 85.2373L103.948 85.4196L104.171 85.6118L104.383 85.8139L104.585 86.0265L104.778 86.2495L104.96 86.4798L105.13 86.7196L105.288 86.9686L105.435 87.2239L105.571 87.4876L105.693 87.7596L105.803 88.0364L105.9 88.3208L105.981 88.6122L106.05 88.9076L106.105 89.2093L106.143 89.5156L106.166 89.8261L106.175 90.1392H105.478L105.472 89.8588L105.451 89.5837L105.416 89.3127L105.369 89.0465L105.309 88.7837L105.235 88.5278L105.15 88.276L105.054 88.0291L104.945 87.7898L104.826 87.556L104.695 87.3281L104.553 87.1089L104.402 86.8963L104.241 86.6905L104.071 86.4948L103.891 86.3066L103.702 86.1264L103.507 85.9559L103.301 85.7955L103.088 85.6441L102.869 85.5021L102.641 85.3713L102.407 85.2519L102.168 85.1432L101.92 85.0466L101.67 84.9613L101.412 84.8876L101.149 84.8272L100.883 84.7805L100.611 84.7452L100.336 84.7242L100.055 84.7167ZM97.1401 84.032L100.055 84.0225V84.7167L97.1401 84.7262V84.032ZM97.1401 84.032V84.7262H96.793V84.032H97.1401Z" fill="#DA2427"/>
<path d="M36.8485 98.1489L37.0227 98.3231V100.434H36.6743V98.3231L36.8485 98.1489ZM36.6743 98.3231V98.1489H36.8485L36.6743 98.3231ZM37.7718 98.4973H36.8485V98.1489H37.7718V98.4973ZM38.6908 98.8817H38.3424L38.3426 98.8558L38.3409 98.8313L38.3387 98.8084L38.336 98.7856L38.332 98.7651L38.3276 98.7452L38.3224 98.7271L38.3166 98.7105L38.3101 98.6954L38.3022 98.6798L38.2942 98.666L38.2862 98.6537L38.2766 98.641L38.2656 98.6286L38.2556 98.6186L38.242 98.6068L38.2288 98.596L38.2127 98.5849L38.1955 98.5748L38.1758 98.5645L38.1553 98.5552L38.132 98.5463L38.1063 98.5378L38.0788 98.5298L38.0494 98.5229L38.0159 98.5157L37.9813 98.5105L37.9446 98.5057L37.9052 98.5021L37.8636 98.499L37.8188 98.4972L37.7718 98.4973V98.1489L37.8269 98.1503L37.8801 98.1521L37.9324 98.1552L37.9827 98.1601L38.0316 98.1662L38.0786 98.1743L38.1228 98.1828L38.1673 98.1937L38.2097 98.2058L38.2504 98.2198L38.2899 98.2354L38.3283 98.2529L38.3642 98.2715L38.3991 98.2923L38.4316 98.3144L38.4638 98.3387L38.4924 98.3641L38.5214 98.3932L38.5461 98.422L38.5693 98.4524L38.5909 98.4851L38.6098 98.518L38.6258 98.5512L38.6404 98.5866L38.6531 98.6223L38.6636 98.6582L38.6722 98.6943L38.6788 98.7313L38.6842 98.7676L38.6878 98.8056L38.6895 98.8436L38.6908 98.8817ZM37.8568 99.6332V99.2849L37.8533 99.2856L37.8839 99.2844L37.9126 99.2823L37.9421 99.28L37.9696 99.2767L37.9957 99.2726L38.0218 99.2681L38.0466 99.2626L38.07 99.2561L38.0925 99.2493L38.1142 99.2421L38.1351 99.2332L38.1537 99.2252L38.1719 99.216L38.1893 99.2058L38.2056 99.1951L38.2194 99.1847L38.2343 99.173L38.2467 99.1614L38.2593 99.1487L38.27 99.1354L38.28 99.1215L38.2903 99.107L38.2991 99.0906L38.3073 99.0741L38.3148 99.0555L38.3217 99.0351L38.3276 99.0146L38.3328 98.9912L38.337 98.9665L38.3405 98.9405L38.3423 98.9129L38.3424 98.8817H38.6908L38.6893 98.9265L38.686 98.9717L38.6813 99.0156L38.6743 99.0579L38.665 99.099L38.6536 99.1399L38.64 99.178L38.6244 99.2156L38.6067 99.2524L38.5869 99.2866L38.5657 99.3202L38.5421 99.3517L38.5164 99.3813L38.4902 99.409L38.4616 99.4356L38.4331 99.4595L38.4015 99.4822L38.3702 99.5025L38.338 99.5208L38.3047 99.5381L38.2698 99.5542L38.2353 99.5673L38.2 99.5798L38.1639 99.5909L38.1269 99.6L38.09 99.6082L38.0529 99.6155L38.0144 99.621L37.9761 99.6255L37.9384 99.6293L37.8989 99.6314L37.8602 99.6325L37.8568 99.6332ZM37.8602 99.6325L37.8568 99.6332H37.8271L37.8602 99.6325ZM36.8485 99.2849H37.8568V99.6332H36.8485V99.2849ZM38.3346 100.506L37.7183 99.5608L38.0095 99.3716L38.6257 100.316L38.3346 100.506Z" fill="white"/>
<path d="M35.4729 99.3795H35.1245L35.1281 99.2557L35.1376 99.1327L35.1525 99.0115L35.1743 98.892L35.2015 98.7751L35.2338 98.6603L35.272 98.5477L35.3155 98.4375L35.364 98.3305L35.4177 98.2254L35.476 98.1245L35.5384 98.0259L35.6059 97.9309L35.6781 97.8399L35.7542 97.7516L35.8341 97.6674L35.9183 97.5876L36.006 97.5114L36.0977 97.4393L36.1926 97.3719L36.2912 97.3093L36.3922 97.2504L36.4973 97.1974L36.6043 97.1489L36.7144 97.1054L36.8271 97.0672L36.9418 97.035L37.0587 97.0079L37.1781 96.986L37.2993 96.9711L37.4222 96.9616L37.546 96.9587V97.3057L37.4387 97.3086L37.3334 97.3166L37.2298 97.3303L37.1281 97.3479L37.0276 97.371L36.9291 97.3992L36.8328 97.4318L36.7389 97.4687L36.6469 97.5103L36.5582 97.5566L36.4709 97.6059L36.3872 97.6603L36.3059 97.7182L36.2278 97.7795L36.1523 97.8447L36.0805 97.9136L36.0114 97.9856L35.9462 98.0603L35.8849 98.1391L35.827 98.2204L35.7726 98.3041L35.7225 98.3915L35.6769 98.4802L35.6353 98.5722L35.5984 98.6662L35.5658 98.7623L35.5375 98.8609L35.5145 98.9614L35.4968 99.0632L35.4831 99.1668L35.4751 99.2722L35.4729 99.3795ZM37.5455 101.452V101.801L37.4218 101.797L37.2989 101.788L37.1777 101.773L37.0584 101.751L36.9414 101.724L36.826 101.692L36.7142 101.654L36.604 101.61L36.4971 101.562L36.392 101.509L36.2911 101.45L36.1924 101.388L36.0976 101.32L36.0066 101.248L35.9182 101.172L35.8347 101.092L35.7542 101.008L35.6781 100.92L35.6065 100.829L35.5384 100.734L35.4759 100.636L35.417 100.535L35.364 100.43L35.3155 100.323L35.272 100.212L35.2338 100.1L35.2015 99.9848L35.1743 99.8671L35.1525 99.7482L35.1376 99.6267L35.1281 99.5036L35.1245 99.3795H35.4729L35.4751 99.4872L35.4831 99.5926L35.4968 99.6965L35.5145 99.7992L35.5375 99.8991L35.5658 99.9976L35.5984 100.094L35.6353 100.188L35.6769 100.28L35.7232 100.369L35.7725 100.456L35.827 100.54L35.8841 100.621L35.9462 100.7L36.0113 100.774L36.0797 100.846L36.1522 100.915L36.227 100.98L36.3058 101.042L36.3871 101.099L36.4707 101.154L36.5581 101.203L36.6467 101.249L36.7387 101.291L36.8327 101.327L36.9295 101.36L37.0272 101.388L37.1277 101.411L37.2295 101.429L37.333 101.442L37.4382 101.45L37.5455 101.452ZM39.6187 99.3795H39.967L39.9634 99.5036L39.9541 99.6267L39.9392 99.7482L39.9175 99.8671L39.8912 99.9848L39.8583 100.1L39.8204 100.212L39.7777 100.323L39.7288 100.43L39.676 100.535L39.6173 100.636L39.555 100.734L39.4877 100.829L39.4157 100.92L39.3398 101.008L39.2602 101.092L39.1761 101.172L39.0886 101.248L38.997 101.32L38.9021 101.388L38.8035 101.45L38.7025 101.509L38.5974 101.562L38.4902 101.61L38.38 101.654L38.2671 101.692L38.1521 101.724L38.0343 101.751L37.915 101.773L37.7934 101.788L37.6699 101.797L37.5455 101.801V101.452L37.6535 101.45L37.7593 101.442L37.8633 101.429L37.9662 101.411L38.0664 101.388L38.1651 101.36L38.2615 101.327L38.3556 101.291L38.4477 101.249L38.5365 101.203L38.6238 101.154L38.7075 101.099L38.7887 101.042L38.8667 100.98L38.9421 100.915L39.0138 100.846L39.0827 100.774L39.1477 100.7L39.2087 100.621L39.2665 100.54L39.3206 100.456L39.3698 100.369L39.4159 100.28L39.4565 100.188L39.4939 100.094L39.5264 99.9976L39.5538 99.8991L39.5773 99.7992L39.595 99.6965L39.6085 99.5926L39.6165 99.4872L39.6187 99.3795ZM37.546 97.3057V96.9587L37.6704 96.9616L37.7937 96.9711L37.9154 96.986L38.0345 97.0079L38.1523 97.035L38.2673 97.0672L38.38 97.1054L38.4903 97.1489L38.5974 97.1974L38.7025 97.2504L38.8035 97.3093L38.9021 97.3719L38.9969 97.44L39.0885 97.5114L39.176 97.5876L39.2601 97.668L39.3398 97.7523L39.4157 97.8399L39.4877 97.9316L39.5549 98.0259L39.6173 98.1245L39.676 98.2261L39.7287 98.3305L39.777 98.4375L39.8204 98.5477L39.8583 98.6603L39.8912 98.7751L39.9175 98.892L39.9392 99.0115L39.9541 99.1327L39.9634 99.2557L39.967 99.3795H39.6187L39.6165 99.2722L39.6085 99.1668L39.595 99.0632L39.5773 98.9614L39.5537 98.8609L39.5264 98.7623L39.4939 98.6662L39.4572 98.5722L39.4158 98.4802L39.3698 98.3908L39.3206 98.3041L39.2664 98.2204L39.2087 98.1384L39.1476 98.0603L39.0827 97.9849L39.0137 97.913L38.942 97.8447L38.8667 97.7795L38.7887 97.7175L38.7075 97.6603L38.6238 97.6059L38.5365 97.5566L38.4478 97.5103L38.3557 97.4687L38.2616 97.4318L38.1653 97.3992L38.0665 97.371L37.9664 97.3479L37.8637 97.3303L37.7597 97.3166L37.654 97.3086L37.546 97.3057Z" fill="white"/>
</g>
<defs>
<clipPath id="clip0_105_712">
<rect width="150" height="150" fill="white" transform="translate(2 1.68994)"/>
</clipPath>
</defs>
</svg>
