<svg width="154" height="154" viewBox="0 0 154 154" fill="none" xmlns="http://www.w3.org/2000/svg">
<rect width="154" height="154" fill="white"/>
<g clip-path="url(#clip0_105_817)">
<path d="M5.35205 103.149L7.05304 111.476H9.20166L10.5334 106.716L11.8651 111.476H13.9913L15.7035 103.149H14.0137L12.7603 109.3L11.3951 104.408H9.69406L8.3064 109.3L7.07542 103.149H5.35205Z" fill="#222222"/>
<path d="M18.2017 111.476V105.645H16.5679V111.476H18.2017ZM16.5679 103.149V104.85H18.2017V103.149H16.5679Z" fill="#222222"/>
<path d="M21.2945 111.476V103.149H19.6606V111.476H21.2945Z" fill="#222222"/>
<path d="M24.3873 111.476V103.149H22.7534V111.476H24.3873Z" fill="#222222"/>
<path d="M27.48 111.476V105.645H25.8462V111.476H27.48ZM25.8462 103.149V104.85H27.48V103.149H25.8462Z" fill="#222222"/>
<path d="M28.7148 108.693C28.7148 109.565 28.8379 110.272 29.1625 110.802C29.487 111.332 29.9794 111.664 30.6956 111.664C31.3223 111.664 31.6916 111.443 32.1168 111.144C32.3518 110.979 32.5532 110.835 32.6876 110.725V111.476H34.299V106.098C33.2695 105.744 32.3854 105.457 31.4454 105.457C30.2368 105.457 29.5765 105.821 29.1849 106.462C28.8268 107.047 28.7148 107.809 28.7148 108.693ZM30.3711 108.693C30.3711 108.074 30.4158 107.699 30.5837 107.368C30.7628 107.014 31.0985 106.893 31.5685 106.893C31.9714 106.893 32.419 107.036 32.6652 107.125V109.19C32.4973 109.333 32.3294 109.466 32.1056 109.631C31.8259 109.841 31.4006 110.14 31.0761 110.14C30.7851 110.14 30.6172 110.051 30.5166 109.786C30.4158 109.51 30.3711 109.079 30.3711 108.693Z" fill="#222222"/>
<path d="M35.7583 105.645V111.476H37.3921V107.39C37.6831 107.257 38.2538 107.014 38.5671 107.014C38.7686 107.014 38.9476 107.014 39.0595 107.18C39.1714 107.345 39.1714 107.677 39.1714 108.063V111.476H40.8053V107.401C41.0179 107.29 41.611 107.014 41.9356 107.014C42.1258 107.014 42.3161 107.014 42.4391 107.158C42.5846 107.334 42.5846 107.677 42.5846 108.063V111.476H44.2185V107.986C44.2185 106.804 44.0618 106.296 43.6925 105.921C43.368 105.59 42.9315 105.457 42.3832 105.457C41.7006 105.457 40.9284 105.855 40.4584 106.098C40.3801 105.976 40.3129 105.899 40.1786 105.788C39.9436 105.601 39.5967 105.457 39.1267 105.457C38.5448 105.457 37.6607 105.855 37.3921 105.976V105.645H35.7583Z" fill="#222222"/>
<path d="M45.7711 108.461C46.0061 108.726 46.2971 108.869 46.8119 109.013L47.875 109.3C48.2219 109.388 48.4345 109.444 48.5576 109.51C48.6807 109.576 48.7367 109.676 48.7367 109.819C48.7367 109.952 48.7031 110.062 48.58 110.14C48.4457 110.228 48.2443 110.239 47.9421 110.239C46.9909 110.239 45.883 110.007 45.4578 109.919V111.387C45.827 111.454 47.0245 111.664 47.763 111.664C48.7702 111.664 49.4417 111.465 49.8557 111.1C50.2362 110.758 50.3817 110.382 50.3817 109.808C50.3817 109.333 50.2139 108.881 49.9676 108.627C49.7214 108.373 49.3857 108.196 48.7926 108.041L47.7742 107.776C47.5504 107.721 47.3826 107.677 47.2371 107.611C47.0916 107.544 47.0357 107.467 47.0357 107.301C47.0357 107.169 47.058 107.069 47.17 106.992C47.2819 106.915 47.4497 106.882 47.8638 106.882C48.58 106.882 49.6766 107.147 50.1243 107.257V105.788C49.7214 105.689 48.5576 105.457 47.8302 105.457C46.879 105.457 46.3195 105.612 45.9278 105.943C45.5361 106.274 45.3906 106.771 45.3906 107.301C45.3906 107.798 45.5473 108.207 45.7711 108.461Z" fill="#222222"/>
<path d="M51.8736 110.647C52.3436 111.288 52.9815 111.664 54.2572 111.664C55.5218 111.664 56.1709 111.244 56.652 110.592C56.999 110.117 57.1669 109.388 57.1669 108.571C57.1669 107.765 57.0214 107.014 56.6297 106.473C56.1709 105.844 55.4211 105.457 54.2572 105.457C53.015 105.457 52.31 105.833 51.8401 106.517C51.5155 106.992 51.3477 107.765 51.3477 108.571C51.3477 109.444 51.5491 110.206 51.8736 110.647ZM53.2389 107.401C53.4403 107.047 53.7984 106.937 54.2572 106.937C54.7049 106.937 55.007 107.058 55.2085 107.323C55.4435 107.633 55.5106 108.041 55.5106 108.538C55.5106 109.09 55.4435 109.455 55.2421 109.742C55.0182 110.051 54.6825 110.184 54.2572 110.184C53.8096 110.184 53.4291 110.062 53.2277 109.698C53.071 109.411 53.0039 109.046 53.0039 108.571C53.0039 108.052 53.071 107.699 53.2389 107.401Z" fill="#222222"/>
<path d="M58.4019 105.645V111.476H60.0357V107.39C60.3379 107.268 60.9869 107.014 61.3786 107.014C61.58 107.014 61.8038 107.014 61.927 107.169C62.0836 107.379 62.0836 107.677 62.0836 108.063V111.476H63.7175V107.986C63.7175 106.804 63.5496 106.285 63.1915 105.921C62.867 105.59 62.4417 105.457 61.8934 105.457C61.345 105.457 60.405 105.821 60.0357 105.965V105.645H58.4019Z" fill="#222222"/>
<path d="M67.9224 103.149V111.476H71.6266C72.824 111.476 73.5402 111.288 74.0662 110.879C74.6256 110.449 74.8944 109.797 74.8944 109.013C74.8944 108.538 74.7485 108.096 74.536 107.82C74.3344 107.555 74.1219 107.379 73.8762 107.191C74.0099 106.992 74.1782 106.738 74.3344 106.473C74.5699 106.075 74.7037 105.722 74.7037 105.203C74.7037 104.562 74.3907 103.933 73.8646 103.569C73.4058 103.248 72.8349 103.149 71.9178 103.149H67.9224ZM69.601 108.041H71.615C72.1859 108.041 72.5104 108.074 72.7568 108.207C73.0704 108.384 73.1933 108.649 73.1933 109.013C73.1933 109.311 73.1261 109.521 72.9245 109.698C72.6896 109.897 72.3651 109.952 71.6598 109.952H69.601V108.041ZM69.601 106.517V104.673H71.727C72.2198 104.673 72.5219 104.695 72.712 104.794C72.9245 104.905 73.0141 105.126 73.0141 105.402C73.0141 105.678 72.9021 105.877 72.7792 106.086C72.7011 106.219 72.5891 106.396 72.5104 106.517H69.601Z" fill="#222222"/>
<path d="M75.8711 108.693C75.8711 109.565 75.9946 110.272 76.3191 110.802C76.6436 111.332 77.1357 111.664 77.8519 111.664C78.4785 111.664 78.8477 111.443 79.2733 111.144C79.5082 110.979 79.7098 110.835 79.8442 110.725V111.476H81.4557V106.098C80.426 105.744 79.5421 105.457 78.602 105.457C77.393 105.457 76.7332 105.821 76.3415 106.462C75.9831 107.047 75.8711 107.809 75.8711 108.693ZM77.5274 108.693C77.5274 108.074 77.5722 107.699 77.7399 107.368C77.9191 107.014 78.2551 106.893 78.7249 106.893C79.1281 106.893 79.5754 107.036 79.8218 107.125V109.19C79.6535 109.333 79.4858 109.466 79.2618 109.631C78.9821 109.841 78.5572 110.14 78.2327 110.14C77.9415 110.14 77.7738 110.051 77.6727 109.786C77.5722 109.51 77.5274 109.079 77.5274 108.693Z" fill="#222222"/>
<path d="M84.548 111.476V103.149H82.9141V111.476H84.548Z" fill="#222222"/>
<path d="M86.0073 111.476H87.6412V107.202H89.208V105.722H87.6412C87.6412 105.59 87.6412 105.457 87.6636 105.302C87.686 105.159 87.7302 105.037 87.8985 104.916C88.1891 104.706 88.7824 104.574 89.1965 104.485V102.917C88.2563 103.105 87.3385 103.359 86.7907 103.734C86.4662 103.955 86.2422 104.242 86.1302 104.596C86.0182 104.949 86.0073 105.413 86.0073 105.722V111.476Z" fill="#222222"/>
<path d="M90.069 110.647C90.5388 111.288 91.1769 111.664 92.4524 111.664C93.717 111.664 94.366 111.244 94.8473 110.592C95.1942 110.117 95.3618 109.388 95.3618 108.571C95.3618 107.765 95.2166 107.014 94.8249 106.473C94.366 105.844 93.6166 105.457 92.4524 105.457C91.2102 105.457 90.5055 105.833 90.0351 106.517C89.7106 106.992 89.543 107.765 89.543 108.571C89.543 109.444 89.7446 110.206 90.069 110.647ZM91.4342 107.401C91.6358 107.047 91.9935 106.937 92.4524 106.937C92.9004 106.937 93.2025 107.058 93.4041 107.323C93.639 107.633 93.7062 108.041 93.7062 108.538C93.7062 109.09 93.639 109.455 93.4374 109.742C93.2134 110.051 92.878 110.184 92.4524 110.184C92.005 110.184 91.6242 110.062 91.4233 109.698C91.2665 109.411 91.1993 109.046 91.1993 108.571C91.1993 108.052 91.2665 107.699 91.4342 107.401Z" fill="#222222"/>
<path d="M97.1338 111.045C97.4583 111.388 97.9959 111.664 98.8349 111.664C99.9875 111.664 101.241 111.355 101.868 111.2V105.645H100.234V109.985C99.9543 110.051 99.5511 110.129 99.0589 110.129C98.7568 110.129 98.5104 110.073 98.376 109.919C98.2192 109.731 98.2192 109.378 98.2192 108.991V105.645H96.5859V109.069C96.5859 110.084 96.7645 110.648 97.1338 111.045Z" fill="#222222"/>
<path d="M103.318 111.476H104.951V107.865C105.119 107.754 105.388 107.6 105.746 107.456C106.138 107.302 106.54 107.202 107.033 107.125V105.501C106.495 105.579 105.992 105.711 105.69 105.855C105.41 105.987 105.187 106.142 104.951 106.308V105.645H103.318V111.476Z" fill="#222222"/>
<path d="M110.271 111.476H111.904V105.656L113.751 109.819H115.216L117.063 105.656V111.476H118.697V103.149H116.571L114.5 107.82L112.43 103.149H110.271V111.476Z" fill="#222222"/>
<path d="M120.537 110.647C121.007 111.288 121.645 111.664 122.921 111.664C124.185 111.664 124.834 111.244 125.316 110.592C125.662 110.117 125.831 109.388 125.831 108.571C125.831 107.765 125.685 107.014 125.293 106.473C124.834 105.844 124.085 105.457 122.921 105.457C121.678 105.457 120.974 105.833 120.503 106.517C120.179 106.992 120.011 107.765 120.011 108.571C120.011 109.444 120.213 110.206 120.537 110.647ZM121.902 107.401C122.104 107.047 122.462 106.937 122.921 106.937C123.369 106.937 123.671 107.058 123.872 107.323C124.107 107.633 124.174 108.041 124.174 108.538C124.174 109.09 124.107 109.455 123.906 109.742C123.682 110.051 123.346 110.184 122.921 110.184C122.473 110.184 122.093 110.062 121.892 109.698C121.735 109.411 121.668 109.046 121.668 108.571C121.668 108.052 121.735 107.699 121.902 107.401Z" fill="#222222"/>
<path d="M127.065 108.98C127.065 109.852 127.065 110.228 127.211 110.592C127.334 110.901 127.569 111.144 128.061 111.299C128.599 111.465 129.382 111.52 130.233 111.553V110.106C129.841 110.084 129.438 110.062 129.136 109.974C128.867 109.896 128.777 109.742 128.744 109.587C128.699 109.399 128.699 109.179 128.699 108.903V107.202H130.535V105.722H128.699V104.099H127.065V108.98Z" fill="#222222"/>
<path d="M131.728 110.647C132.198 111.288 132.835 111.664 134.112 111.664C135.376 111.664 136.025 111.244 136.506 110.592C136.853 110.117 137.021 109.388 137.021 108.571C137.021 107.765 136.876 107.014 136.484 106.473C136.025 105.844 135.275 105.457 134.112 105.457C132.869 105.457 132.164 105.833 131.694 106.517C131.37 106.992 131.202 107.765 131.202 108.571C131.202 109.444 131.403 110.206 131.728 110.647ZM133.093 107.401C133.294 107.047 133.653 106.937 134.112 106.937C134.559 106.937 134.861 107.058 135.063 107.323C135.298 107.633 135.365 108.041 135.365 108.538C135.365 109.09 135.298 109.455 135.097 109.742C134.873 110.051 134.537 110.184 134.112 110.184C133.664 110.184 133.283 110.062 133.082 109.698C132.925 109.411 132.858 109.046 132.858 108.571C132.858 108.052 132.925 107.699 133.093 107.401Z" fill="#222222"/>
<path d="M138.256 111.476H139.89V107.865C140.058 107.754 140.326 107.6 140.685 107.456C141.076 107.302 141.479 107.202 141.972 107.125V105.501C141.435 105.579 140.931 105.711 140.629 105.855C140.349 105.987 140.125 106.142 139.89 106.308V105.645H138.256V111.476Z" fill="#222222"/>
<path d="M142.728 108.461C142.963 108.726 143.255 108.869 143.769 109.013L144.832 109.3C145.179 109.388 145.391 109.444 145.515 109.51C145.638 109.576 145.694 109.676 145.694 109.819C145.694 109.952 145.66 110.062 145.537 110.14C145.403 110.228 145.201 110.239 144.899 110.239C143.948 110.239 142.84 110.007 142.415 109.919V111.387C142.784 111.454 143.982 111.664 144.72 111.664C145.727 111.664 146.399 111.465 146.813 111.1C147.193 110.758 147.339 110.382 147.339 109.808C147.339 109.333 147.171 108.881 146.925 108.627C146.679 108.373 146.343 108.196 145.75 108.041L144.732 107.776C144.508 107.721 144.34 107.677 144.194 107.611C144.049 107.544 143.993 107.467 143.993 107.301C143.993 107.169 144.015 107.069 144.127 106.992C144.239 106.915 144.407 106.882 144.821 106.882C145.537 106.882 146.634 107.147 147.082 107.257V105.788C146.679 105.689 145.515 105.457 144.787 105.457C143.836 105.457 143.276 105.612 142.885 105.943C142.493 106.274 142.348 106.771 142.348 107.301C142.348 107.798 142.504 108.207 142.728 108.461Z" fill="#222222"/>
</g>
<g clip-path="url(#clip1_105_817)">
<path d="M76.7526 27.0547C58.6888 27.0547 44.0439 41.6982 44.0439 59.7626C44.0439 77.8268 58.6888 92.4705 76.7526 92.4705C94.8177 92.4705 109.461 77.8268 109.461 59.7626C109.461 41.6982 94.8178 27.0547 76.7526 27.0547ZM76.7526 90.835C59.5911 90.835 45.6808 76.9236 45.6808 59.7626C45.6808 42.6018 59.5911 28.6897 76.7526 28.6897C93.9141 28.6897 107.826 42.6017 107.826 59.7626C107.826 76.9236 93.9141 90.835 76.7526 90.835Z" fill="url(#paint0_linear_105_817)"/>
<path d="M108.06 59.7627C108.06 77.0517 94.0419 91.0693 76.7527 91.0693C59.4634 91.0693 45.4468 77.0517 45.4468 59.7627C45.4468 42.4727 59.4634 28.4561 76.7527 28.4561C94.0419 28.4561 108.06 42.4727 108.06 59.7627Z" fill="#333333"/>
<path d="M107.825 59.7624C107.825 76.9234 93.914 90.8348 76.7525 90.8348C59.5909 90.8348 45.6807 76.9234 45.6807 59.7624C45.6807 42.6016 59.5909 28.6895 76.7525 28.6895C93.914 28.6895 107.825 42.6016 107.825 59.7624Z" fill="url(#paint1_radial_105_817)"/>
<path d="M97.5845 59.7624C97.5845 71.2672 88.2577 80.5935 76.7526 80.5935C65.2472 80.5935 55.9204 71.2672 55.9204 59.7624C55.9204 48.257 65.2472 38.9304 76.7526 38.9304C88.2577 38.9304 97.5845 48.2571 97.5845 59.7624Z" fill="url(#paint2_linear_105_817)"/>
<path d="M77.5871 38.3677L79.7511 32.6322V38.3677H81.3946V30.1536H78.9247L76.6781 36.0348H76.6994L74.4529 30.1536H71.9829V38.3677H73.6265V32.6322L75.7904 38.3677H77.5871Z" fill="black"/>
<path d="M100.142 42.0508L97.3343 46.1452L101.745 43.9759L102.941 45.4105L95.9996 48.896L94.5969 47.1979L97.2878 43.1408L97.2719 43.1208L92.7961 45.0365L91.3774 43.3498L96.0581 37.1519L97.2546 38.5872L94.3238 42.534L98.8595 40.5109L100.142 42.0508Z" fill="black"/>
<path d="M62.205 40.4817C61.5434 39.8396 60.5227 39.646 59.5631 40.2408C59.7468 39.7657 59.6722 39.282 59.5751 39.0137C59.1612 38.2612 59.0161 38.166 58.6782 37.8805C57.5748 36.9561 56.4142 37.7454 55.5851 38.7335L51.5767 43.5107L57.8783 48.7975L62.1051 43.761C63.0712 42.6099 63.2204 41.4686 62.205 40.4817ZM54.0532 42.7855L56.461 39.9162C56.7404 39.5841 57.3712 39.5974 57.7758 39.9382C58.2216 40.3121 58.2229 40.8417 57.9235 41.1991L55.5425 44.0353L54.0532 42.7855ZM60.6957 43.2626L58.1857 46.2538L56.614 44.9329L59.1427 41.9185C59.4289 41.5777 60.0664 41.4786 60.4962 41.8392C60.9805 42.2465 61.0284 42.866 60.6957 43.2626Z" fill="#333333"/>
<path d="M77.6045 38.0503L79.7684 32.315V38.0503H81.4121V29.8362H78.9418L76.6954 35.7172H76.7167L74.4702 29.8362H72V38.0503H73.6437V32.315L75.8078 38.0503H77.6045Z" fill="url(#paint3_radial_105_817)"/>
<path d="M100.159 41.4997L97.3518 45.5942L101.762 43.4243L102.958 44.8596L96.0169 48.3451L94.6143 46.6463L97.3052 42.5897L97.2894 42.5691L92.8122 44.4856L91.395 42.798L96.0757 36.6008L97.272 38.0356L94.3416 41.9823L98.8756 39.96L100.159 41.4997Z" fill="url(#paint4_radial_105_817)"/>
<path d="M61.9106 40.3199C61.2504 39.6777 60.2283 39.484 59.2702 40.0783C59.4524 39.6031 59.378 39.1194 59.2809 38.8525C58.8669 38.0986 58.7232 38.0047 58.3824 37.7186C57.2792 36.7937 56.12 37.5835 55.2922 38.5725L51.2822 43.3489L57.584 48.6357L61.8108 43.5984C62.7757 42.4472 62.926 41.3068 61.9106 40.3199ZM53.7591 42.6235L56.1666 39.7549C56.4449 39.4222 57.0756 39.4355 57.4815 39.7755C57.9273 40.1501 57.9287 40.6804 57.6279 41.0364L55.2484 43.8732L53.7591 42.6235ZM60.4028 43.1006L57.8928 46.0918L56.3183 44.7708L58.8484 41.7558C59.1345 41.4158 59.7706 41.3166 60.2006 41.6774C60.6876 42.0852 60.7355 42.7034 60.4028 43.1006Z" fill="url(#paint5_radial_105_817)"/>
<path d="M56.6138 59.7631C56.6138 48.6404 65.6304 39.6238 76.7525 39.6238C87.8757 39.6238 96.8911 48.6404 96.8911 59.7631C96.8911 70.8852 87.8757 79.9016 76.7525 79.9016C65.6304 79.9016 56.6138 70.8852 56.6138 59.7631Z" fill="url(#paint6_radial_105_817)"/>
<path d="M57.1929 59.7628C57.1929 48.9602 65.95 40.2024 76.7527 40.2024C87.5553 40.2024 96.3136 48.9602 96.3136 59.7628C96.3136 70.5655 87.5553 79.3233 76.7527 79.3233C65.9501 79.3233 57.1929 70.5655 57.1929 59.7628Z" fill="url(#paint7_radial_105_817)"/>
<path d="M57.1621 59.7629H76.7525V40.1726C65.9325 40.1726 57.1621 48.943 57.1621 59.7629Z" fill="url(#paint8_radial_105_817)"/>
<path d="M76.7524 59.7627V79.3533C87.5723 79.3533 96.3428 70.5812 96.3428 59.7627H76.7524Z" fill="url(#paint9_radial_105_817)"/>
<path d="M96.5053 59.4146H77.1V40.0093H76.4053V59.4146H57V60.1094H76.4053V79.5153H77.1V60.1094H96.5053V59.4146Z" fill="url(#paint10_radial_105_817)"/>
<path d="M77.1002 40.5591C87.4344 40.7429 95.7735 49.0814 95.9585 59.4148H96.3044C96.1196 48.8897 87.626 40.3949 77.1001 40.2112L77.1002 40.5591Z" fill="url(#paint11_linear_105_817)"/>
<path d="M57.5134 59.4123C57.697 49.0648 66.0481 40.7144 76.3957 40.53V40.1826C65.8553 40.3669 57.351 48.8731 57.166 59.4123H57.5134V59.4123Z" fill="#C2D7E8"/>
<path d="M76.4049 78.9661C66.0708 78.7826 57.7317 70.4435 57.5479 60.1094H57.2007C57.3856 70.6351 65.8792 79.1302 76.405 79.3137L76.4049 78.9661Z" fill="url(#paint12_linear_105_817)"/>
<path d="M95.9584 60.1094C95.7735 70.4435 87.4343 78.7826 77.1001 78.9661V79.3137C87.6259 79.1302 96.1207 70.6351 96.3044 60.1094H95.9584Z" fill="#12404F"/>
<path d="M76.034 40.1826V59.0336H57.1836V59.4056H76.034H76.4052V59.0336V40.1826H76.034Z" fill="url(#paint13_linear_105_817)"/>
<path d="M76.002 79.1316V60.5074H57.3394V60.1401H76.002H76.3693V60.5074V79.1316H76.002Z" fill="url(#paint14_linear_105_817)"/>
<path d="M77.4979 79.1316V60.5074H96.1219V60.1401H77.4979H77.1318V60.5074V79.1316H77.4979Z" fill="url(#paint15_linear_105_817)"/>
<path d="M77.4979 40.3489V58.9729H96.1219V59.3396H77.4979H77.1318V58.9729V40.3489H77.4979Z" fill="url(#paint16_linear_105_817)"/>
</g>
<defs>
<linearGradient id="paint0_linear_105_817" x1="39.2559" y1="23.5281" x2="108.657" y2="90.5921" gradientUnits="userSpaceOnUse">
<stop stop-color="#DFF4FF"/>
<stop offset="0.0984" stop-color="#D6EAF5"/>
<stop offset="0.2678" stop-color="#BFD0D9"/>
<stop offset="0.4879" stop-color="#98A5AC"/>
<stop offset="0.7469" stop-color="#646B6E"/>
<stop offset="1" stop-color="#2B2B2B"/>
</linearGradient>
<radialGradient id="paint1_radial_105_817" cx="0" cy="0" r="1" gradientUnits="userSpaceOnUse" gradientTransform="translate(43.6361 29.2177) scale(46.47 46.47)">
<stop stop-color="white"/>
<stop offset="0.3064" stop-color="#A8A8A8"/>
<stop offset="0.6461" stop-color="#4F4F4F"/>
<stop offset="0.8853" stop-color="#161616"/>
<stop offset="1"/>
</radialGradient>
<linearGradient id="paint2_linear_105_817" x1="100.634" y1="82.8397" x2="56.4331" y2="40.1269" gradientUnits="userSpaceOnUse">
<stop stop-color="#DFF4FF"/>
<stop offset="0.0855" stop-color="#D6EAF5"/>
<stop offset="0.2327" stop-color="#BED0D9"/>
<stop offset="0.4239" stop-color="#96A4AC"/>
<stop offset="0.6516" stop-color="#5F686D"/>
<stop offset="0.9075" stop-color="#1A1D1E"/>
<stop offset="1"/>
</linearGradient>
<radialGradient id="paint3_radial_105_817" cx="0" cy="0" r="1" gradientUnits="userSpaceOnUse" gradientTransform="translate(35.2904 24.4855) scale(111.661 111.661)">
<stop stop-color="white"/>
<stop offset="0.3102" stop-color="#FDFDFD"/>
<stop offset="0.4505" stop-color="#F6F6F6"/>
<stop offset="0.5567" stop-color="#E9E9E9"/>
<stop offset="0.6456" stop-color="#D7D7D7"/>
<stop offset="0.7238" stop-color="#BFBFBF"/>
<stop offset="0.7944" stop-color="#A2A2A2"/>
<stop offset="0.8593" stop-color="#808080"/>
<stop offset="0.9199" stop-color="#575757"/>
<stop offset="0.9746" stop-color="#2B2B2B"/>
<stop offset="1" stop-color="#141414"/>
</radialGradient>
<radialGradient id="paint4_radial_105_817" cx="0" cy="0" r="1" gradientUnits="userSpaceOnUse" gradientTransform="translate(35.2856 24.4855) scale(111.67 111.67)">
<stop stop-color="white"/>
<stop offset="0.3102" stop-color="#FDFDFD"/>
<stop offset="0.4505" stop-color="#F6F6F6"/>
<stop offset="0.5567" stop-color="#E9E9E9"/>
<stop offset="0.6456" stop-color="#D7D7D7"/>
<stop offset="0.7238" stop-color="#BFBFBF"/>
<stop offset="0.7944" stop-color="#A2A2A2"/>
<stop offset="0.8593" stop-color="#808080"/>
<stop offset="0.9199" stop-color="#575757"/>
<stop offset="0.9746" stop-color="#2B2B2B"/>
<stop offset="1" stop-color="#141414"/>
</radialGradient>
<radialGradient id="paint5_radial_105_817" cx="0" cy="0" r="1" gradientUnits="userSpaceOnUse" gradientTransform="translate(35.2792 24.4526) scale(111.756)">
<stop stop-color="white"/>
<stop offset="0.3102" stop-color="#FDFDFD"/>
<stop offset="0.4505" stop-color="#F6F6F6"/>
<stop offset="0.5567" stop-color="#E9E9E9"/>
<stop offset="0.6456" stop-color="#D7D7D7"/>
<stop offset="0.7238" stop-color="#BFBFBF"/>
<stop offset="0.7944" stop-color="#A2A2A2"/>
<stop offset="0.8593" stop-color="#808080"/>
<stop offset="0.9199" stop-color="#575757"/>
<stop offset="0.9746" stop-color="#2B2B2B"/>
<stop offset="1" stop-color="#141414"/>
</radialGradient>
<radialGradient id="paint6_radial_105_817" cx="0" cy="0" r="1" gradientUnits="userSpaceOnUse" gradientTransform="translate(55.2886 39.9661) scale(30.1183 30.1183)">
<stop stop-color="#E6E6E6"/>
<stop offset="0.1045" stop-color="#D6D6D6"/>
<stop offset="0.3074" stop-color="#ADADAD"/>
<stop offset="0.5884" stop-color="#6C6C6C"/>
<stop offset="0.9335" stop-color="#121212"/>
<stop offset="1"/>
</radialGradient>
<radialGradient id="paint7_radial_105_817" cx="0" cy="0" r="1" gradientUnits="userSpaceOnUse" gradientTransform="translate(63.5265 44.0167) scale(43.8006 43.8006)">
<stop stop-color="white"/>
<stop offset="0.3435" stop-color="#FDFDFD"/>
<stop offset="0.4814" stop-color="#F6F6F6"/>
<stop offset="0.5824" stop-color="#EAEAEA"/>
<stop offset="0.6654" stop-color="#D8D8D8"/>
<stop offset="0.7373" stop-color="#C2C2C2"/>
<stop offset="0.8016" stop-color="#A6A6A6"/>
<stop offset="0.8602" stop-color="#848484"/>
<stop offset="0.9126" stop-color="#5F5F5F"/>
<stop offset="0.9494" stop-color="#404040"/>
<stop offset="0.9566" stop-color="#404040"/>
<stop offset="1"/>
</radialGradient>
<radialGradient id="paint8_radial_105_817" cx="0" cy="0" r="1" gradientUnits="userSpaceOnUse" gradientTransform="translate(50.6659 27.4135) scale(77.5713 77.5713)">
<stop offset="0.1685" stop-color="white"/>
<stop offset="0.1957" stop-color="#E0EFF7"/>
<stop offset="0.2406" stop-color="#B2D9EC"/>
<stop offset="0.2872" stop-color="#8BC5E2"/>
<stop offset="0.335" stop-color="#6BB5DA"/>
<stop offset="0.3844" stop-color="#52A9D4"/>
<stop offset="0.4359" stop-color="#41A0CF"/>
<stop offset="0.4911" stop-color="#369BCD"/>
<stop offset="0.5562" stop-color="#3399CC"/>
<stop offset="0.606" stop-color="#3396C8"/>
<stop offset="0.6553" stop-color="#328EBC"/>
<stop offset="0.7045" stop-color="#3180A8"/>
<stop offset="0.7536" stop-color="#2F6D8C"/>
<stop offset="0.8027" stop-color="#2D5468"/>
<stop offset="0.8512" stop-color="#2A373D"/>
<stop offset="0.8708" stop-color="#292929"/>
</radialGradient>
<radialGradient id="paint9_radial_105_817" cx="0" cy="0" r="1" gradientUnits="userSpaceOnUse" gradientTransform="translate(50.6659 27.4127) scale(77.5698 77.5699)">
<stop offset="0.1685" stop-color="white"/>
<stop offset="0.1957" stop-color="#E0EFF7"/>
<stop offset="0.2406" stop-color="#B2D9EC"/>
<stop offset="0.2872" stop-color="#8BC5E2"/>
<stop offset="0.335" stop-color="#6BB5DA"/>
<stop offset="0.3844" stop-color="#52A9D4"/>
<stop offset="0.4359" stop-color="#41A0CF"/>
<stop offset="0.4911" stop-color="#369BCD"/>
<stop offset="0.5562" stop-color="#3399CC"/>
<stop offset="0.606" stop-color="#3396C8"/>
<stop offset="0.6553" stop-color="#328EBC"/>
<stop offset="0.7045" stop-color="#3180A8"/>
<stop offset="0.7536" stop-color="#2F6D8C"/>
<stop offset="0.8027" stop-color="#2D5468"/>
<stop offset="0.8512" stop-color="#2A373D"/>
<stop offset="0.8708" stop-color="#292929"/>
</radialGradient>
<radialGradient id="paint10_radial_105_817" cx="0" cy="0" r="1" gradientUnits="userSpaceOnUse" gradientTransform="translate(55.7003 40.3451) scale(29.541)">
<stop stop-color="#E6E6E6"/>
<stop offset="0.1045" stop-color="#D6D6D6"/>
<stop offset="0.3074" stop-color="#ADADAD"/>
<stop offset="0.5884" stop-color="#6C6C6C"/>
<stop offset="0.9335" stop-color="#121212"/>
<stop offset="1"/>
</radialGradient>
<linearGradient id="paint11_linear_105_817" x1="72.8793" y1="32.9694" x2="101.688" y2="60.8077" gradientUnits="userSpaceOnUse">
<stop stop-color="#F0F4FF"/>
<stop offset="0.1086" stop-color="#EBEFF9"/>
<stop offset="0.2475" stop-color="#DCE0EA"/>
<stop offset="0.4028" stop-color="#C4C7CF"/>
<stop offset="0.5701" stop-color="#A2A4AB"/>
<stop offset="0.7469" stop-color="#76777C"/>
<stop offset="0.9291" stop-color="#414243"/>
<stop offset="1" stop-color="#2B2B2B"/>
</linearGradient>
<linearGradient id="paint12_linear_105_817" x1="49.4958" y1="56.4727" x2="78.3046" y2="84.3115" gradientUnits="userSpaceOnUse">
<stop stop-color="#F0F4FF"/>
<stop offset="0.1086" stop-color="#EBEFF9"/>
<stop offset="0.2475" stop-color="#DCE0EA"/>
<stop offset="0.4028" stop-color="#C4C7CF"/>
<stop offset="0.5701" stop-color="#A2A4AB"/>
<stop offset="0.7469" stop-color="#76777C"/>
<stop offset="0.9291" stop-color="#414243"/>
<stop offset="1" stop-color="#2B2B2B"/>
</linearGradient>
<linearGradient id="paint13_linear_105_817" x1="63.4332" y1="46.5461" x2="78.3716" y2="60.9816" gradientUnits="userSpaceOnUse">
<stop stop-color="#C2D7E8"/>
<stop offset="0.1337" stop-color="#BACFE1"/>
<stop offset="0.3425" stop-color="#A4BACD"/>
<stop offset="0.6001" stop-color="#8098AC"/>
<stop offset="0.894" stop-color="#4E697F"/>
<stop offset="1" stop-color="#3A566D"/>
</linearGradient>
<linearGradient id="paint14_linear_105_817" x1="55.9516" y1="50.0831" x2="84.4705" y2="77.6417" gradientUnits="userSpaceOnUse">
<stop stop-color="#F0F4FF"/>
<stop offset="0.0973" stop-color="#E8EBF6"/>
<stop offset="0.2568" stop-color="#D1D4DD"/>
<stop offset="0.4587" stop-color="#ABAEB5"/>
<stop offset="0.6951" stop-color="#78797D"/>
<stop offset="0.9578" stop-color="#363637"/>
<stop offset="1" stop-color="#2B2B2B"/>
</linearGradient>
<linearGradient id="paint15_linear_105_817" x1="76.9718" y1="60.3058" x2="86.9754" y2="69.9726" gradientUnits="userSpaceOnUse">
<stop stop-color="#D9DEF0"/>
<stop offset="0.1229" stop-color="#D4DAEC"/>
<stop offset="0.2629" stop-color="#C7CFE2"/>
<stop offset="0.4114" stop-color="#B0BCD1"/>
<stop offset="0.5657" stop-color="#90A1B8"/>
<stop offset="0.7246" stop-color="#677F99"/>
<stop offset="0.8849" stop-color="#355674"/>
<stop offset="0.9719" stop-color="#173D5D"/>
</linearGradient>
<linearGradient id="paint16_linear_105_817" x1="66.7384" y1="39.6239" x2="95.2263" y2="67.1526" gradientUnits="userSpaceOnUse">
<stop stop-color="#F0F4FF"/>
<stop offset="0.1086" stop-color="#EBEFF9"/>
<stop offset="0.2475" stop-color="#DCE0EA"/>
<stop offset="0.4028" stop-color="#C4C7CF"/>
<stop offset="0.5701" stop-color="#A2A4AB"/>
<stop offset="0.7469" stop-color="#76777C"/>
<stop offset="0.9291" stop-color="#414243"/>
<stop offset="1" stop-color="#2B2B2B"/>
</linearGradient>
<clipPath id="clip0_105_817">
<rect width="144" height="24" fill="white" transform="translate(5 102.5)"/>
</clipPath>
<clipPath id="clip1_105_817">
<rect width="65.5" height="65.5" fill="white" transform="translate(44 27)"/>
</clipPath>
</defs>
</svg>
